<?xml version="1.0" encoding="utf-8"?>
<!-- Generator: Adobe Illustrator 22.0.0, SVG Export Plug-In . SVG Version: 6.00 Build 0)  -->
<svg version="1.1" id="Layer_1" xmlns="http://www.w3.org/2000/svg" xmlns:xlink="http://www.w3.org/1999/xlink" x="0px" y="0px"
	 viewBox="0 0 800 515.2" style="enable-background:new 0 0 800 515.2;" xml:space="preserve">
<style type="text/css">
	.st0{fill:#FFFFFF;}
</style>
<g>
	<g>
		<path class="st0" d="M242.3,101.4c0,56-38.4,101.4-85.8,101.4c-47.4,0-85.8-45.4-85.8-101.4C70.7,45.4,109.1,0,156.5,0
			C203.9,0,242.3,45.4,242.3,101.4z"/>
		<path class="st0" d="M254.3,280.2c6.2-3.8,13.1-6.2,20.2-7.4c-14.4-20.4-24.6-42.2-30.5-68.3c-1.6-9.5-14.7-10.7-24.4-2.7
			c-18.2,14.8-39.4,24.7-63.1,24.7c-24.1,0-46.3-9.6-64.1-25.7c-5.7-5.1-14-5.9-20.6-1.9c-33.8,20.6-59.3,53.4-70.5,92.3
			c-3,10.4-0.9,21.7,5.6,30.4c6.5,8.7,16.8,13.8,27.6,13.8h154.7C207.8,313.9,229.6,295.3,254.3,280.2z"/>
	</g>
	<g>
		<path class="st0" d="M557.7,101.4c0,56,38.4,101.4,85.8,101.4c47.4,0,85.8-45.4,85.8-101.4c0-56-38.4-101.4-85.8-101.4
			C596.1,0,557.7,45.4,557.7,101.4z"/>
		<path class="st0" d="M545.7,280.2c-6.2-3.8-13.1-6.2-20.2-7.4c14.4-20.4,24.6-42.2,30.5-68.3c1.6-9.5,14.7-10.7,24.4-2.7
			c18.2,14.8,39.4,24.7,63.1,24.7c24.1,0,46.3-9.6,64.1-25.7c5.7-5.1,14-5.9,20.6-1.9c33.8,20.6,59.3,53.4,70.5,92.3
			c3,10.4,0.9,21.7-5.6,30.4c-6.5,8.7-16.8,13.8-27.6,13.8H610.7C592.2,313.9,570.4,295.3,545.7,280.2z"/>
	</g>
	<g>
		<path class="st0" d="M633.9,447.4c-16.8-58.6-54.9-108.2-105.3-140c-9.9-6.3-22.9-5.3-31.7,2.5c-27.1,23.8-60.6,38-96.9,38
			c-37.1,0-71.2-14.7-98.5-39.4c-8.7-7.9-21.6-9.1-31.6-2.9c-51.9,31.7-91.2,82-108.3,141.8c-4.6,16-1.4,33.3,8.7,46.6
			c10.1,13.3,25.8,21.2,42.5,21.2h370.1c16.7,0,32.4-7.8,42.5-21.2C635.3,480.7,638.5,463.5,633.9,447.4z"/>
		<path class="st0" d="M531.9,155.8c0,86.1-59.1,155.8-131.9,155.8c-72.9,0-131.9-69.8-131.9-155.8C268.1,69.7,327.1,0,400,0
			C472.9,0,531.9,69.7,531.9,155.8z"/>
	</g>
</g>
</svg>
