<?xml version="1.0" encoding="utf-8"?>
<!-- Generator: Adobe Illustrator 22.0.0, SVG Export Plug-In . SVG Version: 6.00 Build 0)  -->
<svg version="1.1" id="Layer_1" xmlns="http://www.w3.org/2000/svg" xmlns:xlink="http://www.w3.org/1999/xlink" x="0px" y="0px"
	 viewBox="0 0 384 337.5" style="enable-background:new 0 0 384 337.5;" xml:space="preserve">
<style type="text/css">
	.st0{fill:#C3C3C3;}
</style>
<path class="st0" d="M384,189.7c-2.5,7.5-7.9,12-14.8,15.3c-4.5,2.1-8.8,4.8-13.1,7.2c-11.3,6.2-21.4,3.4-28-7.8
	c-0.4-0.6-0.8-1.2-1.7-2.8c-4.1,3.3-8.1,6.3-12,9.6c-0.6,0.5-0.8,2.1-0.5,2.8c9.8,20,3.9,34.2-17.1,40.5c0.1,6.5-1.3,12.7-5.5,18
	c-4.3,5.3-9.9,8.3-16.5,9.4c-2.3,21.6-11,28.5-33.6,27c-3.3,10.9-10.2,17.9-22,19.6c-11.7,1.6-19.4-5.7-27.2-12.2
	c-7,5.6-13.5,11.2-20.5,16.3c-14.5,10.5-34.8,3.1-39.1-14.1c-0.7-2.7-0.8-5.6-1.1-8.5c-16.9-6.7-21.3-12.1-21.9-27.8
	c-14.5-3.3-22.1-12.4-22.2-27.6c-1-0.3-2-0.7-3.1-0.9c-16.9-4.6-24.2-23.5-14.7-38.2c1.4-2.1,1.6-3.5-0.4-5
	c-3.7-2.8-7.4-5.6-11.4-8.6c-1.3,2.1-2.1,3.5-3,4.9c-5.3,8.1-15.3,11.2-24,6.9c-7.5-3.8-14.7-8-22-12.1c-4.6-2.6-6.7-7.1-8.7-11.7
	c0-2.5,0-5,0-7.5c4.8-8.9,9.4-17.9,14.3-26.6c14.9-26.4,29.8-52.8,44.8-79.2c6.8-12,16.6-14.8,28.7-8.2c5.3,2.9,10.5,5.8,15.7,8.7
	c10.8,6,13.9,13.5,10.2,25.9c6,1.7,12.1,3.5,18.1,5.2c0.5,0.1,1.2-0.3,1.6-0.7c8-7.1,17.9-8.5,27.8-9.6c12.4-1.3,24.9-2.1,37.3-3.3
	c6.7-0.6,13.2,0.5,19.5,2.7c9.3,3.3,18.5,6.7,27.9,9.7c2.7,0.9,5.9,0.9,8.7,0.4c5.2-1,10.3-2.8,15.1-4.1c-0.4-3.6-1.3-6.8-1.1-10
	c0.4-6.5,3.7-11.6,9.4-14.9c6.5-3.7,13.1-7.3,19.7-10.9c10-5.4,20.5-2.4,26.1,7.3c3.7,6.4,7.3,12.8,10.9,19.2
	c2.5,4.6,1.6,8.9-2.2,11.1c-3.9,2.3-8.2,0.8-10.9-3.9c-3.4-5.9-6.8-11.9-10.2-17.9c-2.3-4-3.5-4.4-7.5-2.2c-5.7,3.1-11.4,6.3-17,9.4
	c-3.9,2.2-4.3,3.4-2.2,7.1c18.8,33.3,37.6,66.5,56.4,99.8c2,3.5,3.5,3.9,7,2c5.8-3.2,11.6-6.4,17.4-9.6c3.8-2.1,4.2-3.5,2.1-7.2
	c-4-7.1-8-14.1-12-21.2c-1.6-2.8-1.7-5.7,0.2-8.5c1.8-2.5,4.4-3.7,7.2-2.8c2,0.6,4.3,2,5.3,3.7c5.4,9.4,10.4,19,15.5,28.5
	C384,184.7,384,187.2,384,189.7z M183.5,276.9c7.1,3.9,12.7,9.4,13.3,17.3c0.5,6.8,3.9,10.5,8.8,13.9c1.3,0.9,2.5,2,3.8,3
	c5,3.8,11.2,3.3,14.8-1.1c3.7-4.5,3-10.5-1.8-14.6c-3.2-2.8-6.7-5.2-9.8-8.1c-1.5-1.4-2.7-3.3-3.2-5.2c-0.8-3,0.6-5.7,3.3-7.3
	c3.1-1.9,6.2-1.4,9,0.8c6.8,5.4,13.6,11,20.5,16.4c5.2,4.1,11.3,3.7,15-0.8c3.8-4.7,2.9-10.9-2.3-15.1c-6.1-5-12.3-9.8-18.4-14.7
	c-5.6-4.5-6.8-8.6-3.5-12.6c3.2-3.8,7.3-3.6,12.8,0.7c6.5,5.1,12.9,10.3,19.4,15.4c3.2,2.5,6.8,3,10.6,1.4c3.6-1.6,5.6-4.5,6-8.4
	c0.3-4.1-1.6-7.1-4.7-9.6c-6.4-5-12.8-10.1-19-15.2c-3-2.5-3.6-5.9-2.1-9.1c1.5-3,4.8-4.8,8.1-4c1.6,0.4,3.2,1.4,4.5,2.5
	c6.3,4.9,12.5,10,18.8,14.9c3.6,2.8,7.6,3,11.6,0.8c3.6-2,5.9-6.1,4.7-10.1c-0.8-2.8-2.7-5.7-5-7.5c-13.4-11-27-21.9-40.8-32.4
	c-12.7-9.7-25.7-19-38.8-28.2c-10-7.1-21.2-9.7-33.4-7.6c-4.4,0.8-8.9,1.5-13.3,1.9c-21,2-40.2-7.6-44.2-29.8c-0.1-0.8-1-1.8-1.7-2
	c-6.8-2.1-13.6-4-20.5-6c-13.8,24.5-27.5,48.7-40.8,72.3c6.3,4.9,12.2,9.5,18.2,14.3c6.2-5,12.8-10.4,19.5-15.5
	c14-10.7,33.3-5.1,39.4,11.4c0.3,0.8,0.6,1.6,0.9,2.4c23.7-8.4,44.1,16.2,30.9,38.3C190,249.3,190.7,264.6,183.5,276.9z
	 M278.2,116.3c-6.9,1.9-13.4,3.7-19.8,5.6c-5.8,1.7-11.5,1.4-17.2-0.8c-9.1-3.4-18.3-6.7-27.5-9.7c-4-1.3-8.3-2.3-12.4-2.1
	c-13.2,0.8-26.4,1.9-39.6,3.4c-5.1,0.6-10.2,2.2-15.2,3.7c-3,0.9-4.1,3.3-3.2,6.6c2,7.7,6.8,12.6,14.3,14.9c6.5,2,13.1,1.8,19.7,0.3
	c19.9-4.5,37.9-0.6,54.2,11.5c15.6,11.7,31.3,23.2,46.8,35c7.8,5.9,15.4,12.2,22.5,17.8c6.3-4.8,12.1-9.4,18.3-14.2
	C305.5,164.7,291.9,140.6,278.2,116.3z M39.4,200.8c1.1-1.2,2.6-2.1,3.3-3.5c18.9-33.3,37.7-66.7,56.6-100c1.8-3.1,1-5.1-2-6.7
	c-5.9-3.2-11.8-6.5-17.7-9.8c-3.6-2-5-1.6-7,2c-18.9,33.3-37.7,66.7-56.6,100c-1.7,3.1-1.1,5.1,1.9,6.7c5.9,3.2,11.8,6.5,17.7,9.8
	C36.7,199.9,37.7,200.2,39.4,200.8z M163.1,226.4c-0.1-5.9-1.9-9-5.6-10.9c-3.8-1.9-7.6-1.5-10.9,1.1c-13.5,10.7-27,21.4-40.4,32.3
	c-4.7,3.8-5.2,10-1.6,14.4c3.5,4.4,9.6,5.2,14.4,1.4c13.4-10.6,26.8-21.2,40-32.1C161.2,230.9,162.3,227.7,163.1,226.4z M172.9,264
	c-0.1-5.8-1.8-8.9-5.5-10.8c-4-2-7.8-1.5-11.2,1.2c-9.3,7.3-18.6,14.7-27.8,22.2c-4.7,3.8-5.3,9.9-1.8,14.3
	c3.5,4.4,9.6,5.3,14.3,1.6c9.5-7.3,18.8-14.8,28-22.5C171.1,268.3,172.1,265.2,172.9,264z M129.3,207.5c-0.8-4.6-2.6-7.7-6.2-9.6
	c-3.8-2-7.6-1.7-10.9,0.9c-9.5,7.5-19,15-28.3,22.7c-4.5,3.7-5,9.7-1.6,14.1c3.4,4.4,9.7,5.3,14.4,1.7c9.4-7.3,18.8-14.8,28-22.5
	C126.8,213,127.8,210,129.3,207.5z M157.4,322.5c1-0.3,3-0.5,4.3-1.5c6.2-4.8,12.5-9.5,18.4-14.8c3.6-3.3,3.4-9.2,0.4-13
	c-3.2-3.9-9-5.2-13.1-2.2c-6.2,4.5-12.1,9.3-17.8,14.3c-3.1,2.7-3.7,7.3-1.9,11.1C149.3,320.3,152.5,322.2,157.4,322.5z"/>
<path class="st0" d="M184.5,26.6c0-6,0-12,0-18c0-5.2,2.9-8.5,7.4-8.6c4.5-0.1,7.6,3.4,7.6,8.7c0,11.9,0,23.7,0,35.6
	c0,5.4-3,8.9-7.6,8.8c-4.5,0-7.4-3.5-7.4-9C184.5,38.3,184.5,32.5,184.5,26.6z"/>
<path class="st0" d="M149.4,60.5c-0.1,4.4-1.8,6.8-5.1,8c-3.2,1.2-6.6,0.1-8.8-3.2c-3.8-5.7-7.4-11.6-11-17.4
	c-2.8-4.4-5.6-8.8-8.4-13.3c-2.7-4.4-1.9-8.8,1.9-11.2c3.7-2.3,8.1-1.1,10.9,3.3c6.3,9.9,12.6,19.8,18.8,29.8
	C148.5,58,149,59.7,149.4,60.5z"/>
<path class="st0" d="M269.5,30.6c-0.4,0.9-0.9,2.7-1.8,4.2c-6.1,9.9-12.3,19.7-18.6,29.5c-3,4.7-7.1,5.9-11,3.4
	c-3.9-2.5-4.5-6.8-1.6-11.5c6.3-10.1,12.6-20.1,19-30.1c2-3.2,5-4.6,8.7-3.5C267.5,23.7,269.3,26.1,269.5,30.6z"/>
<path class="st0" d="M338,128c0-4.2,3.1-7.4,7.2-7.5c4.1-0.1,7.5,3.1,7.6,7.2c0.1,4.2-3.3,7.7-7.5,7.7
	C341.3,135.4,338.1,132.1,338,128z"/>
</svg>
