<?xml version="1.0" encoding="utf-8"?>
<!-- Generator: Adobe Illustrator 22.0.0, SVG Export Plug-In . SVG Version: 6.00 Build 0)  -->
<svg version="1.1" id="Layer_1" xmlns="http://www.w3.org/2000/svg" xmlns:xlink="http://www.w3.org/1999/xlink" x="0px" y="0px"
	 viewBox="0 0 324.9 118.4" style="enable-background:new 0 0 324.9 118.4;" xml:space="preserve">
<style type="text/css">
	.st0{fill:#C3C3C3;}
</style>
<path class="st0" d="M324.9,85.3c0,11.1,0,21.8,0,32.8c-14.1,0-28.3,0-42.7,0c-1.5-9.8-5.3-18.4-13.5-24.6c-4.7-3.6-10.1-5.5-16-5.5
	c-14.2-0.1-23.1,9-29.7,30.2c-0.6,0.1-1.2,0.2-1.8,0.2c-38.9,0-77.7-0.1-116.6-0.1c-2.4,0-3.1-0.8-3.6-3.1
	c-2.6-14.2-12.2-24.7-24.8-26.7C65.4,86.7,56.6,91,50.5,99.6c-3.3,4.6-4.8,10.5-7.2,15.8c-0.5,1-1.6,2.5-2.3,2.5
	c-7.7-0.4-15.6-0.2-23.1-1.7c-11-2.2-17-9.9-17.7-20.7c5.2,0,10.5,0,15.7,0c4.6,0,5.7-1.2,5.7-5.8c0-7.5,0-15,0-22.5
	c0-3.9-1.3-5.2-5.1-5.3c-5.4-0.1-10.7,0-16.5,0c0-4-0.1-7.9,0.1-11.7c0-0.7,1.1-1.6,1.8-2C30,32.3,58.4,17.2,89.1,6.9
	c29.5-9.9,58.3-9.4,86.9,3.3c20.4,9.1,40.9,17.9,61.7,26.1c11.6,4.6,23.7,7.8,35.6,11.4c2.2,0.7,3.3,1.6,3.9,3.8
	c2.7,8.8,6.7,17,13.1,23.7c8.3,8.7,18.4,12.5,30.5,10.6C321.9,85.7,323,85.6,324.9,85.3z M128.1,55.6c0-0.1,0-0.1,0-0.2
	c18.9,0,37.7,0,56.6,0c11.2,0,22.5,0,33.7-0.1c2.2,0,4.7-0.4,4.8-3c0-1.6-1.2-4-2.6-4.6c-18.2-8.7-36.5-17.4-54.9-25.8
	c-20.3-9.3-41.2-11.3-62.8-5c-19.7,5.8-38,14.5-55.8,24.3c-4,2.2-8.2,4.4-12,6.9c-1.2,0.8-2.4,3.1-2.1,4.2c0.4,1.4,2.4,2.4,3.9,3.2
	c0.9,0.5,2.2,0.1,3.3,0.1C69.6,55.6,98.9,55.6,128.1,55.6z"/>
<path class="st0" d="M129.1,66.2c7.4-0.3,14.6,0.8,21.3,3.5c16.7,6.8,33.2,14.1,49.8,21.3c-0.1,0.4-0.3,0.8-0.4,1.2
	c-23.5,0-47,0-70.7,0C129.1,83.8,129.1,75.1,129.1,66.2z"/>
<path class="st0" d="M120.8,66.3c0,9,0,17.4,0,26.1c-22.6,0-44.9,0-67.2,0C74.6,80.5,96,69.9,120.8,66.3z"/>
</svg>
