<?xml version="1.0" encoding="utf-8"?>
<!-- Generator: Adobe Illustrator 22.0.0, SVG Export Plug-In . SVG Version: 6.00 Build 0)  -->
<svg version="1.1" id="Layer_1" xmlns="http://www.w3.org/2000/svg" xmlns:xlink="http://www.w3.org/1999/xlink" x="0px" y="0px"
	 viewBox="0 0 386.2 347.4" style="enable-background:new 0 0 386.2 347.4;" xml:space="preserve">
<style type="text/css">
	.st0{fill:#C3C3C3;}
</style>
<path class="st0" d="M45.7,224.1c1.3-4.4,2-9.1,4-13.2c7.5-15.9,20.1-25.1,37.8-26.3c8.8-0.6,17.7-0.1,26.8-0.1
	c-0.2,0.8-0.5,1.6-0.5,2.4c-1,6.7-2.8,13.5-2.9,20.3c-0.3,29.2-0.2,58.4-0.1,87.6c0,3.5,0.7,7,1.1,10.8c-3.4,0-7,0-10.5,0
	c-8.9,0-17.8-0.2-26.7,0.1C60,305.9,48,296.1,46,282.2c0-0.2-0.2-0.3-0.3-0.5C45.7,262.5,45.7,243.3,45.7,224.1z"/>
<path class="st0" d="M200.9,305.4c-20.3,0-40.6,0-61,0c-8.1,0-11.2-3-11.2-11.1c0-29.3-0.1-58.6,0-88c0.1-22,14-39.5,35.3-44.4
	c3-0.7,6.2-1,9.3-1c18.4-0.1,36.8-0.2,55.2,0c21.5,0.2,38.8,14.2,43.6,35.1c0.8,3.4,1.1,7,1.1,10.5c0.1,29.5,0.1,59,0.1,88.5
	c0,7-3.3,10.3-10.5,10.3C242.2,305.4,221.6,305.4,200.9,305.4z"/>
<path class="st0" d="M201.1,42c29.5,0.1,53.8,24.2,53.8,53.5c0.1,29.7-24.1,54.1-53.8,54.2c-29.6,0.2-54.2-24.7-54-54.4
	C147.3,65.9,171.6,41.9,201.1,42z"/>
<path class="st0" d="M146.6,132.6c-0.2,22.3-18.5,40.4-40.4,40.2c-22.3-0.2-40.3-18.4-40.2-40.5c0.2-22.4,18.5-40.3,40.8-40
	C129,92.6,146.9,110.7,146.6,132.6z"/>
<path class="st0" d="M332.5,130.9c-0.2,30.7-24.9,55.3-55.7,55.2c-30.4-0.2-55.1-25.1-54.9-55.7c0.2-30.3,25-55,55.4-54.9
	C307.9,75.6,332.7,100.4,332.5,130.9z M299,111.4c1.2-15.9-11.1-27.5-26.1-24.9c-10.2,1.7-17.8,10.8-18,21.8c-0.1,4.7,0,9.4,0,14
	c-7.7,1.3-8.6,2.4-8.6,10.1c0,9.4,0,18.7,0,28.1c0,5.7,2.2,7.9,7.9,8c15.2,0,30.5,0,45.7,0c6.1,0,8.3-2.3,8.4-8.4
	c0-9.3,0-18.6,0-27.8c0-8-1.6-9.6-9.7-9.6c-9.4,0-18.7,0-28.1,0c-1,0-2-0.2-3-0.2c0-5.1-0.2-9.8,0-14.6c0.2-5.4,4.6-9.5,9.8-9.5
	c5.3,0,9.4,4.1,9.6,9.6c0.1,1.1,0,2.2,0,3.3C291.1,111.4,295,111.4,299,111.4z"/>
</svg>
