<?xml version="1.0" encoding="utf-8"?>
<!-- Generator: Adobe Illustrator 22.0.0, SVG Export Plug-In . SVG Version: 6.00 Build 0)  -->
<svg version="1.1" id="Layer_1" xmlns="http://www.w3.org/2000/svg" xmlns:xlink="http://www.w3.org/1999/xlink" x="0px" y="0px"
	 viewBox="0 0 409.7 395.7" style="enable-background:new 0 0 409.7 395.7;" xml:space="preserve">
<style type="text/css">
	.st0{fill:#C3C3C3;}
</style>
<path class="st0" d="M59.6,134.9c1-4.6,2.3-9.1,5.2-13c5.5-7.2,12.8-10.8,21.8-10.8c19.6-0.1,39.1-0.2,58.7,0.1
	c12.7,0.1,21.8,6.5,27.3,17.9c5.3,11.1,10.5,22.4,15.7,33.6c3.3,7.2,0,14.1-7.7,16c-6.5,1.6-12.9,2.8-19.4,4.3
	c-7.7,1.6-15.5,3.4-23.3,4.9c-6.2,1.2-11.9-2.6-13.1-8.4c-1.3-6.2,2.3-11.8,8.6-13.3c8.7-2,17.3-3.8,26-5.7c0.9-0.2,1.8-0.4,3.3-0.9
	c-4.3-8.4-8.2-16.8-12.9-24.7c-3.9-6.7-10-7.9-17.9-4.5c-0.5-0.7-1.1-1.4-1.6-2.2c-4-5.5-10.6-7.6-16.5-4.4
	c-8,4.4-15.8,9.2-23.7,13.9c-1.2,0.7-2.2,1.8-3.5,2.8c-0.1-1.1,0.1-2.3-0.4-3.1c-0.4-0.8-1.3-1.8-2-1.8c-0.7,0-1.8,0.9-2.2,1.6
	c-0.4,0.9-0.2,2.1-0.2,3c0,25.7,0,51.4,0,77.1c0,3.4-0.4,6.6-2.8,9.2c-5.7,6.3-15.7,4.5-18.8-3.4c-0.2-0.5-0.4-1-0.7-1.5
	C59.6,192.7,59.6,163.8,59.6,134.9z"/>
<path class="st0" d="M316.2,199.5c0.3-1,0.6-2,0.7-3c0.1-2.2,0-4.3,0.1-6.5c0.1-4,2.6-6.9,6.6-7c6.6-0.2,13.3-0.2,19.9,0
	c3.8,0.1,6.4,3.1,6.5,6.9c0.1,2.9,0.1,5.9,0,8.8c-0.1,4.2-3,7.1-7.2,7.2c-4.8,0.1-9.6-0.1-14.5,0.1c-1.3,0.1-2.8,0.8-3.8,1.7
	c-2,1.7-3.6,3.8-5.5,5.8c4.8,4.4,8.2,9.4,9.7,15.5c0.9,3.5,1.3,7.1,1.3,10.6c0.1,11.8,0.1,23.6,0.1,35.5c0,10-4.4,14.5-14.4,14.8
	c-0.4,0-0.7,0.1-1.5,0.1c0,5,0,10,0,15c0,4.5-0.9,8.7-3.7,12.3c-4.9,6.5-12.9,8.9-20.4,6.5c-7.7-2.5-12.5-9.3-12.6-18
	c-0.1-5.2,0-10.4,0-15.7c-5.5,0-10.8,0-16.5,0c0,1.6,0,3.3,0,4.9c-0.1,5-2.5,7.4-7.3,7.4c-14.1,0.1-28.2,0.1-42.3,0
	c-4.8,0-7.1-2.4-7.2-7.2c0-1.6,0-3.2,0-5c-5.5,0-10.9,0-16.6,0c0,5,0,9.9,0,14.7c0,8-3,14.4-10.6,17.9c-6.4,3-12.7,2.5-18.5-1.7
	c-0.7-0.5-1.3-1.6-1.3-2.5c-0.1-19.3-0.1-38.6,0-57.9c0-0.1,0.1-0.4,0.4-0.8c4.2,3.7,9,5.1,14.4,4.1c3.8-0.7,7-2.7,9.4-5.8
	c4.8-6.2,4.5-14.9-0.8-20.8c-5.7-6.4-14-6.7-23.2-0.9c0-14.1,0-28.2,0-42.5c2.9-0.6,6-1.3,9.4-2.1c-0.8,4.5-1.6,8.7-2.3,13
	c24.5,0,48.9,0,73.6,0c0.9-8.2,4.7-15,11.7-19.6c4.3-2.9,9.2-4.3,14.5-4.1c6.6,0.2,12.3,2.6,17.1,7.2c4.7,4.5,7.2,10.1,7.9,16.6
	c3.8,0,7.4,0,11.4,0c-3.3-17.4-6.5-34.7-9.7-52.2c-14.3,0-28.3,0-42.3,0c0,1.6,0.1,3.1,0,4.7c-0.4,3.3-2.5,5.5-5.7,5.6
	c-6.9,0.1-13.8,0.2-20.7,0c-3.9-0.1-6.3-3.4-6-7.4c0.1-0.9,0.3-1.6,0.5-2.9c-4.3,0-8.4,0.1-12.5,0c-3.3-0.1-7.2,0.9-9.6-0.6
	c-2.3-1.4-3-5.5-4.4-8.4c-1-2.1-1.8-4.1-2.9-6.5c1.2-0.1,2.1-0.1,3-0.1c35,0,69.9,0,104.9,0c6.4,0,8.9,2.1,10.1,8.3
	c3.2,17.1,6.4,34.2,9.6,51.2c0.1,0.9,0.4,1.8,0.6,2.7C315.8,199.4,316,199.5,316.2,199.5z M296.4,264.3c8.9,0,16.2-7.3,16-16.1
	c-0.1-8.9-7.3-16-16.2-16c-8.9,0.1-16,7.2-16,16.1C280.3,257.2,287.5,264.3,296.4,264.3z M232.6,243.1c-9.1,0-18.2-0.1-27.2,0
	c-4.5,0-7.4,3.6-6,7.4c1.1,2.9,3.3,3.9,6.2,3.9c6.6,0,13.2,0,19.8,0c11.1,0,22.3,0,33.4,0c2.6,0,4.9-0.6,6.3-3
	c2.3-4-0.6-8.3-5.7-8.4C250.5,243.1,241.6,243.1,232.6,243.1z M232.6,276.7L232.6,276.7c5.7,0,11.3,0.1,17,0c4.1,0,6.7-2.3,6.7-5.7
	c-0.1-3.3-2.6-5.6-6.5-5.6c-11.6-0.1-23-0.1-34.6,0c-1.2,0-2.5,0.3-3.5,0.9c-2.3,1.3-3.3,3.4-2.7,6c0.6,2.6,2.6,4.3,5.5,4.4
	C220.5,276.8,226.6,276.7,232.6,276.7z M251.4,205.1c8.4,0,16.5,0,24.6,0c-1.3-6.8-6.5-11-13-10.7
	C257.1,194.6,252,199.2,251.4,205.1z"/>
<path class="st0" d="M87.1,156.3c0.6,1,1.3,2,1.8,3c5.5,9.4,11.1,18.9,16.6,28.4c4.3,7.2,8.9,9.2,17.1,7.2c0.6-0.1,1.6-0.1,2.1,0.2
	c6,3.6,12.3,3.5,18.9,2c0.5-0.1,1.1-0.2,1.8-0.4c0.1,0.7,0.2,1.3,0.2,1.8c0.1,42,0.2,84,0.2,125.9c0,9.6-8.9,16-17.7,12.9
	c-5.2-1.9-8.2-5.8-8.9-11.4c-0.1-1.3-0.1-2.6-0.1-4c0-33.5,0-66.9,0-100.4c0-1.1,0-2.2,0-3.5c-1.9,0-3.6,0-5.6,0
	c-0.1,1.2-0.1,2.3-0.1,3.5c0,33.8,0,67.5,0,101.3c0,7.9-3.4,13-9.8,14.8c-7.9,2.3-15.9-3-16.7-11.2c-0.1-1.4-0.2-2.8-0.2-4.3
	c0-54.2,0-108.6,0-162.8c0-1,0-2,0-3C86.7,156.3,86.9,156.3,87.1,156.3z"/>
<path class="st0" d="M139.1,80.5c0.1,12.7-10.3,23.1-23,23.1c-12.6,0-23.1-10.6-23-23.1c0.1-12.6,10.4-22.9,23-23
	C128.7,57.5,139.1,67.8,139.1,80.5z"/>
<path class="st0" d="M149.1,151.9c-10.6,3.7-22.6,2.1-30.6,12.3c-1.8-3-3.5-5.8-4.9-8.7c-0.9-1.7-0.1-3.4,1.6-4.4
	c7.2-4.3,14.5-8.5,21.8-12.8c1.9-1.1,3.8-0.6,5,1.2C144.3,143.6,146.6,147.7,149.1,151.9z"/>
<path class="st0" d="M115.7,185.9c-1-1.4-1.5-2.2-2-3c-6.2-10.5-12.3-21-18.4-31.5c-2.1-3.7-1.8-5.1,2-7.3
	c6.5-3.8,12.8-7.5,19.3-11.3c3.3-1.9,5-1.4,6.8,2.3c-4,2.3-7.9,4.6-11.8,6.9c-8,4.8-9.9,11.8-5.2,19.9c0.9,1.6,1.9,3.3,2.8,4.9
	c1.6,2.8,3.8,5.5,4.8,8.6C115,178.6,115.1,181.9,115.7,185.9z"/>
</svg>
