<?xml version="1.0" encoding="utf-8"?>
<!-- Generator: Adobe Illustrator 22.0.0, SVG Export Plug-In . SVG Version: 6.00 Build 0)  -->
<svg version="1.1" id="Layer_1" xmlns="http://www.w3.org/2000/svg" xmlns:xlink="http://www.w3.org/1999/xlink" x="0px" y="0px"
	 viewBox="0 0 384 384" style="enable-background:new 0 0 384 384;" xml:space="preserve">
<style type="text/css">
	.st0{fill:#C3C3C3;}
	.st1{fill:#FFFFFF;}
</style>
<path class="st0" d="M26.3,345.4c2.7-5.6,7.1-8.1,13.6-6.9c0-1.7,0-2.8,0-4c0-17.6,0-35.2,0-52.8c0-7.8,3.7-11.4,11.5-11.4
	c16.2,0,32.4,0,48.6,0c7.3,0,11.1,3.8,11.1,11.2c0,18.8,0,37.5,0,56.6c6.4,0,12.7,0,19.3,0c0-1,0.1-2,0.1-3.1c0-17.8,0-35.6,0-53.4
	c0-18.3-12.4-30.6-30.7-30.7c-6.9,0-13.8,0-21.1,0c0-1.3,0-2.5,0-3.6c0-41.3,0-82.7,0-124c0-8,3.6-11.6,11.7-11.6
	c18.2,0,36.5,0,54.7,0c7.5,0,11.3,3.8,11.3,11.4c0,70.4,0,140.7,0,211.1c0,1.3,0,2.5,0,4c6.5,0,12.7,0,19.4,0c0-1.1,0-2.2,0-3.3
	c0-70.6,0-141.1,0-211.7c0-18.5-12.4-30.8-30.9-30.8c-4.6,0-9.3,0-14.1,0c0-4.6-0.5-9.1,0.1-13.5c0.7-4.7,4.8-7.3,10.1-7.3
	c23.6,0,47.3,0,70.9,0c10.1,0,20.3,0,30.4,0c7.2,0,11.1,3.8,11.1,10.9c0,16.8,0,33.7,0,50.5c0,0.8,0,1.6,0,3c-3.3-2.2-6.2-4.1-9-6
	c-9.9-6.5-20.2-7.4-30.6-1.8c-10.4,5.6-15.4,14.7-15.4,26.5c0,60.1,0,120.2,0,180.3c0,1,0,1.9,0,3.1c6.5,0,12.8,0,19.4,0
	c0-1.4,0-2.6,0-3.9c0-59.6,0-119.1,0-178.7c0-3.3,0.5-6.2,2.9-8.6c3.5-3.5,8.3-3.8,13-0.7c14.3,9.5,28.5,19,42.8,28.5
	c4.5,3,8.9,6,13.5,8.9c3.9,2.5,5.6,5.9,5.6,10.6c-0.1,46.6,0,93.2,0,139.8c0,1.3,0,2.6,0,4c6.5,0,12.7,0,19.2,0
	c0-37.8,0-75.7,0-114.1c1.2,0.5,2,0.7,2.7,1c6.7,3.3,13.3,6.7,20,10c4.6,2.2,6.7,5.7,6.7,10.8c-0.1,29.5,0,58.9,0,88.4
	c0,1.3,0,2.5,0,4.2c6.4-0.8,11,1.3,13.6,7.1c0,1.7,0,3.5,0,5.2c-1.5,3.2-3.9,5.6-7.1,7.1c-105.8,0-211.5,0-317.3,0
	c-3.2-1.5-5.6-3.9-7.1-7.1C26.3,348.9,26.3,347.2,26.3,345.4z M247,293c0,3.2-0.1,6.5,0,9.7c0.2,5.5,4.3,9.7,9.6,9.7
	c5.3,0,9.6-4.1,9.8-9.6c0.1-6.6,0.1-13.1,0-19.7c-0.1-5.5-4.5-9.6-9.8-9.6c-5.3,0-9.5,4.2-9.6,9.7C247,286.5,247,289.8,247,293z
	 M127.2,157c0-3.2,0.1-6.5,0-9.7c-0.2-5.5-4.3-9.7-9.6-9.7c-5.4,0-9.7,4.2-9.8,9.9c-0.1,6.3-0.1,12.7,0,19c0.1,5.7,4.4,9.9,9.8,9.9
	c5.4,0,9.5-4.3,9.6-10.1C127.3,163.3,127.3,160.2,127.2,157z M107.8,215c0,3.3-0.1,6.7,0,10c0.1,5.5,4.3,9.7,9.6,9.7
	c5.3,0,9.6-4.1,9.8-9.6c0.1-6.6,0.1-13.1,0-19.7c-0.1-5.5-4.5-9.6-9.8-9.6c-5.3,0-9.5,4.2-9.6,9.7
	C107.8,208.7,107.8,211.9,107.8,215z M266.5,234.7c0-3.1,0.1-6.2,0-9.4c-0.1-5.7-4.2-10-9.6-10c-5.4,0-9.7,4.2-9.7,9.9
	c-0.1,6.3-0.1,12.7,0,19c0.1,5.7,4.4,9.9,9.8,9.9c5.3-0.1,9.4-4.2,9.6-9.8C266.5,241.2,266.5,237.9,266.5,234.7z M65.8,338.1
	c6.7,0,12.9,0,19.4,0c0-7.9,0.2-15.5-0.1-23.1c-0.1-5.1-4.6-9-9.6-9c-5,0-9.5,3.9-9.6,9C65.6,322.6,65.8,330.2,65.8,338.1z"/>
<path class="st0" d="M227,26.3c5.6,2.6,7.6,7,7.2,13c-0.3,4.2-0.1,8.4-0.1,12.7c-28.1,0-55.9,0-83.8,0c0-6.1-0.3-12.3,0.1-18.5
	c0.3-3.7,3.6-5.6,6.6-7.3C180.3,26.3,203.7,26.3,227,26.3z"/>
<path class="st1" d="M26.3,350.6c1.5,3.2,3.9,5.6,7.1,7.1c-2.4,0-4.7,0-7.1,0C26.3,355.4,26.3,353,26.3,350.6z"/>
<path class="st1" d="M350.6,357.8c3.2-1.6,5.6-3.9,7.1-7.1c0,2.4,0,4.7,0,7.1C355.4,357.8,353,357.8,350.6,357.8z"/>
<path class="st1" d="M247,293c0-3.2-0.1-6.5,0-9.7c0.1-5.5,4.3-9.7,9.6-9.7c5.3,0,9.6,4.1,9.8,9.6c0.1,6.6,0.1,13.1,0,19.7
	c-0.1,5.5-4.5,9.6-9.8,9.6c-5.3,0-9.5-4.2-9.6-9.7C247,299.5,247,296.2,247,293z"/>
</svg>
