<?xml version="1.0" encoding="utf-8"?>
<!-- Generator: Adobe Illustrator 22.0.0, SVG Export Plug-In . SVG Version: 6.00 Build 0)  -->
<svg version="1.1" id="Layer_1" xmlns="http://www.w3.org/2000/svg" xmlns:xlink="http://www.w3.org/1999/xlink" x="0px" y="0px"
	 viewBox="0 0 360.1 360" style="enable-background:new 0 0 360.1 360;" xml:space="preserve">
<style type="text/css">
	.st0{fill:#C3C3C3;}
</style>
<path class="st0" d="M58.3,179.8c0-7.4,0-14.9,0-22.3c0-9.4,6.5-15.9,16-15.9c15,0,29.9,0,44.9,0c9.5,0,16,6.4,16,15.9
	c0.1,15,0.1,30.1,0,45.1c-0.1,9.6-6.6,15.9-16.3,15.9c-14.8,0-29.6,0-44.4,0c-9.9,0-16.3-6.4-16.3-16.4
	C58.3,194.7,58.3,187.2,58.3,179.8z M88.8,187.9c5.4,0,10.6,0,15.8,0c0-5.4,0-10.5,0-15.7c-5.4,0-10.5,0-15.8,0
	C88.8,177.5,88.8,182.6,88.8,187.9z"/>
<path class="st0" d="M58.3,96.6c0-7.5,0-15,0-22.6c0-9.3,6.5-15.8,15.8-15.8c15,0,30.1,0,45.1,0c9.3,0,15.8,6.2,15.9,15.4
	c0.2,15.3,0.2,30.6,0,45.9c-0.1,9.1-6.5,15.5-15.6,15.5c-15.2,0.1-30.4,0.1-45.6,0c-9.3-0.1-15.6-6.6-15.7-16
	C58.3,111.7,58.3,104.2,58.3,96.6z M88.8,104.8c5,0,9.8,0,14.6-0.1c0.5,0,1.3-0.9,1.3-1.4c0.1-4.8,0.1-9.6,0.1-14.5
	c-5.5,0-10.7,0-15.9,0C88.8,94.1,88.8,99.3,88.8,104.8z"/>
<path class="st0" d="M58.3,263.2c0-7.5,0-15,0-22.6c0-9.1,6.3-15.7,15.3-15.8c15.4-0.2,30.8-0.1,46.2,0c8.9,0.1,15.2,6.3,15.4,15.2
	c0.2,15.5,0.2,30.9,0,46.4c-0.1,9.1-6.7,15.2-15.8,15.3c-15,0-30.1,0-45.1,0c-9.4,0-15.9-6.5-15.9-16
	C58.3,278.3,58.3,270.7,58.3,263.2z M104.8,271.2c0-5,0-9.9,0-14.8c0-0.4-0.6-1.1-1-1.1c-5-0.1-9.9,0-14.8,0c0,5.5,0,10.7,0,15.9
	C94.2,271.2,99.4,271.2,104.8,271.2z"/>
<path class="st0" d="M233.3,81.6c17.8,0,35.6-0.1,53.5,0c6.4,0,11.1,3.3,13.7,9.1c2.5,5.8,1.5,11.3-2.5,16.1
	c-3,3.5-6.9,5.2-11.4,5.2c-35.5,0-71,0.1-106.4,0c-8.7,0-15.3-6.9-15.3-15.3c0.1-8.4,6.7-15,15.5-15C198,81.5,215.6,81.6,233.3,81.6
	C233.3,81.6,233.3,81.6,233.3,81.6z"/>
<path class="st0" d="M233.3,278.5c-17.7,0-35.5,0.1-53.2,0c-8.9,0-15.5-7.1-15.3-15.8c0.3-7.8,6.5-14,14.5-14.6c0.5,0,1,0,1.5,0
	c35,0,69.9,0,104.9,0c8,0,14,4.7,15.7,12.1c2.1,9.3-4.9,18.2-14.6,18.3C268.9,278.6,251.1,278.5,233.3,278.5z"/>
<path class="st0" d="M233.3,195.2c-17.7,0-35.5,0.1-53.2,0c-6.3,0-11-3-13.8-8.7c-2.6-5.5-2-10.9,1.7-15.7c3.2-4.2,7.6-6,12.8-6
	c23.5,0,47,0,70.5,0c11.8,0,23.7-0.1,35.5,0c6.7,0,12.5,4.5,14.4,10.8c1.9,6.4-0.5,13.2-6,17c-2.8,1.9-5.9,2.7-9.3,2.7
	C268.3,195.2,250.8,195.2,233.3,195.2z"/>
</svg>
