<?xml version="1.0" encoding="utf-8"?>
<!-- Generator: Adobe Illustrator 22.0.0, SVG Export Plug-In . SVG Version: 6.00 Build 0)  -->
<svg version="1.1" id="Layer_1" xmlns="http://www.w3.org/2000/svg" xmlns:xlink="http://www.w3.org/1999/xlink" x="0px" y="0px"
	 viewBox="0 0 316.1 171" style="enable-background:new 0 0 316.1 171;" xml:space="preserve">
<style type="text/css">
	.st0{fill:#C3C3C3;}
</style>
<path class="st0" d="M133.6,160.2c-29.7-5.7-59.3-5.7-89,0.1c-0.1,0.4-0.2,0.9-0.4,1.4c-0.7,2.4-2.7,4.1-5.2,4.1
	c-6.6,0.1-13.3,0.1-19.9,0c-2.9,0-4.7-2-5.5-5.6c-3-0.6-4.3-2.8-5-5.5c-2.5-9.9-3.8-19.9-3-30c0.5-6.6,1.4-13.2,2.3-19.7
	c0.6-4.4,3.1-7.6,7-9.6c0.9-0.5,1.7-1,2.6-1.5c1.2-0.7,1.3-1.5,0.5-2.5c-1.5-1.8-1.8-3.9-0.7-6c1.1-2.2,3-3.2,5.4-3.2
	c1.6,0,3.1-0.1,4.7,0c1.3,0.1,1.8-0.4,2.3-1.5c2.2-4.7,4.7-9.3,8.2-13.3c4.5-5.1,10.4-7.7,16.8-9.3c13.9-3.5,28.1-4.3,42.4-3.6
	c8.8,0.4,17.6,1.5,26.2,3.5c10.9,2.5,18.6,8.8,23.5,18.7c0.4,0.8,0.9,1.5,1.2,2.3c0.7,2.8,2.5,3.5,5.2,3.1c1.1-0.2,2.2-0.1,3.3,0
	c2.2,0.2,3.8,1.2,4.8,3.3c0.9,2,0.7,3.8-0.5,5.6c-1.2,1.8-1.2,2,0.8,3.1c0.8,0.4,1.5,0.9,2.3,1.3c3.7,2,5.9,5.1,6.7,9.2
	c3.3,17,3.6,33.9-1,50.7c-0.6,2.2-1.8,3.9-4.1,4.6c-0.4,0.1-0.8,0.6-0.9,1c-0.9,3.3-2.8,4.7-6.2,4.7c-5.9,0-11.9,0-17.8,0
	C136.3,165.8,134.5,164.3,133.6,160.2z M89,90c0,0.1,0,0.2,0,0.3c3.2,0,6.4-0.1,9.6,0c12.5,0.4,25,0.8,37.5,1.2
	c3.2,0.1,4.5-1.8,3.1-4.7c-1-2-2-4-3-6.1c-3.2-6.5-8.4-10.3-15.4-11.9c-7.8-1.8-15.8-2.8-23.8-3.2c-12.9-0.6-25.7,0.1-38.3,3
	c-5.2,1.2-10.3,2.8-13.6,7.5c-2.1,3.1-3.7,6.4-5.6,9.6c-2.2,3.6-1.2,6.2,3.9,5.9C58.6,90.8,73.8,90.5,89,90z M89.2,143.1
	c10.2,0,20.3,0.1,30.5-0.1c2.1,0,4.4-1.1,6.2-2.4c3.2-2.2,3-5.7-0.4-7.6c-1.8-1.1-3.9-1.9-5.9-2.4c-19.7-5.2-39.5-5-59.3-0.5
	c-2.9,0.7-5.7,2-8.2,3.5c-2.8,1.7-2.8,4.3-0.4,6.5c1.9,1.8,4.3,2.9,6.9,2.9C68.8,143.2,79,143.1,89.2,143.1z M29.5,115.6
	c4.8-0.4,9-0.7,13.1-1.2c0.6-0.1,1.6-0.7,1.7-1.1c0.1-0.6-0.4-1.5-0.8-2c-0.5-0.5-1.2-0.9-1.9-1.2c-4.9-2.7-10.2-4.2-15.6-5.3
	c-2.2-0.5-4.6-0.4-6.9-0.3c-0.8,0-1.8,0.7-2.1,1.4c-1.9,3.9,0.4,8.5,4.7,9.3C24.4,115.6,27.3,115.5,29.5,115.6z M149.1,115.7
	c1.9-0.2,5.2-0.3,8.4-0.9c2.2-0.4,3.7-2,3.9-4.3c0.1-1.3,0.2-2.5,0.1-3.8c-0.1-1.4-0.7-2.2-2.3-2.4c-3.8-0.4-7.4,0.5-11,1.4
	c-4.7,1.2-9.4,2.6-13.5,5.5c-0.6,0.4-1,1.5-1,2.3c0,0.3,1.2,0.9,1.9,1C139.7,114.9,143.8,115.2,149.1,115.7z"/>
<path class="st0" d="M278.9,109.5c-24.6-4.7-49-4.7-73.6,0.1c-0.1,0.3-0.2,0.7-0.3,1.1c-0.6,2-2.2,3.4-4.3,3.4c-5.5,0-11,0.1-16.4,0
	c-2.4,0-3.9-1.6-4.6-4.6c-2.5-0.5-3.5-2.3-4.1-4.6c-2.1-8.2-3.1-16.4-2.5-24.8c0.4-5.4,1.1-10.9,1.9-16.3c0.5-3.6,2.6-6.2,5.8-7.9
	c0.7-0.4,1.4-0.8,2.1-1.2c1-0.5,1.1-1.2,0.4-2.1c-1.2-1.5-1.5-3.2-0.6-5c0.9-1.8,2.5-2.6,4.5-2.6c1.3,0,2.6-0.1,3.9,0
	c1.1,0.1,1.5-0.4,1.9-1.3c1.8-3.9,3.9-7.7,6.8-11c3.7-4.2,8.6-6.4,13.9-7.7c11.5-2.9,23.2-3.6,35.1-3c7.3,0.3,14.5,1.2,21.7,2.9
	c9,2.1,15.4,7.2,19.4,15.5c0.3,0.6,0.8,1.3,1,1.9c0.6,2.3,2.1,2.9,4.3,2.6c0.9-0.1,1.8-0.1,2.7,0c1.8,0.1,3.2,1,4,2.7
	c0.8,1.6,0.6,3.2-0.4,4.6c-1,1.5-1,1.7,0.6,2.6c0.6,0.4,1.2,0.7,1.9,1.1c3.1,1.7,4.9,4.2,5.6,7.6c2.7,14.1,3,28.1-0.8,42
	c-0.5,1.8-1.5,3.2-3.4,3.8c-0.3,0.1-0.6,0.5-0.7,0.9c-0.8,2.7-2.3,3.9-5.1,3.9c-4.9,0-9.8,0-14.7,0
	C281.1,114.1,279.7,112.9,278.9,109.5z M242,51.4c0,0.1,0,0.2,0,0.3c2.6,0,5.3-0.1,7.9,0c10.3,0.3,20.7,0.6,31,1
	c2.7,0.1,3.7-1.5,2.6-3.9c-0.8-1.7-1.7-3.3-2.5-5c-2.7-5.4-6.9-8.5-12.8-9.8c-6.5-1.5-13-2.3-19.7-2.7c-10.7-0.5-21.2,0-31.7,2.4
	c-4.3,1-8.6,2.3-11.2,6.2c-1.7,2.5-3.1,5.3-4.7,7.9c-1.8,3-1,5.1,3.2,4.9C216.8,52.1,229.4,51.8,242,51.4z M242.2,95.4
	c8.4,0,16.8,0.1,25.2-0.1c1.7,0,3.6-0.9,5.1-1.9c2.6-1.8,2.4-4.7-0.3-6.3c-1.5-0.9-3.2-1.6-4.9-2c-16.3-4.3-32.7-4.1-49.1-0.4
	c-2.4,0.5-4.7,1.6-6.8,2.9c-2.3,1.4-2.3,3.6-0.3,5.4c1.6,1.5,3.5,2.4,5.7,2.4C225.3,95.4,233.8,95.4,242.2,95.4z M192.8,72.7
	c4-0.3,7.4-0.6,10.9-1c0.5-0.1,1.3-0.5,1.4-0.9c0.1-0.5-0.3-1.2-0.7-1.7c-0.4-0.5-1-0.7-1.6-1c-4-2.3-8.4-3.4-12.9-4.4
	c-1.8-0.4-3.8-0.3-5.7-0.2c-0.6,0-1.5,0.6-1.8,1.2c-1.5,3.3,0.3,7.1,3.9,7.7C188.6,72.6,190.9,72.6,192.8,72.7z M291.8,72.7
	c1.6-0.2,4.3-0.3,6.9-0.7c1.8-0.3,3-1.6,3.2-3.6c0.1-1,0.1-2.1,0.1-3.2c-0.1-1.1-0.6-1.8-1.9-2c-3.1-0.4-6.1,0.4-9.1,1.2
	c-3.9,1-7.8,2.2-11.1,4.5c-0.5,0.4-0.8,1.2-0.9,1.9c0,0.3,1,0.8,1.5,0.8C284,72.1,287.3,72.3,291.8,72.7z"/>
</svg>
