<?xml version="1.0" encoding="utf-8"?>
<!-- Generator: Adobe Illustrator 22.0.0, SVG Export Plug-In . SVG Version: 6.00 Build 0)  -->
<svg version="1.1" id="Layer_1" xmlns="http://www.w3.org/2000/svg" xmlns:xlink="http://www.w3.org/1999/xlink" x="0px" y="0px"
	 viewBox="0 0 384 384" style="enable-background:new 0 0 384 384;" xml:space="preserve">
<style type="text/css">
	.st0{fill:#C3C3C3;}
</style>
<path class="st0" d="M180,0c8,0,16,0,24,0c6.5,0.9,13.1,1.5,19.6,2.6c35.9,6.1,67.7,21.1,95,45.3c33.6,29.8,54.6,66.8,62.4,111
	c1.2,7,2,14.1,2.9,21.1c0,7.3,0,14.5,0,21.8c-0.5,3.3-1,6.6-1.4,10c-1.3,11.6-10.3,19-21.7,17.8c-10.5-1.2-17.7-11-16.5-22.1
	c0.4-3.2,0.8-6.5,1-9.7c0.8-14.8-1.2-29.4-4.8-43.7c-24.7,0-49.1,0-73.6,0c0.5,6.4,1,12.5,1.3,18.6c0.3,6.1,0.4,12.2,0.4,18.4
	c0,11.6-8.1,20.2-19,20.3c-10.7,0-18.9-8.4-19.3-19.7c-0.4-11.2-1.1-22.5-1.5-33.7c-0.1-3.1-0.9-4.2-4.3-4.2
	c-21.9,0.2-43.7,0.1-65.6,0.1c-1.2,0-2.4,0.1-3.6,0.2c-2.6,25.8-2.7,51,0,76.5c12.1,0,23.8,0,35.5,0c11.6,0.1,20.2,8.2,20.3,19.1
	c0.1,10.9-8.4,19.1-20.1,19.3c-8.4,0.1-16.7,0-25.1,0c-1.3,0-2.6,0.1-3.9,0.2c0,0.8-0.1,1.2-0.1,1.5c6,25.7,14.8,50.3,28.7,72.8
	c0.8,1.2,2.9,2.2,4.4,2.3c5.5,0.3,11,0,16.5,0.1c12.8,0.2,21.8,12.8,17.8,24.9c-2.4,7.3-7.8,11.3-14.9,13.4c-11.5,0-23,0-34.5,0
	c-4.7-0.6-9.4-1.1-14-1.7c-38.2-5.5-72-20.8-100.8-46.4C31.8,306.2,11,269.4,3,225.4c-1.3-7.1-2-14.3-3-21.4c0-8,0-16,0-24
	c0.6-4.6,1-9.1,1.7-13.7c6.1-42.4,24-79,54.2-109.4c28.7-28.9,63.2-47,103.5-54C166.2,1.7,173.1,1,180,0z M43.5,153.8
	c-6.8,25.5-6.7,50.9,0,76.2c24.6,0,48.9,0,72.4,0c0-25.6,0-50.8,0-76.2C92.1,153.8,67.9,153.8,43.5,153.8z M239.4,45.9
	c0.4,1.3,0.5,1.8,0.7,2.2c9.3,20.7,16.1,42.1,20.7,64.3c0.5,2.5,1.7,2.8,3.8,2.8c18.9-0.1,37.7,0,56.6,0c1,0,1.9-0.1,3.6-0.2
	C304.6,81.5,276.5,58.8,239.4,45.9z M59.3,115c1.3,0.2,1.8,0.3,2.2,0.3c19.4,0,38.7,0,58.1,0.1c2.6,0,3-1.2,3.5-3.3
	c4-19.5,9.7-38.4,17.4-56.8c1.2-2.8,2.4-5.6,3.9-9.1C107.3,59,79.4,81.6,59.3,115z M59.1,268.7c20.3,33.6,48.2,56.3,84.8,69
	c-0.1-0.9-0.1-1.2-0.2-1.4c-9.3-20.9-16.3-42.6-20.7-65.1c-0.4-2.3-1.7-2.6-3.7-2.6c-12.6,0.1-25.2,0-37.8,0
	C74.3,268.7,67.2,268.7,59.1,268.7z M191.8,39.1C177.1,63,168,88.3,161.9,114.9c20.3,0,40,0,60,0C215.6,88.1,206.4,62.8,191.8,39.1z
	"/>
<path class="st0" d="M369.3,300.8c-0.1,4.7-2.4,7.5-6.2,9.3c-10.3,5.1-20.6,10.1-30.7,15.5c-2.7,1.4-5.2,4-6.7,6.6
	c-5.3,9.9-10.2,20-15.1,30.1c-2,4.1-4.8,7-9.7,6.9c-4.9-0.1-7.5-3.1-9.4-7.3c-15.8-34.9-31.7-69.7-47.5-104.6
	c-3.1-6.9-0.5-13.4,6.2-14.6c2-0.4,4.5,0,6.5,0.9c35.6,16,71.1,32.2,106.6,48.4C367.2,293.8,369.2,296.8,369.3,300.8z"/>
</svg>
