<?xml version="1.0" encoding="utf-8"?>
<!-- Generator: Adobe Illustrator 22.0.0, SVG Export Plug-In . SVG Version: 6.00 Build 0)  -->
<svg version="1.1" id="Layer_1" xmlns="http://www.w3.org/2000/svg" xmlns:xlink="http://www.w3.org/1999/xlink" x="0px" y="0px"
	 viewBox="0 0 380.7 377.8" style="enable-background:new 0 0 380.7 377.8;" xml:space="preserve">
<style type="text/css">
	.st0{fill:#C3C3C3;}
</style>
<path class="st0" d="M153.2,174.7c-11.3-11.2-22.4-22.2-33.6-33.2c-0.7-0.6-2.4-0.6-3.4-0.4c-10.8,3-20.7,1.3-29.5-5.6
	c-1.8-1.4-3.4-3.2-4.6-5.1C70,112.1,58,93.7,45.9,75.3c-3-4.6-2.8-6.6,1.1-10.5c7.2-7.2,14.3-14.3,21.5-21.5c3.9-3.9,5.8-4.1,10.5-1
	c18,11.7,36,23.4,54,35.1c10.2,6.7,13.7,16.5,13.2,28.2c-0.1,1.5-0.2,3.1-0.8,4.4c-1.8,3.7-0.2,6,2.5,8.7
	c9.5,9.2,18.8,18.7,28.1,28.1c0.8,0.8,1.5,1.9,2.6,3.3c2.4-2.6,4.4-4.8,6.4-6.9c10-10,19.9-20.1,30-30c1.8-1.7,2.7-3.6,3-5.9
	c1.6-11.4,3.4-22.8,4.7-34.3c0.7-5.6,3.2-10.1,7-13.9c10.3-10.5,23.3-15.8,37.1-19.3c12.2-3.1,24.4-3.4,36.5,0.6
	c2.5,0.8,4.9,1.8,7.2,3.1c5.1,2.8,5.1,8,0.1,11.1c-8.4,5.3-16.8,10.6-25.2,15.9c-1.5,1-2.9,2.2-4.2,3.4c-4,4-5.2,8.7-3.3,14.1
	c2,5.8,5.3,10.8,10,14.8c6.1,5.1,12.8,5.6,19.7,1.5c7.6-4.5,15.2-9,22.8-13.5c5.4-3.2,9.9-0.6,9.9,5.6c0,4.5,0.2,9-0.1,13.5
	c-0.1,1.8-0.6,3.9-1.7,5.2c-8.3,10.7-16.8,21.2-25.3,31.8c-0.7,0.9-1.5,1.6-2.2,2.4c-4.1,4.9-9.1,7.1-15.8,6.9
	c-9.6-0.4-19.3,0.4-28.9,0.5c-2.1,0-3.7,0.7-5.3,2.3c-12.1,12-24.3,24-36.1,35.7c5.6,5.6,10.8,10.8,16.3,16.4
	c3.3-3.4,7.2-7.2,11-11.1c4.8-4.8,7.4-4.8,12.1-0.1c22.3,22.3,44.5,44.6,66.8,66.9c14.9,15,15.9,39,2.1,55.3
	c-7.8,9.2-17.2,15.9-29.6,17.2c-12.5,1.3-23.7-2-32.6-10.8c-23.2-22.8-46.1-45.9-69.1-68.9c-3-3-3-6.2,0-9.3
	c4.3-4.4,8.6-8.6,12.5-12.5c-5.3-5.6-10.4-10.9-15.6-16.3c-0.6,0.6-1.2,1.1-1.8,1.6c-12.9,12.8-25.8,25.6-38.6,38.5
	c-1.1,1.1-1.8,2.9-1.9,4.4c-0.4,10.9-0.6,21.9-0.7,32.8c0,3.2-0.8,6-3,8.2c-5.7,5.4-11.4,11-17.5,16c-6.6,5.5-13.6,10.6-20.5,15.8
	c-1.4,1.1-3.4,1.7-5.2,1.8c-4.5,0.2-9,0.1-13.5,0.1c-6.1-0.1-8.7-4.5-5.6-9.8c4.6-7.9,9.1-15.8,14-23.5c3.5-5.5,3.2-10.9,0.1-16.2
	c-4.1-7.1-10.7-11.4-18.5-13.4c-6.6-1.7-11.5,1.7-15.1,7c-5.5,8.3-10.7,16.7-16,25.1c-1.5,2.4-2.9,4.6-6.1,4.6
	c-3.3-0.1-4.9-2.3-6.2-5c-5.1-10.5-6.2-21.5-4.7-32.9c2-15.6,7.4-29.9,17-42.5c1.5-1.9,3.3-3.5,5-5.2c4.7-4.7,10.7-5.8,17-6.6
	c10.4-1.3,20.9-2.8,31.3-4.4c1.3-0.2,2.7-0.8,3.6-1.7c13.3-13.2,26.6-26.5,39.9-39.8C152.2,175.9,152.5,175.5,153.2,174.7z
	 M105.3,329c1.9-0.4,3.4-0.3,4.3-1c11-8.9,22-17.8,32.8-26.9c0.9-0.7,1.5-2.4,1.5-3.6c0.5-11.8,0.9-23.7,1.2-35.5
	c0.1-2.8,1.1-4.9,3.1-6.9c13.4-13.3,26.7-26.7,40-40.1c0.8-0.8,1.8-1.3,2.4-1.8c-3.8-3.7-7.1-7-10.9-10.8c-0.5,0.6-1,1.7-1.8,2.4
	c-12.9,12.9-25.8,25.9-38.7,38.8c-0.8,0.8-1.5,1.6-2.4,2.2c-2.3,1.6-5.5,1.2-7.4-0.8c-1.9-2-2.2-5.2-0.6-7.4
	c0.6-0.9,1.5-1.7,2.2-2.4c12.9-12.9,25.8-25.9,38.8-38.8c0.8-0.8,1.8-1.2,2.4-1.6c-4-4.1-7.4-7.6-11.1-11.5
	c-0.6,0.8-1.3,1.7-2.1,2.5c-13.3,13.4-26.6,26.8-40.1,40c-1.5,1.5-3.8,2.8-5.9,3.1c-11.6,1.9-23.2,3.8-34.8,4.9
	c-6.6,0.6-11.2,3.6-14.7,8.6c-9,12.8-14.2,26.9-14.3,42.6c0,2.9,0.4,5.7,0.6,8.6c1.2-0.7,1.7-1.5,2.3-2.4c3.4-5,6.5-10.2,10.2-14.9
	c6.9-8.9,15.9-13.1,27.3-10.2c9.2,2.4,16.9,7.4,22.8,14.9c8.1,10.3,8.7,21.5,2,32.7C111.4,318.7,108.6,323.5,105.3,329z
	 M258.9,210.8c-14.8,14.8-29.4,29.5-44.2,44.3c0.2,0.3,0.7,0.8,1.1,1.3c20.7,20.8,41.3,41.5,62.1,62.2c2.4,2.4,5.2,4.4,8.2,6
	c10,5.2,24.5,4.4,35.8-7.6c12.5-13.3,12.7-30.4-0.2-43.4c-20.2-20.2-40.4-40.5-60.7-60.7C260.3,212.1,259.5,211.4,258.9,210.8z
	 M217,186.8c0.7-0.8,1.3-1.6,2-2.3c12.2-12.1,24.3-24.3,36.6-36.2c1.6-1.5,4.1-2.8,6.2-2.9c11.7-0.7,23.5-1,35.2-1.2
	c2.1,0,3.7-0.5,5-2.1c8.7-10.7,17.4-21.3,25.9-32c0.7-0.9,0.6-2.6,1.1-4.5c-6,3.6-11.3,6.5-16.4,9.7c-5.9,3.8-12.3,4.3-18.8,2.8
	c-14.2-3.4-22.1-13.5-26.8-26.5c-3.4-9.5-1.4-18.3,5.6-25.6c2.7-2.8,5.9-5.1,9.1-7.4c4-2.9,8.3-5.5,12.8-8.5
	c-8.6-1.5-16.7-1.1-24.6,1c-10.2,2.6-19.8,6.5-28.1,13.1c-3.5,2.7-6.6,5.7-7.2,10.6c-1.6,12-3.4,24-4.9,36.1c-0.5,3.8-2,6.7-4.7,9.3
	c-11.8,11.6-23.5,23.4-35.2,35.1c-0.8,0.8-1.5,1.6-2.1,2.2c3.6,3.6,7.1,7,10.9,10.8c0.6-0.7,1.3-1.7,2.1-2.6
	c11.6-11.7,23.3-23.3,34.9-34.9c0.6-0.6,1.1-1.2,1.7-1.7c2.6-2.2,5.9-2.1,8.1,0.2c2.2,2.2,2.3,5.4,0.3,7.9c-0.6,0.7-1.2,1.3-1.9,2
	c-11.7,11.7-23.4,23.5-35,35.2c-0.8,0.8-1.5,1.6-2,2.2C210.1,180,213.3,183.2,217,186.8z M57.7,71.6c0.5,0.7,1,1.7,1.6,2.6
	c10.4,15.9,20.7,31.7,31.1,47.6c6.2,9.6,19.1,12.1,28,5c4.4-3.5,8.4-7.5,11.9-11.9c7.3-9.1,4.9-21.9-4.9-28.2
	C111.8,77.8,98.2,68.9,84.7,60c-3.2-2.1-6.3-4.1-9.3-6.1C69.4,59.9,63.7,65.6,57.7,71.6z M129.3,133.4c31.5,31.5,63,63,94.4,94.4
	c2.6-2.5,5.4-5.3,8-7.8c-31.5-31.5-63-63.1-94.3-94.4C134.7,128.2,131.8,131,129.3,133.4z"/>
<path class="st0" d="M308,297.5c-0.7,4.9-5.6,7.6-9.5,5.2c-0.8-0.5-1.6-1.2-2.3-1.9c-16.2-16.2-32.3-32.3-48.5-48.5
	c-2-2-3.6-4.1-2.6-7.2c1.3-3.9,5.7-5.3,9-3c0.6,0.5,1.2,1.1,1.8,1.6c16.3,16.2,32.5,32.4,48.7,48.7C306,293.9,306.9,295.8,308,297.5
	z"/>
</svg>
