<?xml version="1.0" encoding="utf-8"?>
<!-- Generator: Adobe Illustrator 22.0.0, SVG Export Plug-In . SVG Version: 6.00 Build 0)  -->
<svg version="1.1" id="Layer_1" xmlns="http://www.w3.org/2000/svg" xmlns:xlink="http://www.w3.org/1999/xlink" x="0px" y="0px"
	 viewBox="0 0 384 325.4" style="enable-background:new 0 0 384 325.4;" xml:space="preserve">
<style type="text/css">
	.st0{fill:#C3C3C3;}
</style>
<path class="st0" d="M32.8,199.4c5.4-25,24.2-37.4,45-47.9c1.6-0.8,3.3-1.5,5.4-2.4c0,6.7,0.1,13-0.1,19.3c0,0.8-1.2,1.7-2.1,2.3
	c-5.9,4-12,7.7-17.7,12c-2.5,1.9-4.6,4.5-6.6,7c-7.5,10-6.8,21.2,1.9,31.5c5.1,6,11.4,10.6,18.1,14.5c12.2,7,25.3,11.7,39.2,15.5
	c1.3-5.8,2.7-11.5,3.8-17.3c0.8-4.2,2.8-7.3,7.1-8.5c4.1-1.2,7.2,0.5,10,3.4c11,11.3,22.1,22.5,33.1,33.7c5.7,5.9,4.2,13.3-3.5,16.4
	c-14.9,6-29.8,11.9-44.7,17.9c-3.8,1.5-7.3,1.4-10.5-1.3c-3-2.6-3.8-6-2.8-9.9c1.3-5.2,2.3-10.5,3.5-16.1c-1.2-0.4-2.3-0.7-3.4-1
	c-17.3-4.9-33.9-11.4-48.8-21.8c-8.8-6.1-16.6-13.2-21.6-22.8c-2.4-4.7-3.7-10-5.5-15.1C32.8,205.6,32.8,202.5,32.8,199.4z"/>
<path class="st0" d="M351.3,209.3c-0.7,2.8-1.3,5.6-2.3,8.3c-3.5,10.3-10.3,18.1-18.6,24.8c-14,11.2-30.2,18-47,23.4
	c-20.1,6.4-40.7,10.4-61.7,12.1c-5.9,0.5-10.1-2.9-10.7-8.4c-0.5-5.1,3.1-9.3,8.8-10.1c3-0.4,6-0.6,9-0.9c25.3-3.1,50-8.7,73-20
	c8.3-4.1,16.1-9,22.5-15.8c11-11.9,11.1-24.1,0.3-36.2c-6-6.7-13.3-11.5-21.2-15.5c-1.9-1-2.7-2.1-2.6-4.3
	c0.2-5.7,0.1-11.4,0.1-17.9c22.9,11.4,44.6,23.1,50.4,50.7C351.3,202.7,351.3,206,351.3,209.3z"/>
<path class="st0" d="M111.5,72.4c7.7-4.5,15-8.7,22.4-12.9c17.3-10,34.6-19.9,51.9-30c3.9-2.3,7.5-2.4,11.4-0.1
	c24.6,14,49.2,27.9,73.7,41.8c0.4,0.3,0.9,0.5,1.7,1.1c-1,0.7-1.8,1.2-2.6,1.7c-25.2,14.7-50.5,29.3-75.8,43.9
	c-1,0.6-2.9,0.8-3.8,0.2c-26-14.9-51.9-29.8-77.8-44.8C112.4,73.1,112.1,72.9,111.5,72.4z"/>
<path class="st0" d="M201.4,227.9c0-1.3,0-2.1,0-2.9c0-29,0-58,0-87c0-1.6,0.2-2.8,1.9-3.8c25.7-14.8,51.4-29.8,77.1-44.7
	c0.4-0.3,0.9-0.4,1.7-0.8c0.1,1.1,0.2,2,0.2,2.8c0,27.7,0,55.3,0,83c0,4.5-1.6,7.8-5.5,10c-24.5,14.1-48.9,28.2-73.4,42.4
	C202.9,227.2,202.4,227.4,201.4,227.9z"/>
<path class="st0" d="M182.5,227.9c-4-2.3-7.6-4.4-11.3-6.5c-21.2-12.2-42.3-24.5-63.5-36.6c-3.9-2.2-5.8-5.4-5.8-9.8
	c0-28,0-56,0-83.9c0-0.5,0-1,0.1-2c1,0.5,1.8,0.8,2.6,1.2c25.3,14.6,50.6,29.2,75.9,43.8c1.4,0.8,2.3,1.6,2.3,3.5
	c-0.1,29.6-0.1,59.3-0.1,88.9C182.7,226.7,182.6,227,182.5,227.9z"/>
</svg>
