<?xml version="1.0" encoding="utf-8"?>
<!-- Generator: Adobe Illustrator 22.0.0, SVG Export Plug-In . SVG Version: 6.00 Build 0)  -->
<svg version="1.1" id="Layer_1" xmlns="http://www.w3.org/2000/svg" xmlns:xlink="http://www.w3.org/1999/xlink" x="0px" y="0px"
	 viewBox="0 0 384 349.9" style="enable-background:new 0 0 384 349.9;" xml:space="preserve">
<style type="text/css">
	.st0{fill:#C3C3C3;}
</style>
<path class="st0" d="M47.8,248.2c0.5-2.3,0.7-4.7,1.5-6.8c1.9-5.1,3.5-10.4,6.2-15c29.8-51.9,60-103.6,89.6-155.6
	c18.5-32.3,62.3-36,85.8-10.8c3.2,3.4,5.9,7.3,8.2,11.3c29.9,51.5,59.6,103.1,89.4,154.7c3.7,6.4,6.3,13.2,7.2,20.5
	c0.1,0.5,0.3,1.1,0.5,1.6c0,3.4,0,6.8,0,10.1c-0.4,1.8-0.8,3.6-1.1,5.5c-4.4,23.1-25.1,41.5-48.1,42.5c-22.2,0.9-39-8.3-50.2-27.5
	c-14.5-24.8-28.7-49.7-43.1-74.6c-0.5-0.9-1-1.7-1.7-2.8c-0.7,1.2-1.3,2-1.8,2.9c-14.8,25.6-29.4,51.3-44.4,76.7
	c-11.3,19-32,28.1-54.2,24.7c-20.1-3.1-37.1-19-42.2-39.7c-0.6-2.3-1.1-4.7-1.6-7.1C47.8,255.4,47.8,251.8,47.8,248.2z M283.2,287.9
	c12.8-0.4,22.9-5.7,29.5-16.7c6.8-11.5,6.9-23.5,0.2-35.1c-26.1-45.3-52.3-90.5-78.6-135.6c-5.3-9.1-10.8-18.3-17.3-26.7
	c-7.6-9.8-18.5-13.3-30.7-11.3c-21.2,3.6-36.5,28.6-23.4,51.3c30.3,52.3,60.4,104.6,90.7,156.9C260.1,282,270.3,287.4,283.2,287.9z
	 M150.7,235.5c0.6-0.9,1.1-1.8,1.6-2.7c9.2-15.9,18.3-31.8,27.6-47.7c1-1.8,1-3,0-4.8c-11.3-19.4-22.4-38.8-33.6-58.2
	c-1.6-2.8-2.8-5.7-4.3-8.8c-17,29.5-33.9,58.7-50.8,88C119.4,198.4,139,209.7,150.7,235.5z M100.9,219.2
	c-19.1,0-34.5,15.2-34.6,34.2c0,18.9,15.2,34.4,34,34.5c19.1,0.1,34.7-15.1,34.7-34C135.1,234.8,119.8,219.3,100.9,219.2z"/>
</svg>
