<?xml version="1.0" encoding="utf-8"?>
<!-- Generator: Adobe Illustrator 22.0.0, SVG Export Plug-In . SVG Version: 6.00 Build 0)  -->
<svg version="1.1" id="Layer_1" xmlns="http://www.w3.org/2000/svg" xmlns:xlink="http://www.w3.org/1999/xlink" x="0px" y="0px"
	 viewBox="0 0 286.9 288.4" style="enable-background:new 0 0 286.9 288.4;" xml:space="preserve">
<style type="text/css">
	.st0{fill:#C3C3C3;}
</style>
<path class="st0" d="M160.4,213.6c-16.1,9.9-18.3,9.9-33.5,0.3c-0.7,0.7-1.5,1.4-2.3,2.1c-13.6,13.6-27.1,27.1-40.7,40.7
	c-5.2,5.2-9.5,4.3-12.2-2.6c-3.2-8.2-6.3-16.5-9.7-24.6c-0.6-1.4-2-2.8-3.3-3.3c-8.5-3.5-17.2-6.8-25.7-10.2
	c-5.4-2.1-6.3-6.8-2.3-10.9c11-11,22-22,33-33c0.8-0.8,1.7-1.3,2.9-2.2c-2.8-2-5-3.6-7.1-5.2c-7.7-5.8-10.4-14-7.5-23.2
	c1.4-4.4,3.1-8.7,4.2-13.2c0.6-2.3,0.6-5,0-7.3c-1.1-4.6-2.9-9-4.3-13.5c-2.8-9,0-17.3,7.5-22.9c3.8-2.8,7.8-5.4,11.4-8.4
	c1.7-1.5,3.3-3.6,4.1-5.7c1.8-4.4,3-8.9,4.5-13.4c3.1-9.1,10.1-14.2,19.7-14.3c4.7,0,9.5,0.2,14.2-0.1c2.2-0.1,4.5-0.9,6.4-2
	c4.1-2.6,7.8-5.6,11.7-8.4c7.6-5.4,16.2-5.4,23.8-0.1c3.9,2.7,7.5,5.7,11.5,8.2c2,1.3,4.5,2.1,6.9,2.3c4.7,0.3,9.4,0.1,14.2,0.1
	c9.4,0.1,16.5,5.3,19.5,14.2c1.4,4.3,2.5,8.7,4.3,12.8c1,2.5,2.8,4.9,4.8,6.6c3.4,3,7.3,5.4,10.9,8.1c7.7,5.7,10.4,14,7.5,23.2
	c-1.2,3.8-2.3,7.7-3.8,11.4c-1.4,3.7-1.5,7.1-0.1,10.8c1.6,4.1,2.8,8.4,4.1,12.6c2.4,8.2-0.2,16.2-7,21.5c-2.4,1.8-4.8,3.6-7.4,5.5
	c0.8,0.9,1.5,1.6,2.2,2.3c10.9,10.9,21.9,21.9,32.8,32.8c4.7,4.8,3.7,9.3-2.6,11.7c-8.4,3.3-16.8,6.5-25.2,9.9
	c-1.3,0.5-2.6,1.9-3.1,3.2c-3.3,8.1-6.8,16.1-9.5,24.4c-2.2,6.8-7.9,7.8-12.7,2.8c-13.3-13.8-27-27.2-40.6-40.8
	C161.4,215.2,161,214.4,160.4,213.6z M107.6,55c-2.5,0-5,0-7.5,0c-5.4,0-7.8,1.8-9.5,7c-1.4,4.4-2.9,8.8-4.3,13.2
	c-1.4,4.4-3.9,7.9-7.6,10.5c-3.9,2.8-7.8,5.7-11.7,8.5c-3.9,2.8-4.8,5.7-3.4,10.2c1.4,4.4,2.8,8.8,4.3,13.1c1.7,4.8,1.7,9.6,0,14.4
	c-1.5,4.4-2.9,8.7-4.3,13.1c-1.4,4.4-0.5,7.3,3.2,10c3.9,2.9,7.8,5.7,11.7,8.5c3.8,2.7,6.4,6.3,7.8,10.7c1.3,4.2,2.7,8.4,4.1,12.6
	c2,6,3.9,7.4,10.3,7.4c4.1,0,8.2,0.1,12.3,0c5.2-0.1,9.9,1.4,14,4.6c3.6,2.7,7.3,5.4,10.9,8c3.9,2.8,6.9,2.8,10.8,0
	c3.8-2.7,7.7-5.5,11.4-8.3c3.9-2.9,8.3-4.3,13.2-4.3c4.8,0,9.6,0.1,14.5,0c4.3-0.1,6.7-1.8,8.1-5.9c1.6-4.7,3.2-9.5,4.7-14.3
	c1.4-4.2,3.9-7.7,7.5-10.3c3.9-2.8,7.8-5.6,11.7-8.5c4-3,4.9-5.7,3.4-10.5c-1.4-4.4-2.8-8.8-4.3-13.1c-1.6-4.7-1.6-9.4,0-14.2
	c1.5-4.4,2.9-8.7,4.3-13.1c1.4-4.6,0.5-7.4-3.3-10.2c-3.6-2.7-7.3-5.4-11-7.9c-4.3-3-7.2-6.9-8.7-11.9c-1.4-4.4-2.8-8.8-4.3-13.1
	c-1.5-4.3-3.9-6.1-8.5-6.2c-4.8-0.1-9.6-0.1-14.5,0c-4.7,0.1-8.9-1.3-12.6-4.1c-3.9-2.8-7.8-5.7-11.7-8.5c-3.8-2.7-6.7-2.7-10.5,0
	c-4,2.8-8,5.8-11.9,8.7c-3.7,2.7-7.8,4.1-12.4,3.9C111.8,54.9,109.7,55,107.6,55z M80.1,242.5c12-12,23.9-23.9,35.9-35.8
	c-1-0.1-2.1-0.3-3.3-0.3c-4.8,0-9.6,0.1-14.4-0.1c-9.1-0.3-15.8-5.3-18.7-13.9c-1.3-3.7-2.4-7.4-3.6-11.1c-0.3-1-0.7-1.9-1-2.7
	c-9.9,9.9-19.6,19.6-29.5,29.4c6.7,2.6,13.5,5.3,20.3,7.9c3.3,1.2,5.3,3.1,6.5,6.5C74.8,229.2,77.6,236,80.1,242.5z M206.6,242.7
	c2.6-6.5,5.4-13.1,7.7-19.9c1.3-3.6,3.5-5.8,7.1-7c6.7-2.4,13.4-5.2,20-7.8c-9.7-10.1-19.2-20-29.2-30.5c-1.8,5.6-3.3,10-4.8,14.5
	c-3.1,9.2-9.9,14.2-19.6,14.4c-4.6,0.1-9.2,0-13.8,0c-1.1,0-2.2,0.2-3.3,0.3C182.8,218.8,194.7,230.7,206.6,242.7z"/>
<path class="st0" d="M109.6,162.4c1.2-7.3,2.4-15.2,4-23.1c0.7-3.5,0.1-5.9-2.6-8.3c-5.5-4.9-10.5-10.2-15.8-15.3
	c-2.1-2-3.6-4.1-2.6-7.1c1-3,3.3-4,6.2-4.4c8-1.1,16.1-2.4,24.1-3.5c2-0.3,2.9-1.1,3.8-2.8c3.5-7.3,7.2-14.6,10.7-21.9
	c1.2-2.5,2.8-4.4,5.9-4.4c3.2,0,4.9,1.8,6.1,4.5c3.5,7.3,7.2,14.5,10.7,21.9c0.8,1.7,1.9,2.5,3.8,2.8c8.2,1.1,16.5,2.4,24.7,3.5
	c2.7,0.4,4.7,1.7,5.6,4.3c0.9,2.6-0.2,4.7-2,6.5c-6,5.9-12,11.8-18.1,17.6c-1.2,1.2-1.6,2.2-1.3,3.9c1.5,8,2.8,16,4.2,24
	c0.7,4-0.3,6.6-3,8c-2.3,1.2-4.5,0.5-6.6-0.6c-7.2-3.8-14.4-7.5-21.5-11.4c-1.8-1-3.2-0.9-4.9,0.1c-7.3,4-14.7,7.8-22.1,11.6
	C114.1,170.8,109.5,168.1,109.6,162.4z M123.6,152.3c5.5-2.9,10.6-5.4,15.5-8.2c2.9-1.6,5.6-1.7,8.5-0.1c5,2.7,10.1,5.3,15.6,8.2
	c-1-5.6-1.6-10.8-2.8-15.8c-1-4.3-0.1-7.5,3.2-10.5c3.9-3.6,7.3-7.6,10.9-11.5c-4.9-0.7-10-1.7-15.1-2.2c-4.4-0.4-7.1-2.3-8.9-6.4
	c-2.1-4.8-4.6-9.4-7.2-14.7c-2.6,5.4-5.2,10-7.3,14.9c-1.7,4-4.5,5.8-8.7,6.2c-5.2,0.5-10.4,1.5-15,2.2c4,4.3,7.9,8.6,11.9,12.8
	c2,2,2.8,4.2,2.3,7.1C125.6,140.1,124.7,145.9,123.6,152.3z"/>
</svg>
