<?xml version="1.0" encoding="utf-8"?>
<!-- Generator: Adobe Illustrator 22.0.0, SVG Export Plug-In . SVG Version: 6.00 Build 0)  -->
<svg version="1.1" id="Capa_1" xmlns="http://www.w3.org/2000/svg" xmlns:xlink="http://www.w3.org/1999/xlink" x="0px" y="0px"
	 viewBox="0 0 800 800" style="enable-background:new 0 0 800 800;" xml:space="preserve">
<style type="text/css">
	.st0{fill:#C1C3CD;}
</style>
<g>
	<path class="st0" d="M515.3,214.2c-35.9,0-65.1-29.1-65.1-65.1V0H241.3c-71.9,0-130.2,58.3-130.2,130.2v539.7
		c0,71.9,58.3,130.2,130.2,130.2h317.3c71.9,0,130.2-58.3,130.2-130.2V214.2H515.3z M400,521.4H240c-13.5,0-24.4-10.9-24.4-24.4
		s10.9-24.4,24.4-24.4h160c13.5,0,24.4,10.9,24.4,24.4S413.5,521.4,400,521.4z M555.3,425.8H240c-13.5,0-24.4-10.9-24.4-24.4
		c0-13.5,10.9-24.4,24.4-24.4h315.3c13.5,0,24.4,10.9,24.4,24.4C579.7,414.8,568.7,425.8,555.3,425.8z M555.3,330.2H240
		c-13.5,0-24.4-10.9-24.4-24.4c0-13.5,10.9-24.4,24.4-24.4h315.3c13.5,0,24.4,10.9,24.4,24.4C579.7,319.3,568.7,330.2,555.3,330.2z
		 M495.6,126.5V46.3c0-19.8,12.2-36.6,29.5-43.6l159,127.2c-1.7,24.4-21.9,43.7-46.7,43.7h-94.7
		C516.7,173.6,495.6,152.5,495.6,126.5z"/>
</g>
</svg>
