<?xml version="1.0" encoding="utf-8"?>
<!-- Generator: Adobe Illustrator 22.0.0, SVG Export Plug-In . SVG Version: 6.00 Build 0)  -->
<svg version="1.1" id="Layer_1" xmlns="http://www.w3.org/2000/svg" xmlns:xlink="http://www.w3.org/1999/xlink" x="0px" y="0px"
	 viewBox="0 0 333.3 500" style="enable-background:new 0 0 333.3 500;" xml:space="preserve">
	 <style type="text/css">
	.st0{fill-rule:evenodd;clip-rule:evenodd;fill:#ff5252;}
</style>
<path d="M304.2,0h-275C13.1,0,0,13.1,0,29.2v441.7C0,486.9,13.1,500,29.2,500h275c16.1,0,29.2-13.1,29.2-29.2V29.2
	C333.3,13.1,320.3,0,304.2,0z M156.3,416.7H72.9c-5.7,0-10.4-4.7-10.4-10.4c0-5.7,4.7-10.4,10.4-10.4h83.3c5.7,0,10.4,4.7,10.4,10.4
	C166.7,412,162,416.7,156.3,416.7z M197.9,354.2h-125c-5.7,0-10.4-4.7-10.4-10.4c0-5.7,4.7-10.4,10.4-10.4h125
	c5.7,0,10.4,4.7,10.4,10.4C208.3,349.5,203.6,354.2,197.9,354.2z M260.4,291.7H72.9c-5.7,0-10.4-4.7-10.4-10.4
	c0-5.7,4.7-10.4,10.4-10.4h187.5c5.7,0,10.4,4.7,10.4,10.4C270.8,287,266.1,291.7,260.4,291.7z M270.8,187.5
	c0,11.5-9.4,20.8-20.8,20.8H83.3c-11.5,0-20.8-9.4-20.8-20.8V83.3c0-11.5,9.4-20.8,20.8-20.8H250c11.5,0,20.8,9.4,20.8,20.8V187.5z"
	/>
</svg>
