<?xml version="1.0" encoding="utf-8"?>
<!-- Generator: Adobe Illustrator 23.1.0, SVG Export Plug-In . SVG Version: 6.00 Build 0)  -->
<svg version="1.1" id="Layer_1" xmlns="http://www.w3.org/2000/svg" xmlns:xlink="http://www.w3.org/1999/xlink" x="0px" y="0px"
	 viewBox="0 0 574 600" style="enable-background:new 0 0 574 600;" xml:space="preserve">
<style type="text/css">
	.st0{fill-rule:evenodd;clip-rule:evenodd;fill:#C1C3CD;}
	.st1{fill-rule:evenodd;clip-rule:evenodd;fill:none;}
</style>
<path class="st0" d="M568.9,450.8L444.3,577.2c-14.5,14.7-33.8,22.8-54.3,22.8H100.2v-0.1c0,0,0,0,0,0V427.2c0.1,0,0.2,0,0.2,0
	c1.9-23.1,9.2-43.1,31.4-49.6c20.7-6.1,42-8.4,63.2-7c24.3,1.6,45,11.6,65.1,21.2c19.1,9.2,37.2,17.8,56,17.8h57.6
	c9.5,0,17.4,7.9,17.3,17.6c0,5.1-0.4,10.1-1.3,14.9c-3.6,21.1-22,32.5-43.1,32.5H241.7c-9.9,0-17.8,15.1-17.3,25.2
	c0.4,9.5,8.5,25.5,17.8,25.5h103.4c12.2,0,23.8-4.9,32.4-13.6l21.3-33.2l51.9-52.6c32.5-32.9,85.3-32.9,117.8,0
	C575.7,432.8,575.7,443.9,568.9,450.8z M334.2,368.1c-99.3,0-180.1-82.6-180.1-184C154.1,82.6,234.9,0,334.2,0
	c99.3,0,180.1,82.6,180.1,184.1C514.2,285.5,433.4,368.1,334.2,368.1z M281.7,111c-11.7,0-22.8,10.4-22.3,22.6
	c0.5,12.2,9.8,22.6,22.3,22.6c11.7,0,22.8-10.4,22.3-22.6C303.5,121.4,294.2,111,281.7,111z M378.9,75.1c-8.8-3.8-19,0.5-22.7,9.4
	L280.3,268c-3.7,8.9,0.4,19.2,9.3,23c2.2,0.9,4.5,1.4,6.7,1.4c6.8,0,13.2-4,16-10.8l75.9-183.4C391.9,89.2,387.7,78.9,378.9,75.1z
	 M384.3,213.8c-11.7,0-22.8,10.4-22.3,22.6c0.5,12.2,9.8,22.6,22.3,22.6c11.7,0,22.8-10.4,22.3-22.6
	C406,224.2,396.8,213.8,384.3,213.8z M0,582.4V444.7c0-9.7,7.8-17.6,17.3-17.6H50V600H17.3C7.8,600,0,592.1,0,582.4z"/>
<path class="st1" d="M568.9,450.8L444.3,577.2c-14.5,14.7-33.8,22.8-54.3,22.8H100.2v-0.1c0,0,0,0,0,0V427.2c0.1,0,0.2,0,0.2,0
	c1.9-23.1,9.2-43.1,31.4-49.6c20.7-6.1,42-8.4,63.2-7c24.3,1.6,45,11.6,65.1,21.2c19.1,9.2,37.2,17.8,56,17.8h57.6
	c9.5,0,17.4,7.9,17.3,17.6c0,5.1-0.4,10.1-1.3,14.9c-3.6,21.1-22,32.5-43.1,32.5H241.7c-9.9,0-17.8,15.1-17.3,25.2
	c0.4,9.5,8.5,25.5,17.8,25.5h103.4c12.2,0,23.8-4.9,32.4-13.6l21.3-33.2l51.9-52.6c32.5-32.9,85.3-32.9,117.8,0
	C575.7,432.8,575.7,443.9,568.9,450.8z M334.2,368.1c-99.3,0-180.1-82.6-180.1-184C154.1,82.6,234.9,0,334.2,0
	c99.3,0,180.1,82.6,180.1,184.1C514.2,285.5,433.4,368.1,334.2,368.1z M281.7,111c-11.7,0-22.8,10.4-22.3,22.6
	c0.5,12.2,9.8,22.6,22.3,22.6c11.7,0,22.8-10.4,22.3-22.6C303.5,121.4,294.2,111,281.7,111z M378.9,75.1c-8.8-3.8-19,0.5-22.7,9.4
	L280.3,268c-3.7,8.9,0.4,19.2,9.3,23c2.2,0.9,4.5,1.4,6.7,1.4c6.8,0,13.2-4,16-10.8l75.9-183.4C391.9,89.2,387.7,78.9,378.9,75.1z
	 M384.3,213.8c-11.7,0-22.8,10.4-22.3,22.6c0.5,12.2,9.8,22.6,22.3,22.6c11.7,0,22.8-10.4,22.3-22.6
	C406,224.2,396.8,213.8,384.3,213.8z M0,582.4V444.7c0-9.7,7.8-17.6,17.3-17.6H50V600H17.3C7.8,600,0,592.1,0,582.4z"/>
</svg>
