<?xml version="1.0" encoding="utf-8"?>
<!-- Generator: Adobe Illustrator 22.0.0, SVG Export Plug-In . SVG Version: 6.00 Build 0)  -->
<svg version="1.1" id="Layer_1" xmlns="http://www.w3.org/2000/svg" xmlns:xlink="http://www.w3.org/1999/xlink" x="0px" y="0px"
	 viewBox="0 0 376.1 258" style="enable-background:new 0 0 376.1 258;" xml:space="preserve">
<style type="text/css">
	.st0{fill:#FFFFFF;}
	.st1{fill:#C3C3C3;}
</style>
<g>
	<path class="st0" d="M285.8,238c2,8.9,5.9,12,14.7,12c12.7,0,25.5,0,38.2,0c7.3,0,11.3-3.2,13.3-10.2c0.2-0.9,1.1-2,1.9-2.2
		c4.9-1.6,7.4-5.1,8.7-9.9c10-36.2,9.2-72.6,2.2-109.1c-1.7-8.9-6.5-15.5-14.5-19.9c-1.6-0.9-3.2-1.9-4.9-2.8
		c-4.2-2.4-4.3-2.9-1.7-6.8c2.6-3.8,3.1-7.8,1.1-12c-2.1-4.3-5.6-6.6-10.3-7c-2.4-0.2-4.8-0.3-7.1,0c-5.7,0.8-9.6-0.8-11.1-6.8
		c-0.5-1.8-1.7-3.3-2.5-5c-10.4-21.5-27-34.9-50.5-40.3c-18.6-4.3-37.3-6.6-56.3-7.5c-30.7-1.4-61.2,0.4-91.1,7.8
		c-13.8,3.4-26.5,9-36.2,19.9c-7.5,8.5-12.9,18.4-17.7,28.5c-1.1,2.3-2.3,3.5-5,3.3c-3.3-0.3-6.7-0.1-10.1-0.1
		c-5.2,0-9.2,2.1-11.6,6.8c-2.3,4.6-1.7,9,1.6,12.9c1.9,2.3,1.5,4-1,5.4c-1.9,1-3.7,2.2-5.5,3.1c-8.4,4.4-13.8,11.2-15.1,20.7
		c-1.9,14.1-3.8,28.2-4.9,42.4c-1.6,21.9,1.2,43.4,6.5,64.6c1.5,6,4.3,10.7,10.7,11.9c1.7,7.8,5.6,12,11.9,12.1
		c14.2,0.2,28.5,0.1,42.7,0c5.4,0,9.7-3.6,11.2-8.9c0.3-1,0.6-2.1,0.8-2.9C158.3,225.7,221.9,225.7,285.8,238z"/>
	<path class="st1" d="M285.8,238c-63.9-12.3-127.5-12.3-191.4,0.2c-0.2,0.9-0.5,1.9-0.8,2.9c-1.6,5.3-5.8,8.8-11.2,8.9
		c-14.2,0.1-28.5,0.1-42.7,0c-6.3-0.1-10.2-4.2-11.9-12.1c-6.5-1.3-9.2-5.9-10.7-11.9c-5.4-21.2-8.2-42.7-6.5-64.6
		c1.1-14.2,3-28.3,4.9-42.4c1.3-9.4,6.6-16.2,15.1-20.7c1.9-1,3.7-2.1,5.5-3.1c2.6-1.4,2.9-3.2,1-5.4c-3.2-3.9-3.9-8.3-1.6-12.9
		c2.4-4.7,6.4-6.8,11.6-6.8c3.4,0,6.8-0.2,10.1,0.1c2.8,0.2,3.9-0.9,5-3.3c4.8-10.2,10.2-20,17.7-28.5c9.7-11,22.4-16.5,36.2-19.9
		c29.9-7.4,60.4-9.2,91.1-7.8c19,0.9,37.8,3.2,56.3,7.5c23.5,5.4,40.1,18.8,50.5,40.3c0.8,1.7,2,3.3,2.5,5c1.5,6,5.4,7.6,11.1,6.8
		c2.3-0.3,4.8-0.2,7.1,0c4.7,0.4,8.3,2.7,10.3,7c2,4.2,1.5,8.2-1.1,12c-2.7,3.9-2.5,4.4,1.7,6.8c1.6,0.9,3.2,1.9,4.9,2.8
		c8,4.3,12.8,11,14.5,19.9c7.1,36.5,7.8,72.9-2.2,109.1c-1.3,4.8-3.8,8.3-8.7,9.9c-0.8,0.3-1.6,1.4-1.9,2.2c-2,7-6,10.2-13.3,10.2
		c-12.7,0-25.5,0-38.2,0C291.7,249.9,287.8,246.8,285.8,238z M189.9,86.9c0,0.2,0,0.4,0,0.7c6.9,0,13.7-0.2,20.6,0
		c26.9,0.8,53.7,1.7,80.6,2.5c6.9,0.2,9.7-3.9,6.7-10.1c-2.1-4.4-4.4-8.7-6.5-13c-6.9-13.9-18.1-22-33.2-25.6
		c-16.9-3.9-33.9-6.1-51.1-6.9c-27.7-1.4-55.2,0.1-82.3,6.3c-11.2,2.6-22.2,5.9-29.1,16c-4.5,6.6-8,13.8-12.1,20.6
		c-4.7,7.8-2.6,13.3,8.3,12.8C124.5,88.8,157.2,88,189.9,86.9z M190.5,201.2c21.9,0,43.7,0.3,65.6-0.2c4.5-0.1,9.5-2.4,13.3-5.1
		c6.9-4.7,6.4-12.2-0.8-16.4c-3.9-2.3-8.3-4.1-12.7-5.3c-42.4-11.2-85-10.7-127.5-1.1c-6.2,1.4-12.3,4.2-17.7,7.6
		c-6,3.7-5.9,9.3-0.8,14.1c4.1,3.9,9.2,6.3,14.8,6.3C146.5,201.3,168.5,201.2,190.5,201.2z M61.9,142.2c10.4-0.9,19.3-1.6,28.3-2.5
		c1.3-0.1,3.4-1.4,3.6-2.5c0.2-1.3-0.8-3.1-1.8-4.3c-1-1.2-2.6-1.9-4-2.7c-10.5-5.9-21.9-9-33.5-11.5c-4.8-1-9.9-0.8-14.8-0.6
		c-1.6,0.1-3.9,1.6-4.6,3c-4,8.5,0.9,18.4,10.1,19.9C51,142,57.2,141.9,61.9,142.2z M319.3,142.2c4.2-0.4,11.2-0.7,18-1.8
		c4.8-0.8,7.9-4.2,8.4-9.3c0.3-2.7,0.4-5.5,0.3-8.2c-0.1-2.9-1.6-4.7-4.8-5.1c-8.2-0.9-15.9,1.1-23.6,3.1
		c-10.2,2.7-20.3,5.6-28.9,11.8c-1.3,0.9-2.2,3.2-2.2,4.9c0,0.7,2.5,2,4,2.2C299,140.6,307.7,141.3,319.3,142.2z"/>
	<path class="st0" d="M189.9,86.9c-32.7,1.1-65.4,1.9-98.1,3.3c-10.9,0.5-13-5-8.3-12.8c4.1-6.8,7.6-14,12.1-20.6
		c6.9-10.1,18-13.5,29.1-16c27.1-6.2,54.6-7.7,82.3-6.3c17.2,0.9,34.3,3,51.1,6.9c15.1,3.5,26.3,11.6,33.2,25.6
		c2.2,4.4,4.5,8.7,6.5,13c2.9,6.2,0.2,10.3-6.7,10.1c-26.9-0.8-53.7-1.7-80.6-2.5c-6.9-0.2-13.7,0-20.6,0
		C189.9,87.4,189.9,87.1,189.9,86.9z"/>
	<path class="st0" d="M190.5,201.2c-22,0-44,0.1-65.9-0.1c-5.7,0-10.7-2.4-14.8-6.3c-5.1-4.8-5.1-10.4,0.8-14.1
		c5.4-3.3,11.5-6.2,17.7-7.6c42.6-9.7,85.1-10.1,127.5,1.1c4.4,1.2,8.8,3,12.7,5.3c7.2,4.2,7.7,11.7,0.8,16.4
		c-3.9,2.6-8.8,5-13.3,5.1C234.2,201.5,212.3,201.2,190.5,201.2z"/>
	<path class="st0" d="M61.9,142.2C57.2,141.9,51,142,45,141c-9.2-1.5-14.1-11.4-10.1-19.9c0.7-1.5,3-3,4.6-3
		c4.9-0.2,10.1-0.4,14.8,0.6c11.6,2.5,23,5.6,33.5,11.5c1.4,0.8,3,1.5,4,2.7c1,1.2,2.1,3,1.8,4.3c-0.2,1-2.2,2.3-3.6,2.5
		C81.2,140.6,72.3,141.3,61.9,142.2z"/>
	<path class="st0" d="M319.3,142.2c-11.5-1-20.3-1.6-29-2.5c-1.5-0.2-4-1.5-4-2.2c0.1-1.7,0.9-3.9,2.2-4.9
		c8.7-6.2,18.8-9.2,28.9-11.8c7.7-2,15.4-4,23.6-3.1c3.3,0.4,4.7,2.1,4.8,5.1c0.1,2.7,0,5.5-0.3,8.2c-0.5,5.1-3.6,8.5-8.4,9.3
		C330.4,141.5,323.5,141.8,319.3,142.2z"/>
</g>
</svg>
