<?xml version="1.0" encoding="utf-8"?>
<!-- Generator: Adobe Illustrator 22.0.0, SVG Export Plug-In . SVG Version: 6.00 Build 0)  -->
<svg version="1.1"
	 id="Layer_1" image-rendering="optimizeQuality" shape-rendering="geometricPrecision" text-rendering="geometricPrecision"
	 xmlns="http://www.w3.org/2000/svg" xmlns:xlink="http://www.w3.org/1999/xlink" x="0px" y="0px" viewBox="0 0 512 380.2"
	 style="enable-background:new 0 0 512 380.2;" xml:space="preserve">
<style type="text/css">
	.st0{fill:#C1C3CD;}
</style>
<path class="st0" d="M34.7,0h442.7C496.4,0,512,15.6,512,34.7v310.9c0,19.1-15.6,34.7-34.7,34.7H34.7C15.6,380.2,0,364.6,0,345.6
	V34.7C0,15.6,15.6,0,34.7,0z M208.6,264.4c5.8,5,6.3,13.8,1.3,19.6c-5.1,5.8-13.8,6.4-19.6,1.3L137.6,239
	c-5.8-5.1-6.4-13.8-1.3-19.6c0.4-0.5,0.9-0.9,1.4-1.4l52.7-46.1c5.8-5,14.5-4.5,19.6,1.3c5,5.8,4.5,14.5-1.3,19.6l-40.8,35.8
	L208.6,264.4L208.6,264.4z M321.7,285.2c-5.8,5-14.5,4.5-19.6-1.3c-5-5.8-4.5-14.5,1.3-19.6l40.8-35.8l-40.8-35.8
	c-5.8-5.1-6.3-13.8-1.3-19.6c5-5.8,13.8-6.4,19.6-1.3l52.7,46.1c0.5,0.4,0.9,0.9,1.4,1.4c5,5.8,4.5,14.5-1.3,19.6L321.7,285.2z
	 M255.7,160.9c1.7-7.5,9.2-12.1,16.7-10.4c7.5,1.7,12.1,9.2,10.4,16.7l-30.1,129c-1.7,7.5-9.2,12.1-16.7,10.4s-12.1-9.2-10.4-16.7
	L255.7,160.9L255.7,160.9z M22,97.1V349c0,5.3,4.3,9.6,9.5,9.6c0,0,0,0,0.1,0h450.2c5.3,0,9.6-4.3,9.6-9.5c0,0,0,0,0-0.1V97.1H22z
	 M444.4,39c9.5,0,17.1,7.7,17.1,17.1c0,9.5-7.7,17.1-17.1,17.1c-9.5,0-17.1-7.7-17.1-17.1C427.2,46.6,434.9,39,444.4,39z M328.3,39
	c9.5,0,17.1,7.7,17.1,17.1c0,9.5-7.7,17.1-17.1,17.1c-9.5,0-17.1-7.7-17.1-17.1C311.2,46.6,318.9,39,328.3,39z M386.3,39
	c9.5,0,17.1,7.7,17.1,17.1c0,9.5-7.7,17.1-17.1,17.1c-9.5,0-17.1-7.7-17.1-17.1C369.2,46.6,376.9,39,386.3,39z"/>
</svg>
