<?xml version="1.0" encoding="utf-8"?>
<!-- Generator: Adobe Illustrator 23.1.0, SVG Export Plug-In . SVG Version: 6.00 Build 0)  -->
<svg version="1.1" id="Layer_1" xmlns="http://www.w3.org/2000/svg" xmlns:xlink="http://www.w3.org/1999/xlink" x="0px" y="0px"
	 viewBox="0 0 479 600" style="enable-background:new 0 0 479 600;" xml:space="preserve">
<style type="text/css">
	.st0{fill-rule:evenodd;clip-rule:evenodd;fill:#C1C3CD;}
</style>
<path class="st0" d="M477.4,497.9c-2.1,3.7-6.1,6.1-10.4,6.1H12c-4.3,0-8.3-2.3-10.4-6.1c-2.1-3.8-2.1-8.4,0.1-12.1l41.1-68.7
	c19-31.7,29-68,29-105V252c0-76,50.6-140.2,119.7-160.9V48c0-26.5,21.5-48,47.9-48c26.4,0,47.9,21.5,47.9,48v43.1
	c69.2,20.7,119.7,85,119.7,160.9v60.2c0,37,10,73.3,29,105l41.1,68.7C479.5,489.5,479.5,494.2,477.4,497.9z M239.5,600
	c-33.3,0-61.9-19.7-75.4-48h150.8C301.4,580.3,272.8,600,239.5,600z"/>
</svg>
