<?xml version="1.0" encoding="utf-8"?>
<!-- Generator: Adobe Illustrator 23.1.0, SVG Export Plug-In . SVG Version: 6.00 Build 0)  -->
<svg version="1.1" id="Layer_1" xmlns="http://www.w3.org/2000/svg" xmlns:xlink="http://www.w3.org/1999/xlink" x="0px" y="0px"
	 viewBox="0 0 600 575.8" style="enable-background:new 0 0 600 575.8;" xml:space="preserve">
<style type="text/css">
	.st0{fill-rule:evenodd;clip-rule:evenodd;fill:#C1C3CD;}
</style>
<path class="st0" d="M531.5,266.4l68.5,15.1l-30.7,134.9l-69.2-15.2c-10.9,18.2-24.3,34.8-39.9,49.3l31.5,63.3l-126.3,60.7
	L333.9,511c-20.9,3-42.1,3.2-63.4,0.5l-30.8,64.3l-92.7-43c12.9-12.7,96.1-94.5,104.2-102.4c100.5,32.8,204.8-40.9,204.8-145.4
	c0-84.6-69.8-153.2-155.8-153.2c-108.5,0-183.6,106.5-146.2,206.1c-28.1,27.6-49.5,48.6-73.1,71.9l-48,11.3L0,286.8l68.3-16.1
	c1.3-21.5,5.7-42.5,13.1-62.7l-55.3-42.2l86.3-109.1l54.3,41.5c19.2-13.3,40.1-23.6,62.4-30.6V0h140.6v67.1
	c21.3,6.5,41.3,16,59.9,28.3l53.7-42.3L571.2,161l-54.1,42.6C524.9,223.7,529.8,244.8,531.5,266.4z M338.6,185l24.8,9.7l-59.4,58.3
	l26.7,26.2l59.4-58.3l9.9,24.4c37,91.3-60.1,179.8-149.7,137.1C74.7,555,163.6,467.7,72.1,557.6l-45.9-45.2
	c157.5-154.8,45.5-44.7,176.6-173.6C151.7,251.5,241.5,147.1,338.6,185z"/>
</svg>
