<?xml version="1.0" encoding="utf-8"?>
<!-- Generator: Adobe Illustrator 22.0.0, SVG Export Plug-In . SVG Version: 6.00 Build 0)  -->
<svg version="1.1" id="Capa_1" xmlns="http://www.w3.org/2000/svg" xmlns:xlink="http://www.w3.org/1999/xlink" x="0px" y="0px"
	 viewBox="0 0 374.5 512" style="enable-background:new 0 0 374.5 512;" xml:space="preserve">
<g>
	<path d="M329.5,33.6h-36c0.4,2.3,0.6,4.7,0.6,7.1v31.4c0,22.4-18.2,40.6-40.6,40.6H120.9c-22.4,0-40.6-18.2-40.6-40.6V40.7
		c0-2.4,0.2-4.8,0.6-7.1H45c-24.8,0-45,20.2-45,45V467c0,24.8,20.2,45,45,45h284.5c24.8,0,45-20.2,45-45V78.6
		C374.5,53.8,354.3,33.6,329.5,33.6z M62.8,192c7.1-4.2,16.3-1.8,20.5,5.4l7.1,12.1l33.5-48.5c4.7-6.8,14-8.5,20.9-3.8
		c6.8,4.7,8.5,14.1,3.8,20.9l-46.9,67.8c-2.8,4.1-7.4,6.5-12.3,6.5c-0.2,0-0.4,0-0.6,0c-5.1-0.2-9.8-3-12.4-7.4l-19-32.4
		C53.3,205.4,55.7,196.2,62.8,192z M148.6,295.8l-46.9,67.8c-2.8,4.1-7.4,6.5-12.3,6.5c-0.2,0-0.4,0-0.6,0c-5.1-0.2-9.8-3-12.4-7.4
		l-19-32.4c-4.2-7.1-1.8-16.3,5.4-20.5c7.1-4.2,16.3-1.8,20.5,5.4l7.1,12.1l33.5-48.5c4.7-6.8,14-8.5,20.9-3.8
		C151.6,279.7,153.3,289,148.6,295.8z M300,357.5H198.5c-8.3,0-15-6.7-15-15s6.7-15,15-15H300c8.3,0,15,6.7,15,15
		S308.3,357.5,300,357.5z M300,290.5H198.5c-8.3,0-15-6.7-15-15s6.7-15,15-15H300c8.3,0,15,6.7,15,15
		C315,283.7,308.3,290.5,300,290.5z M300,224.7H198.5c-8.3,0-15-6.7-15-15c0-8.3,6.7-15,15-15H300c8.3,0,15,6.7,15,15
		C315,218,308.3,224.7,300,224.7z"/>
	<path d="M120.9,82.7h132.7c5.8,0,10.6-4.8,10.6-10.6V10.6c0-5.8-4.8-10.6-10.6-10.6H120.9c-5.8,0-10.6,4.8-10.6,10.6v61.5h0
		C110.3,77.9,115.1,82.7,120.9,82.7z"/>
</g>
</svg>
