<?xml version="1.0" encoding="utf-8"?>
<!-- Generator: Adobe Illustrator 22.0.0, SVG Export Plug-In . SVG Version: 6.00 Build 0)  -->
<svg version="1.1" id="Capa_1" xmlns="http://www.w3.org/2000/svg" xmlns:xlink="http://www.w3.org/1999/xlink" x="0px" y="0px"
	 viewBox="0 0 32.5 36.4" style="enable-background:new 0 0 32.5 36.4;" xml:space="preserve">
<path d="M28.3,3.9h-1.1V2.8C27.2,1.2,26,0,24.5,0c-1.5,0-2.7,1.2-2.7,2.8v1.2h-2.7V2.8c0-1.5-1.2-2.8-2.7-2.8
	c-1.5,0-2.7,1.2-2.7,2.8v1.2H11V2.8C11,1.2,9.8,0,8.3,0C6.8,0,5.7,1.2,5.7,2.8v1.2H4.3C1.9,3.9,0,5.9,0,8.2v2v1.9v20v0.1
	c0,2.3,1.9,4.3,4.3,4.3h24c2.3,0,4.3-1.9,4.3-4.3v-0.1v-20v-1.9v-2C32.5,5.9,30.6,3.9,28.3,3.9z M15.2,2.8c0-0.7,0.5-1.3,1.2-1.3
	c0.6,0,1.2,0.6,1.2,1.3v4.9c0,0.1,0,0.1,0,0.2h-2.3c0-0.1,0-0.1,0-0.2V2.8z M7.2,7.8c0-0.1,0-0.1,0-0.2V2.8c0-0.7,0.5-1.3,1.2-1.3
	c0.6,0,1.2,0.6,1.2,1.3v4.9c0,0.1,0,0.1,0,0.2H7.2z M24.2,18l-9.8,9.8l-0.1,0.1c-0.4,0.4-1,0.4-1.3,0l-0.1-0.1l-3.1-3.1
	c-0.4-0.4-0.4-1,0-1.3l0.1-0.1c0.4-0.4,1-0.4,1.3,0l2.5,2.5l9.1-9.1c0.4-0.4,1-0.4,1.3,0l0.1,0.1C24.5,17,24.5,17.6,24.2,18z
	 M25.7,7.6c0,0.1,0,0.1,0,0.2h-2.3c0-0.1,0-0.1,0-0.2V2.8c0-0.7,0.5-1.3,1.2-1.3c0.6,0,1.2,0.6,1.2,1.3V7.6z"/>
</svg>
