<?xml version="1.0" encoding="utf-8"?>
<!-- Generator: Adobe Illustrator 23.1.0, SVG Export Plug-In . SVG Version: 6.00 Build 0)  -->
<svg version="1.1" id="Layer_1" xmlns="http://www.w3.org/2000/svg" xmlns:xlink="http://www.w3.org/1999/xlink" x="0px" y="0px"
	 viewBox="0 0 600 480" style="enable-background:new 0 0 600 480;" xml:space="preserve">
<style type="text/css">
	.st0{fill-rule:evenodd;clip-rule:evenodd;fill:#C1C3CD;}
</style>
<path class="st0" d="M590.9,383.6l-23,5.8l12.2,20.3c2.8,4.7,2.1,10.8-1.8,14.7l-33.9,33.9c-3.9,3.9-10,4.6-14.7,1.8l-20.3-12.2
	l-5.7,23c-1.3,5.3-6.1,9.1-11.6,9.1h-48c-5.5,0-10.3-3.7-11.6-9.1l-5.7-23l-20.3,12.2c-4.7,2.8-10.8,2.1-14.7-1.8l-33.9-33.9
	c-3.9-3.9-4.6-9.9-1.8-14.7l12.2-20.3l-23-5.8c-5.3-1.3-9.1-6.1-9.1-11.6v-48c0-5.5,3.7-10.3,9.1-11.6l23-5.8l-12.2-20.3
	c-2.8-4.7-2.1-10.8,1.8-14.7l33.9-33.9c3.9-3.9,10-4.6,14.7-1.8l20.3,12.2l5.7-23c1.3-5.3,6.1-9.1,11.6-9.1h48
	c5.5,0,10.3,3.7,11.6,9.1l5.7,23l20.3-12.2c4.7-2.8,10.8-2.1,14.7,1.8l33.9,33.9c3.9,3.9,4.6,9.9,1.8,14.7l-12.2,20.3l23,5.8
	c5.3,1.3,9.1,6.1,9.1,11.6v48C600,377.5,596.2,382.3,590.9,383.6z M468,288c-33.1,0-60,26.9-60,60c0,33.1,26.9,60,60,60
	c33.1,0,60-26.9,60-60C528,314.9,501.1,288,468,288z M444,168h-24c-11.2,0-21.5,5.1-28.4,13.9c-2.6,3.4-6.9,4.9-11,4.5
	c-11.3-1.5-22.1,2.4-29.9,10.3l-33.9,33.9c-7.9,7.9-11.7,18.8-10.3,29.9c0.5,4.2-1.2,8.4-4.5,11c-8.8,6.9-13.9,17.2-13.9,28.4v48
	c0,6.6-5.4,12-12,12H48c-26.5,0-48-21.5-48-48V91.8c0-4.6,2.7-8.8,6.8-10.8c4.2-2,9.1-1.4,12.7,1.5l184.2,149.8
	c15.6,10.3,32.6,9.9,46.5,1.4l2.1-1.4L436.4,82.5c3.6-2.9,8.6-3.5,12.7-1.5c4.2,2,6.8,6.2,6.8,10.8V156C456,162.6,450.6,168,444,168
	z M238.6,188.5c-4.5,2.7-7.5,3.5-10.6,3.5c-2.9,0-5.6-0.7-8.3-2c-0.8-0.4-1.5-0.9-2.2-1.4L19.9,27.8c-2.9-2.4-4.6-6-4.4-9.8
	c0.1-3.8,2-7.2,5.1-9.4C28.7,3,38.2,0,48,0h360c9.8,0,19.3,3,27.4,8.6c3.1,2.2,5,5.6,5.1,9.4c0.1,3.8-1.5,7.4-4.4,9.8L238.6,188.5z"
	/>
</svg>
