<?xml version="1.0" encoding="utf-8"?>
<!-- Generator: Adobe Illustrator 23.1.0, SVG Export Plug-In . SVG Version: 6.00 Build 0)  -->
<svg version="1.1" id="Layer_1" xmlns="http://www.w3.org/2000/svg" xmlns:xlink="http://www.w3.org/1999/xlink" x="0px" y="0px"
	 viewBox="0 0 550.8 600" style="enable-background:new 0 0 550.8 600;" xml:space="preserve">
<style type="text/css">
	.st0{fill-rule:evenodd;clip-rule:evenodd;fill:#C1C3CD;}
</style>
<path class="st0" d="M549.3,593.7c-2.1,3.9-6.1,6.3-10.5,6.3H12c-4.4,0-8.5-2.4-10.6-6.3c-2.1-3.9-1.8-8.7,0.6-12.3l95.8-144
	c2.2-3.3,6-5.4,10-5.4h64.8c34.7,53.5,66.8,96.1,74.3,105.9c6.8,8.8,17.4,14.1,28.5,14.1c11.1,0,21.8-5.3,28.5-14.1
	c7.5-9.8,39.6-52.4,74.3-105.9H443c4,0,7.7,2,10,5.4l95.8,144C551.2,585,551.4,589.8,549.3,593.7z M275.4,504
	c-3.7,0-7.2-1.7-9.5-4.7C258.9,490.2,95.8,275.8,95.8,180c0-99.3,80.6-180,179.6-180C374.4,0,455,80.7,455,180
	c0,95.8-163.1,310.2-170.1,319.3C282.6,502.3,279.1,504,275.4,504z M359.2,180c0-46.3-37.6-84-83.8-84c-46.2,0-83.8,37.7-83.8,84
	c0,46.3,37.6,84,83.8,84C321.6,264,359.2,226.3,359.2,180z"/>
</svg>
