<?xml version="1.0" encoding="utf-8"?>
<!-- Generator: Adobe Illustrator 22.0.0, SVG Export Plug-In . SVG Version: 6.00 Build 0)  -->
<svg version="1.1" id="Layer_1" xmlns="http://www.w3.org/2000/svg" xmlns:xlink="http://www.w3.org/1999/xlink" x="0px" y="0px"
	 viewBox="0 0 122.9 59.1" style="enable-background:new 0 0 122.9 59.1;" xml:space="preserve">
<style type="text/css">
	.st0{fill:#C1C3CD;}
</style>
<g>
	<path class="st0" d="M74.2,17.4c0.7,0.2,1.1,0.6,1.4,1.1c0.5,0.9,0.3,2.3-0.6,4.3l0,0c0,0,0,0.1-0.1,0.1L71.9,28
		c-1.2,2-2.4,3.9-4,5.4c-1.7,1.6-3.8,2.6-6.6,2.6c-2.7,0-4.7-1-6.3-2.5c-1.6-1.5-2.8-3.3-3.9-5.1l-2.7-4.3c-1-1.5-1.5-2.9-1.6-4
		c0-0.5,0.1-1,0.3-1.5c0.2-0.5,0.5-0.9,1-1.1c0.2-0.1,0.5-0.3,0.7-0.4c-0.2-2.3-0.2-5.1-0.1-7.5C48.8,9,48.9,8.5,49,7.9
		c0.7-2.5,2.4-4.4,4.5-5.8c0.8-0.5,1.6-0.9,2.5-1.2C61.2-1,68.1,0,71.7,4c1.5,1.6,2.4,3.8,2.6,6.6L74.2,17.4L74.2,17.4L74.2,17.4z
		 M106.1,43.8c-2.2,6.5-11.4,6.7-13.5,0c-0.5,0.4-1.2,0.8-2,1.1c1.8,3.8,2,8.8,2.7,13h5.9h21.1c1.6-0.1,2.4-1,2.6-2.4
		c0-2.9-0.2-5.2-4.4-7.6C115.8,46.4,108.6,46,106.1,43.8L106.1,43.8L106.1,43.8z M89.4,27.2c-0.5,0.1-0.9,0.4-1.1,0.9
		c-0.3,0.7-0.2,1.8,0.4,3.3l0,0c0,0,0,0,0,0.1l2.4,3.9c0.9,1.5,1.8,3,3.1,4.2c1.3,1.2,2.9,2,5.1,2c2.1,0,3.6-0.8,4.9-2
		c1.2-1.1,2.2-2.5,3-4l2.1-3.3c0.8-1.2,1.2-2.2,1.2-3.1c0-0.4-0.1-0.8-0.2-1.1c-0.2-0.4-0.4-0.7-0.8-0.9c-0.2-0.1-0.4-0.2-0.6-0.3
		c0.1-1.8,0.2-4,0.1-5.8c0-0.5-0.1-0.9-0.3-1.4c-0.5-1.9-1.9-3.4-3.5-4.5c-0.6-0.4-1.2-0.7-1.9-0.9c-4-1.4-9.3-0.7-12.1,2.4
		c-1.2,1.3-1.9,2.9-2,5.1L89.4,27.2L89.4,27.2L89.4,27.2z M107.9,28.3c0.4,0,0.6,0.1,0.8,0.2c0.1,0.1,0.2,0.2,0.3,0.3
		c0.1,0.1,0.1,0.3,0.1,0.5c0,0.6-0.3,1.4-1,2.4l0,0l0,0l-2.1,3.3c-0.8,1.3-1.7,2.7-2.8,3.7c-1,0.9-2.3,1.6-3.9,1.6
		c-1.8,0-3.1-0.7-4.1-1.6c-1.1-1-2-2.5-2.8-3.9l-2.3-3.9c-0.5-1.1-0.6-1.7-0.5-2c0.1-0.2,0.5-0.2,1.1-0.2c0.4,0.1,0.8,0,1.3-0.2
		l-1.2-3.5c4.3,0,7.2-0.8,10.7-3c1.1-0.7,1.5-1.6,2.6-1.5c0.9,0.2,1.6,0.5,2.2,1.2c0.6,0.6,1,1.4,1.2,2.4l-0.7,4.2
		C107.2,28.4,107.6,28.4,107.9,28.3L107.9,28.3L107.9,28.3z M90.5,56c-0.2,1.8-1.3,2.9-3.3,3.1H61.5H35.4c-2.1-0.2-3.2-1.2-3.3-3.1
		l0.7-3c0.2-2.6,0.9-4.7,2.2-6.3c0.8-1.1,1.8-1.8,2.9-2.4c3.5-1.9,11.6-2.5,14.7-5.3c2.8,8.4,14.8,8.7,17.4,0
		c3.2,2.8,11.3,3.4,14.7,5.3c1.1,0.6,2.1,1.4,2.9,2.4C89.7,49.4,89.8,52.6,90.5,56L90.5,56z M16.8,42.6c2.2,6.5,11.4,6.7,13.5,0
		c0.5,0.4,1.2,0.8,2,1.1c-1.8,3.8-2,8.8-2.6,13h-5.9H2.6c-1.6-0.1-2.4-1-2.6-2.4c0-2.9,0.2-5.2,4.4-7.6
		C7.1,45.2,14.3,44.8,16.8,42.6L16.8,42.6L16.8,42.6z M33.5,26c0.5,0.1,0.9,0.4,1.1,0.9c0.3,0.7,0.2,1.8-0.5,3.3l0,0c0,0,0,0,0,0.1
		l-2.4,3.9c-0.9,1.5-1.9,3-3.1,4.2c-1.3,1.2-2.9,2-5.1,2c-2.1,0-3.6-0.8-4.9-2c-1.2-1.1-2.1-2.5-3-4l-2.1-3.3
		c-0.8-1.2-1.2-2.2-1.2-3.1c0-0.4,0.1-0.8,0.2-1.1c0.2-0.4,0.4-0.7,0.8-0.9c0.2-0.1,0.4-0.2,0.6-0.3c-0.1-1.8-0.2-4-0.1-5.8
		c0-0.5,0.1-0.9,0.3-1.4c0.5-1.9,1.9-3.4,3.5-4.5c0.6-0.4,1.2-0.7,1.9-0.9c4-1.4,9.3-0.7,12.1,2.4c1.2,1.3,1.9,2.9,2,5.1L33.5,26
		L33.5,26L33.5,26z M14.9,27c-0.4,0-0.6,0.1-0.8,0.2c-0.1,0.1-0.2,0.2-0.3,0.3c-0.1,0.1-0.1,0.3-0.1,0.5c0,0.6,0.3,1.4,1,2.4l0,0
		l0,0l2.1,3.3c0.8,1.3,1.7,2.7,2.8,3.7c1,0.9,2.3,1.6,3.9,1.6c1.8,0,3.1-0.7,4.1-1.6c1.1-1,2-2.5,2.9-3.9l2.3-3.9
		c0.5-1.1,0.6-1.7,0.5-2c-0.1-0.2-0.5-0.2-1.1-0.2c-0.4,0.1-0.8,0-1.3-0.2l1.2-3.5c-4.3,0-7.2-0.8-10.7-3c-1.1-0.7-1.5-1.6-2.6-1.5
		c-0.9,0.2-1.6,0.5-2.2,1.2c-0.5,0.6-1,1.4-1.2,2.4L16,27C15.7,27.2,15.3,27.2,14.9,27L14.9,27L14.9,27z M50,18.8
		c-0.4,0-0.7,0.1-0.9,0.3c-0.1,0.1-0.3,0.2-0.3,0.4c-0.1,0.2-0.1,0.4-0.1,0.6c0,0.8,0.4,1.8,1.3,3l0,0l0,0l2.7,4.3
		c1.1,1.7,2.2,3.5,3.6,4.7c1.3,1.2,2.9,2,5,2c2.3,0,4-0.8,5.3-2.1c1.4-1.3,2.6-3.2,3.7-5l3-5c0.6-1.4,0.8-2.2,0.6-2.6
		c-0.1-0.3-0.7-0.3-1.6-0.2c-0.1,0-0.1,0-0.2,0c-0.4,0-0.8-0.1-1.2-0.3l1.4-4.5c-5.6-0.1-9.3-1-13.8-3.9c-1.5-1-1.9-2-3.4-1.9
		C54,8.8,53,9.2,52.3,10c-0.7,0.8-1.3,1.8-1.6,3.2l1,5.5C51.1,19,50.5,19,50,18.8L50,18.8L50,18.8z"/>
</g>
</svg>
