<?xml version="1.0" encoding="utf-8"?>
<!-- Generator: Adobe Illustrator 22.0.0, SVG Export Plug-In . SVG Version: 6.00 Build 0)  -->
<svg version="1.1" id="Layer_1" xmlns="http://www.w3.org/2000/svg" xmlns:xlink="http://www.w3.org/1999/xlink" x="0px" y="0px"
	 viewBox="0 0 800 800" style="enable-background:new 0 0 800 800;" xml:space="preserve">
<style type="text/css">
	.st0{fill:#C1C3CD;}
</style>
<path class="st0" d="M160,64v256H47.9l2.4,416h222.4h32H528h224V128H496v16v304h-80.1V64.1L160,64z M192,96l191.9,0.1V448h-79.7
	L304,320h-16h-96V96z M240,128v32h32v-32H240z M304.6,128v32H336v-32H304.6z M528,160h192v544h-80.6v-64H608v64h-80V448V160z
	 M240,192v32h32v-32H240z M304,192v32h32v-32H304z M576,192.1V224h32v-31.9H576z M640.3,192.1v32.2h31.4v-32.2H640.3z M576,256.3
	V288h32v-31.8H576z M640.3,256.3V288h31.4v-31.8H640.3z M576,320v32h32v-32H576z M640,320v32h31.7v-32H640z M80.1,352H272l0.2,96
	H272l0.7,256h-81v-64h-31.4v64H82.2L80.1,352z M128,384v32.3h32.6V384H128z M192.6,384v32.3H224V384H192.6z M576,384.1V416h32v-31.8
	H576z M640,384.1V416h31.7v-31.8H640z M128,447.8V480h32.6v-32.3H128z M192.6,447.8V480H224v-32.3H192.6z M576,447.9v32.3h32v-32.3
	H576z M640.3,447.9v32.3h31.4v-32.3H640.3z M304.3,480H496v224h-80v-64h-32v64h-79.3L304.3,480z M128,512v32.3h32.6V512H128z
	 M192.6,512v32.3H224V512H192.6z M352,512v32.3h32V512H352z M416,512v32.3h32V512H416z M576,512v32.3h32V512H576z M640.3,512v32.3
	h31.4V512H640.3z M352,575.8V608h32v-32.3H352z M416,575.8V608h32v-32.3H416z M576,575.8V608h32v-32.3H576z M640.3,575.8V608h31.4
	v-32.3H640.3z"/>
</svg>
