<?xml version="1.0" encoding="utf-8"?>
<!-- Generator: Adobe Illustrator 22.0.0, SVG Export Plug-In . SVG Version: 6.00 Build 0)  -->
<svg version="1.1" id="Layer_1" xmlns="http://www.w3.org/2000/svg" xmlns:xlink="http://www.w3.org/1999/xlink" x="0px" y="0px"
	 viewBox="0 0 512 512" style="enable-background:new 0 0 512 512;" xml:space="preserve">
<path d="M437,75C337-25,175.1-25,75,75C-25,175-25,336.9,75,437c100,100,261.9,100,362,0C537,337,537,175.1,437,75z M243.3,228
	l41.4,17.2c46.1,19.1,59.6,78.6,25.7,114.9c-9.5,10.2-21.1,17-33.4,20.6v14.1c0,11.6-9.4,21-21,21s-21-9.4-21-21v-14.1
	c-31.7-9.2-53.4-38.5-53.4-71.4c0-11.6,9.4-21,21-21s21,9.4,21,21c0,28.9,35,42.9,55.1,23C294,317.3,288,292,268.7,284l-41.4-17.2
	c-46.1-19.1-59.6-78.6-25.6-115c8.8-9.5,20.2-16.8,33.4-20.6v-14c0-11.6,9.4-21,21-21c11.6,0,21,9.4,21,21v14.1
	c30.8,9.1,53.4,37.6,53.4,71.4c0,11.6-9.4,21-21,21c-11.6,0-21-9.4-21-21c0-29.3-36.1-43.5-56-22.1C218.4,195.4,224.1,220,243.3,228
	L243.3,228z"/>
</svg>
