<?xml version="1.0" encoding="utf-8"?>
<!-- Generator: Adobe Illustrator 22.0.0, SVG Export Plug-In . SVG Version: 6.00 Build 0)  -->
<svg version="1.1" id="Capa_1" xmlns="http://www.w3.org/2000/svg" xmlns:xlink="http://www.w3.org/1999/xlink" x="0px" y="0px"
	 viewBox="0 0 512 480" style="enable-background:new 0 0 512 480;" xml:space="preserve">
<g>
	<path d="M48,224H16c-8.8,0-16,7.2-16,16v224c0,8.8,7.2,16,16,16h32c8.8,0,16-7.2,16-16V240C64,231.2,56.8,224,48,224z"/>
	<path d="M501.9,258.5c-16.3-21-46.5-24.7-67.3-8.4l-118,91.8c-8.4,6.6-18.8,10.1-29.5,10.1H176c44.2,0,80-35.8,80-80
		c0-8.8-7.2-16-16-16H96v96v96h213c17.8,0,35.1-5.9,49.1-16.9l135.4-105.3C514.4,309.6,518.1,279.5,501.9,258.5z"/>
	<path d="M272,96c26.5,0,48-21.5,48-48S298.5,0,272,0s-48,21.5-48,48S245.5,96,272,96z M272,32c8.8,0,16,7.2,16,16
		c0,8.8-7.2,16-16,16c-8.8,0-16-7.2-16-16C256,39.2,263.2,32,272,32z"/>
	<path d="M368,128c-26.5,0-48,21.5-48,48s21.5,48,48,48s48-21.5,48-48S394.5,128,368,128z M368,192c-8.8,0-16-7.2-16-16
		c0-8.8,7.2-16,16-16s16,7.2,16,16C384,184.8,376.8,192,368,192z"/>
	<path d="M229.8,220.3c3,2.5,6.6,3.7,10.2,3.7c4.6,0,9.2-2,12.3-5.8l160-192c5.7-6.8,4.7-16.9-2-22.6c-6.8-5.6-16.8-4.7-22.5,2
		l-160,192C222,204.5,223,214.7,229.8,220.3z"/>
</g>
</svg>
