<?xml version="1.0" encoding="utf-8"?>
<!-- Generator: Adobe Illustrator 23.1.0, SVG Export Plug-In . SVG Version: 6.00 Build 0)  -->
<svg version="1.1" id="Layer_1" xmlns="http://www.w3.org/2000/svg" xmlns:xlink="http://www.w3.org/1999/xlink" x="0px" y="0px"
	 viewBox="0 0 600 474" style="enable-background:new 0 0 600 474;" xml:space="preserve">
<style type="text/css">
	.st0{fill:#C1C3CD;}
</style>
<g>
	<path class="st0" d="M359.3,185.8c-11.5,8-25.1,12.2-38.8,12.2c-7.7,0-15.3-1.3-22.7-3.9l-45.6-13.5l51.1,82.5l-30,18.6l-49-99.3
		v217.1h25.8L300,474l62.4-74.5H600V150.4H386.6C383,166.8,373.4,176,359.3,185.8z M474.4,350H349.8v-50.1h124.6V350z M526.3,274.7
		H349.8v-49.4h176.5V274.7z"/>
	<path class="st0" d="M175,399.5V182.4l-60,99.3l-30-18.6l51.9-83.8l-48.2,13.5c-7,2.3-14.1,3.4-21.2,3.4
		c-13.9,0-27.6-4.4-39.4-12.9C10.3,170.4,0,150.4,0,128.4v271.1H175z"/>
	<path class="st0" d="M309.3,160.8c10.1,3.7,20.9,2.3,29.7-3.9c8.8-6.2,13.9-15.8,13.9-26.6c0-10.5-4.9-20.1-13.5-26.3
		c-8.6-6.2-19.2-7.8-29.2-4.5l-0.6,0.2l-85.4,28.9v3.1l84.6,28.8L309.3,160.8z"/>
	<path class="st0" d="M78.9,97.9c-3.7-1.4-7.5-2-11.3-2c-6.5,0-12.9,2-18.5,5.9c-8.8,6.2-13.9,15.8-13.9,26.6
		c0,10.5,4.9,20.1,13.5,26.3c8.6,6.2,19.2,7.8,29.2,4.5l0.8-0.2l96.2-27.4v-3.1L79.3,98.1L78.9,97.9z"/>
	<path class="st0" d="M0,128.4c0-22.1,10.8-42.9,28.9-55.5c18-12.6,41-15.6,61.7-8.2L175,91.5V0H0V128.4z"/>
	<path class="st0" d="M224.3,0v91.9L299.4,66c20.8-6.8,42.9-3.4,60.7,9.4c12.1,8.7,20.6,10.1,24.9,23.7h215V0H224.3z"/>
</g>
</svg>
