<?xml version="1.0" encoding="utf-8"?>
<!-- Generator: Adobe Illustrator 22.0.0, SVG Export Plug-In . SVG Version: 6.00 Build 0)  -->
<svg version="1.1" id="meteor-icon-kit__regular-brands"
	 xmlns="http://www.w3.org/2000/svg" xmlns:xlink="http://www.w3.org/1999/xlink" x="0px" y="0px" viewBox="0 0 800 800"
	 style="enable-background:new 0 0 800 800;" xml:space="preserve">
<style type="text/css">
	.st0{clip-path:url(#SVGID_2_);}
	.st1{fill:#C1C3CD;}
</style>
<g>
	<defs>
		<rect id="SVGID_1_" width="800" height="800"/>
	</defs>
	<clipPath id="SVGID_2_">
		<use xlink:href="#SVGID_1_"  style="overflow:visible;"/>
	</clipPath>
	<g class="st0">
		<path class="st1" d="M260.3,213.1l-70-70c6.2-13.1,9.7-27.7,9.7-43.1C200,44.8,155.2,0,100,0S0,44.8,0,100s44.8,100,100,100
			c15.4,0,30.1-3.5,43.1-9.7l70,70C226.5,242.4,242.4,226.5,260.3,213.1z M609.7,143.1c-6.2-13.1-9.7-27.7-9.7-43.1
			C600,44.8,644.8,0,700,0c55.2,0,100,44.8,100,100s-44.8,100-100,100c-15.4,0-30.1-3.5-43.1-9.7l-70,70
			c-13.4-17.9-29.3-33.8-47.1-47.1L609.7,143.1z M213.1,539.7l-70,70c-13.1-6.2-27.7-9.7-43.1-9.7C44.8,600,0,644.8,0,700
			c0,55.2,44.8,100,100,100s100-44.8,100-100c0-15.4-3.5-30.1-9.7-43.1l70-70C242.4,573.5,226.5,557.6,213.1,539.7z M539.7,586.9
			l70,70c-6.2,13.1-9.7,27.7-9.7,43.1c0,55.2,44.8,100,100,100c55.2,0,100-44.8,100-100c0-55.2-44.8-100-100-100
			c-15.4,0-30.1,3.5-43.1,9.7l-70-70C573.5,557.6,557.6,573.5,539.7,586.9z M400,566.7c-92,0-166.7-74.6-166.7-166.7
			c0-92,74.6-166.7,166.7-166.7c92,0,166.7,74.6,166.7,166.7C566.7,492,492,566.7,400,566.7z M500,400c0,55.2-44.8,100-100,100
			s-100-44.8-100-100s44.8-100,100-100S500,344.8,500,400z M133.3,100c0,18.4-14.9,33.3-33.3,33.3S66.7,118.4,66.7,100
			S81.6,66.7,100,66.7S133.3,81.6,133.3,100z M733.3,100c0,18.4-14.9,33.3-33.3,33.3c-18.4,0-33.3-14.9-33.3-33.3
			s14.9-33.3,33.3-33.3C718.4,66.7,733.3,81.6,733.3,100z M733.3,700c0,18.4-14.9,33.3-33.3,33.3c-18.4,0-33.3-14.9-33.3-33.3
			c0-18.4,14.9-33.3,33.3-33.3C718.4,666.7,733.3,681.6,733.3,700z M133.3,700c0,18.4-14.9,33.3-33.3,33.3S66.7,718.4,66.7,700
			c0-18.4,14.9-33.3,33.3-33.3S133.3,681.6,133.3,700z"/>
	</g>
</g>
</svg>
