<?xml version="1.0" encoding="utf-8"?>
<!-- Generator: Adobe Illustrator 22.0.0, SVG Export Plug-In . SVG Version: 6.00 Build 0)  -->
<svg version="1.1" id="Layer_1" xmlns="http://www.w3.org/2000/svg" xmlns:xlink="http://www.w3.org/1999/xlink" x="0px" y="0px"
	 viewBox="0 0 800 800" style="enable-background:new 0 0 800 800;" xml:space="preserve">
<style type="text/css">
	.st0{fill:none;}
	.st1{fill:#C1C3CD;}
</style>
<title>category</title>
<rect class="st0" width="800" height="800"/>
<path class="st1" d="M400,128.3l88.3,138.3H310L400,128.3 M400,33.3c-11.6,0.5-22.2,6.7-28.3,16.7L220,283.3
	c-5.1,10.5-5.1,22.8,0,33.3c5.6,10.4,16.5,16.8,28.3,16.7H550c11.6-0.5,22.2-6.7,28.3-16.7c6.7-10.1,6.7-23.2,0-33.3L428.3,50
	C422.7,39.6,411.8,33.2,400,33.3z"/>
<path class="st1" d="M716.7,716.7H483.3c-18.4,0-33.3-14.9-33.3-33.3V450c0-18.4,14.9-33.3,33.3-33.3h233.3
	c18.4,0,33.3,14.9,33.3,33.3v233.3C750,701.7,735.1,716.7,716.7,716.7z M516.7,650h166.7V483.3H516.7V650z"/>
<path class="st1" d="M216.7,466.7c55.2,0,100,44.8,100,100c0,55.2-44.8,100-100,100s-100-44.8-100-100
	C116.7,511.4,161.4,466.7,216.7,466.7 M216.7,400C124.6,400,50,474.6,50,566.7s74.6,166.7,166.7,166.7s166.7-74.6,166.7-166.7
	S308.7,400,216.7,400z"/>
</svg>
