<?xml version="1.0" encoding="utf-8"?>
<!-- Generator: Adobe Illustrator 22.0.0, SVG Export Plug-In . SVG Version: 6.00 Build 0)  -->
<svg version="1.1" id="Layer_1" xmlns="http://www.w3.org/2000/svg" xmlns:xlink="http://www.w3.org/1999/xlink" x="0px" y="0px"
	 viewBox="0 0 800 403" style="enable-background:new 0 0 800 403;" xml:space="preserve">
<style type="text/css">
	.st0{fill:#C1C3CD;}
	.st1{fill:none;}
</style>
<g transform="translate(1.000000, 4.000000)">
	<circle class="st0" cx="608.8" cy="311.2" r="70.1"/>
	<circle class="st0" cx="185.3" cy="311.2" r="70.1"/>
	<g>
		<path class="st1" d="M327.6,81.4c-9.2,25.1-27.3,65.6-27.3,65.6h145.5V50.8h-69.7C362.9,50.8,336.4,57,327.6,81.4L327.6,81.4z"/>
		<path class="st1" d="M606.8,51.3H490.1v95.7h192.3l-22.8-68.1C659.6,78.8,640.4,51.3,606.8,51.3L606.8,51.3z"/>
		<g>
			<path class="st1" d="M327.6,81.4c-9.2,25.1-27.3,65.6-27.3,65.6h145.5V50.8h-69.7C362.9,50.8,336.4,57,327.6,81.4L327.6,81.4z"/>
			<path class="st1" d="M606.8,51.3H490.1v95.7h192.3l-22.8-68.1C659.6,78.8,640.4,51.3,606.8,51.3L606.8,51.3z"/>
			<path class="st0" d="M774,233.3c0-28.1-3.7-53.5-35.4-71.7L711,68.7c0-18.4-43.1-63-96.2-63H366.4c-53.1,0-96.1,51.2-96.1,63
				l-40.7,78.2l-36.8,5c-95,0-144.4,57.7-144.4,113.3l-26.3,69.1h47.4c-1.7-7.9-2.6-16-2.6-24.4c0-64.9,53-117.6,118.5-117.6
				c65.5,0,118.5,52.6,118.5,117.6c0,8.4-0.9,16.5-2.6,24.4h191.7c-1.7-7.9-2.6-16-2.6-24.4c0-64.9,53-117.6,118.5-117.6
				c65.5,0,118.5,52.6,118.5,117.6c0,8.4-0.9,16.5-2.6,24.4H774V233.3L774,233.3z M445.8,146.9H300.3c0,0,18.1-40.4,27.3-65.6
				c8.8-24.5,35.3-30.6,48.5-30.6h69.7V146.9L445.8,146.9z M490.2,146.9V51.3h116.6c33.6,0,52.9,27.6,52.9,27.6l22.8,68.1H490.2
				L490.2,146.9z"/>
		</g>
	</g>
</g>
</svg>
