<?xml version="1.0" encoding="utf-8"?>
<!-- Generator: Adobe Illustrator 22.0.0, SVG Export Plug-In . SVG Version: 6.00 Build 0)  -->
<svg version="1.1" id="Layer_1" xmlns="http://www.w3.org/2000/svg" xmlns:xlink="http://www.w3.org/1999/xlink" x="0px" y="0px"
	 viewBox="0 0 800 800" style="enable-background:new 0 0 800 800;" xml:space="preserve">
<style type="text/css">
	.st0{fill:#FFFFFF;}
</style>
<path class="st0" d="M400,66.7C215.9,66.7,66.7,215.9,66.7,400c0,54.7,13.2,106.3,36.5,151.9L67.3,702.5
	c-3.2,13.4,5.1,26.9,18.5,30.1c3.8,0.9,7.8,0.9,11.6,0l150.6-35.9c45.6,23.4,97.2,36.5,151.9,36.5c184.1,0,333.3-149.2,333.3-333.3
	S584.1,66.7,400,66.7z M116.7,400c0-156.5,126.9-283.3,283.3-283.3S683.3,243.5,683.3,400S556.5,683.3,400,683.3
	c-49.5,0-96-12.7-136.4-35c-5.4-3-11.8-3.9-17.8-2.4l-120.3,28.6L154,554.3c1.4-6,0.6-12.4-2.4-17.8
	C129.3,496,116.7,449.5,116.7,400z M308.4,491.6c49.9,49.9,116.4,83.4,190.6,91.3c49.1,5.3,84.3-35.2,84.3-77.2v-29.2
	c0-34.9-22.9-65.6-56.3-75.7l-2.3-0.7l-2.4-0.5l-33.4-6.6c-21.7-5.6-44.8-1.7-63.5,10.7c-10.9-8.6-20.7-18.4-29.3-29.3
	c12.4-18.7,16.3-41.8,10.7-63.5l-6.6-33.4l-0.5-2.4l-0.7-2.3c-10-33.4-40.8-56.3-75.6-56.3h-29.2c-42,0-82.4,35.2-77.2,84.3
	C225.1,375.1,258.5,441.7,308.4,491.6L308.4,491.6z M448.6,449.2c7.5-7.5,18.6-10.3,28.8-7.3l35.2,6.9c12.3,3.7,20.6,15,20.7,27.8
	v29.2c0,16-13,29.1-28.9,27.4c-39.8-4.2-78-17.4-112-38.5c-17.6-10.9-33.9-23.8-48.6-38.5c-14.7-14.7-27.6-31-38.5-48.6
	c-21.1-34-34.2-72.3-38.5-112c-1.7-15.9,11.4-28.9,27.4-28.9h29.2c12.8,0,24.1,8.4,27.8,20.7l6.9,35.2c3.1,10.2,0.3,21.3-7.3,28.8
	l-4.7,4.7c-3.1,3.1-5.3,6.9-6.4,11.1c-1.6,5.8-0.9,12.2,2.5,17.6c9.2,14.8,20,28.4,32.3,40.7c12.3,12.3,26,23.1,40.7,32.3
	c5.4,3.4,11.7,4.1,17.6,2.5c4.2-1.1,8-3.4,11.1-6.4L448.6,449.2L448.6,449.2z"/>
</svg>
