<?xml version="1.0" encoding="utf-8"?>
<!-- Generator: Adobe Illustrator 22.0.0, SVG Export Plug-In . SVG Version: 6.00 Build 0)  -->
<svg version="1.1" id="Layer_1" xmlns="http://www.w3.org/2000/svg" xmlns:xlink="http://www.w3.org/1999/xlink" x="0px" y="0px"
	 viewBox="0 0 20 20" style="enable-background:new 0 0 20 20;" xml:space="preserve">
<style type="text/css">
	.st0{fill:#151A7B;stroke:#151A7B;stroke-width:0.5;}
</style>
<path class="st0" d="M7.4,17.9c-0.3,0-0.6-0.1-0.8-0.3S6.1,17.3,6,17c-0.1-0.3-0.1-0.6-0.1-0.9c0.1-0.3,0.2-0.6,0.4-0.8
	c0.2-0.2,0.5-0.4,0.8-0.4c0.3-0.1,0.6,0,0.9,0.1c0.3,0.1,0.5,0.3,0.7,0.6c0.2,0.3,0.3,0.5,0.3,0.8c0,0.4-0.2,0.8-0.4,1.1
	C8.2,17.8,7.8,17.9,7.4,17.9z M7.4,15.6c-0.2,0-0.3,0-0.5,0.1c-0.1,0.1-0.2,0.2-0.3,0.4c-0.1,0.2-0.1,0.3,0,0.5
	c0,0.2,0.1,0.3,0.2,0.4c0.1,0.1,0.3,0.2,0.4,0.2c0.2,0,0.3,0,0.5,0C7.9,17.1,8,17,8.1,16.9c0.1-0.1,0.1-0.3,0.1-0.5
	c0-0.2-0.1-0.4-0.2-0.6C7.8,15.7,7.6,15.6,7.4,15.6z"/>
<path class="st0" d="M15.5,17.9c-0.3,0-0.6-0.1-0.8-0.3c-0.3-0.2-0.4-0.4-0.6-0.7C14,16.7,14,16.4,14,16.1c0.1-0.3,0.2-0.6,0.4-0.8
	s0.5-0.4,0.8-0.4c0.3-0.1,0.6,0,0.9,0.1c0.3,0.1,0.5,0.3,0.7,0.6c0.2,0.3,0.3,0.5,0.3,0.8c0,0.4-0.2,0.8-0.4,1.1
	C16.3,17.8,15.9,17.9,15.5,17.9z M15.5,15.6c-0.2,0-0.3,0-0.5,0.1c-0.1,0.1-0.2,0.2-0.3,0.4c-0.1,0.2-0.1,0.3,0,0.5
	c0,0.2,0.1,0.3,0.2,0.4c0.1,0.1,0.3,0.2,0.4,0.2c0.2,0,0.3,0,0.5,0c0.2-0.1,0.3-0.2,0.4-0.3c0.1-0.1,0.1-0.3,0.1-0.5
	c0-0.2-0.1-0.4-0.2-0.6C16,15.7,15.7,15.6,15.5,15.6z"/>
<path class="st0" d="M17,14.2H7.6c-0.5,0-0.9-0.2-1.3-0.5c-0.4-0.3-0.6-0.7-0.7-1.2l-2-9.5c0-0.1-0.1-0.2-0.2-0.3
	C3.4,2.7,3.2,2.7,3.1,2.7H1.8c0,0-0.1,0-0.1,0c0,0-0.1,0-0.1-0.1c0,0-0.1-0.1-0.1-0.1c0,0,0-0.1,0-0.1c0,0,0-0.1,0-0.1
	c0,0,0-0.1,0.1-0.1c0,0,0.1-0.1,0.1-0.1c0,0,0.1,0,0.1,0h1.3c0.3,0,0.5,0.1,0.7,0.3c0.2,0.2,0.4,0.4,0.4,0.7l2,9.5
	c0.1,0.3,0.2,0.6,0.5,0.8c0.2,0.2,0.5,0.3,0.9,0.3H17c0.1,0,0.2,0,0.2,0.1c0.1,0.1,0.1,0.1,0.1,0.2s0,0.2-0.1,0.2
	C17.2,14.2,17.1,14.2,17,14.2z"/>
<path class="st0" d="M16.5,12.2H7.4c-0.1,0-0.2,0-0.2-0.1C7.1,12,7,11.9,7,11.8s0-0.2,0.1-0.2c0.1-0.1,0.1-0.1,0.2-0.1h9.1
	c0.1,0,0.2,0,0.3-0.1c0.1-0.1,0.2-0.2,0.2-0.3L18.1,5c0-0.1,0-0.1,0-0.2S18,4.6,17.9,4.6c0-0.1-0.1-0.1-0.2-0.1c-0.1,0-0.1,0-0.2,0
	H5.7c-0.1,0-0.2,0-0.2-0.1C5.4,4.2,5.3,4.1,5.3,4c0-0.1,0-0.2,0.1-0.2c0.1-0.1,0.2-0.1,0.2-0.1h11.9c0.2,0,0.3,0,0.5,0.1
	c0.2,0.1,0.3,0.2,0.4,0.3c0.1,0.1,0.2,0.3,0.2,0.5c0,0.2,0.1,0.3,0,0.5l-1.1,6.1c0,0.3-0.2,0.5-0.4,0.7C17,12.1,16.8,12.2,16.5,12.2
	z"/>
</svg>
