<?xml version="1.0" encoding="utf-8"?>
<!-- Generator: Adobe Illustrator 22.0.0, SVG Export Plug-In . SVG Version: 6.00 Build 0)  -->
<svg version="1.1" id="Capa_1" xmlns="http://www.w3.org/2000/svg" xmlns:xlink="http://www.w3.org/1999/xlink" x="0px" y="0px"
	 viewBox="0 0 297 297" style="enable-background:new 0 0 297 297;" xml:space="preserve">
<style type="text/css">
	.st0{fill:#151A7B;}
</style>
<g>
	<path class="st0" d="M272.1,108.3l4.6-4.6c3.9-3.9,3.9-10.3,0-14.2c-3.9-3.9-10.3-3.9-14.2,0l-4.7,4.7l-9.1-36.3
		c-3.3-13-16.3-23.3-29.8-23.3H78.1c-13.4,0-26.5,10.2-29.8,23.3l-9.1,36.3l-4.7-4.7c-3.9-3.9-10.3-3.9-14.2,0s-3.9,10.3,0,14.2
		l4.6,4.6C10.2,115.5,0,130.7,0,148.1v35.4c0,14.3,6.8,27,17.3,35.1v17.6c0,14.4,11.7,26.2,26.2,26.2h19.7
		c14.4,0,26.2-11.7,26.2-26.2v-8.4h118.3v8.4c0,14.4,11.7,26.2,26.2,26.2h19.7c14.4,0,26.2-11.7,26.2-26.2v-17.6
		c10.5-8.1,17.3-20.8,17.3-35.1v-35.4C297,130.7,286.8,115.5,272.1,108.3z M58.3,100.7l9.5-38c1-4.1,6-8,10.2-8h140.8
		c4.2,0,9.2,3.9,10.2,8l9.5,38c0.3,1.1,0.2,1.9-0.1,2.4c-0.4,0.4-1.2,0.7-2.3,0.7H60.8c-1.1,0-1.9-0.3-2.3-0.7
		C58.1,102.7,58.1,101.8,58.3,100.7z M20.1,148.1c0-13.3,10.8-24.2,24.2-24.2h208.4c13.3,0,24.2,10.8,24.2,24.2v35.4
		c0,13.3-10.8,24.2-24.2,24.2H44.3c-13.3,0-24.2-10.8-24.2-24.2C20.1,183.5,20.1,148.1,20.1,148.1z M69.2,236.2c0,3.3-2.8,6-6,6
		H43.5c-3.3,0-6-2.8-6-6v-9c2.2,0.3,4.5,0.5,6.9,0.5h24.9L69.2,236.2L69.2,236.2z M259.6,236.2c0,3.3-2.8,6-6,6h-19.7
		c-3.3,0-6-2.8-6-6v-8.4h24.9c2.3,0,4.6-0.2,6.9-0.5L259.6,236.2L259.6,236.2z"/>
	<path class="st0" d="M113.9,175.9h69.2c5.6,0,10.1-4.5,10.1-10.1s-4.5-10.1-10.1-10.1h-69.2c-5.6,0-10.1,4.5-10.1,10.1
		C103.8,171.4,108.3,175.9,113.9,175.9z"/>
	<path class="st0" d="M62,193.2c15.1,0,27.4-12.3,27.4-27.4c0-15.1-12.3-27.4-27.4-27.4s-27.4,12.3-27.4,27.4S46.9,193.2,62,193.2z
		 M62,158.6c4,0,7.2,3.2,7.2,7.2S66,173,62,173s-7.2-3.2-7.2-7.2C54.7,161.8,58,158.6,62,158.6z"/>
	<path class="st0" d="M235,193.2c15.1,0,27.4-12.3,27.4-27.4c0-15.1-12.3-27.4-27.4-27.4s-27.4,12.3-27.4,27.4
		S219.9,193.2,235,193.2z M235,158.6c4,0,7.2,3.2,7.2,7.2S239,173,235,173s-7.2-3.2-7.2-7.2S231,158.6,235,158.6z"/>
</g>
</svg>
