<?xml version="1.0" encoding="utf-8"?>
<!-- Generator: Adobe Illustrator 22.0.0, SVG Export Plug-In . SVG Version: 6.00 Build 0)  -->
<svg version="1.1" id="Layer_1" xmlns="http://www.w3.org/2000/svg" xmlns:xlink="http://www.w3.org/1999/xlink" x="0px" y="0px"
	 viewBox="0 0 64 64" style="enable-background:new 0 0 64 64;" xml:space="preserve">
<style type="text/css">
	.st0{fill:none;}
	.st1{fill:none;stroke:#151A7B;stroke-width:2;}
	.st2{fill:none;stroke:#3C3C3C;stroke-width:2;}
	.st3{fill:#3C3C3C;}
	.st4{fill:#151A7B;}
</style>
<path class="st0" d="M0,0h64v64H0V0z"/>
<path class="st1" d="M8,13h12c0.6,0,1,0.4,1,1v12c0,0.6-0.4,1-1,1H8c-0.6,0-1-0.4-1-1V14C7,13.4,7.4,13,8,13z"/>
<path class="st2" d="M21,37v14H7V37H21z"/>
<path class="st3" d="M24,46h34v2H24V46z"/>
<path class="st4" d="M24,22h34v2H24V22z"/>
<path class="st3" d="M24,50h34v2H24V50z"/>
<path class="st4" d="M24,26h34v2H24V26z"/>
<path class="st3" d="M24,42h34v2H24V42z"/>
<path class="st4" d="M24,18h34v2H24V18z"/>
<path class="st3" d="M24,36h26v4H24V36z"/>
<path class="st4" d="M24,12h26v4H24V12z"/>
</svg>
