<?xml version="1.0" encoding="utf-8"?>
<!-- Generator: Adobe Illustrator 22.0.0, SVG Export Plug-In . SVG Version: 6.00 Build 0)  -->
<svg version="1.1" id="Layer_1" xmlns="http://www.w3.org/2000/svg" xmlns:xlink="http://www.w3.org/1999/xlink" x="0px" y="0px"
	 viewBox="0 0 549.4 463.5" style="enable-background:new 0 0 549.4 463.5;" xml:space="preserve">
<style type="text/css">
	.st0{fill:#FFFFFF;}
	.st1{fill:none;stroke:#FFFFFF;stroke-width:7;stroke-miterlimit:10;}
</style>
<g>
	<g>
		<path class="st0" d="M14.7,260.4v-57.1h15.4v44.6h22v12.5H14.7z"/>
		<path class="st0" d="M68.2,198.3c2.2,0,4.1,0.5,5.7,1.4s2.4,2.7,2.4,5.4c0,2.6-0.8,4.4-2.4,5.3c-1.6,0.9-3.5,1.4-5.7,1.4
			s-4.1-0.5-5.7-1.4s-2.4-2.7-2.4-5.3c0-2.7,0.8-4.5,2.4-5.4C64,198.7,65.9,198.3,68.2,198.3z M75.7,216.1v44.3H60.5v-44.3
			L75.7,216.1L75.7,216.1z"/>
		<path class="st0" d="M119.3,246.8c0,2.8-0.6,5.3-1.9,7.5c-1.3,2.2-3.2,3.9-6,5.1c-2.7,1.2-6.4,1.8-10.8,1.8c-3.2,0-6-0.2-8.5-0.5
			s-5-1-7.6-2v-12.2c2.8,1.3,5.6,2.2,8.5,2.8s5.2,0.8,6.8,0.8c1.7,0,3-0.2,3.8-0.6c0.8-0.4,1.2-0.9,1.2-1.7c0-0.7-0.3-1.2-0.8-1.7
			s-1.5-1-2.9-1.6s-3.3-1.4-5.8-2.4c-2.4-1-4.5-2.1-6.1-3.3s-2.8-2.6-3.7-4.3c-0.8-1.7-1.2-3.7-1.2-6.1c0-4.3,1.7-7.6,5-9.8
			s7.7-3.3,13.2-3.3c2.9,0,5.7,0.3,8.2,1c2.6,0.6,5.2,1.6,8,2.8l-4.2,9.8c-2.2-1-4.4-1.8-6.6-2.4c-2.2-0.6-4-0.9-5.4-0.9
			c-1.2,0-2.1,0.2-2.8,0.5c-0.7,0.3-1,0.8-1,1.4c0,0.5,0.2,1,0.7,1.4s1.3,0.9,2.6,1.4c1.3,0.5,3.1,1.3,5.6,2.3
			c2.6,1,4.7,2.2,6.4,3.3c1.7,1.2,2.9,2.6,3.8,4.3C118.9,242,119.3,244.2,119.3,246.8z"/>
		<path class="st0" d="M149.4,249.1c1.4,0,2.6-0.1,3.8-0.4c1.1-0.3,2.3-0.7,3.6-1.1v11.1c-1.7,0.7-3.4,1.3-5.3,1.8
			c-1.9,0.5-4.2,0.7-7.1,0.7c-2.9,0-5.4-0.4-7.6-1.3c-2.2-0.9-3.9-2.5-5.1-4.7c-1.2-2.2-1.8-5.3-1.8-9.3v-18.2h-5.4v-6.2l6.8-4.8
			l3.9-9.3h10v8.9h10.9v11.4h-10.9v17.2c0,1.4,0.4,2.5,1.1,3.2C147.1,248.7,148.1,249.1,149.4,249.1z"/>
		<path class="st0" d="M206.5,202.5c3.6,0,6.7,0.5,9.3,1.6s4.6,2.6,6,4.6s2.1,4.5,2.1,7.3c0,3.3-1,6.2-2.9,8.6
			c-1.9,2.4-4.4,4.5-7.4,6.4l7.8,7.4c0.9-1.4,1.7-3,2.4-4.7s1.3-3.5,1.6-5.4h15.9c-0.8,3.9-2.1,7.6-3.8,11.2
			c-1.7,3.6-3.6,6.6-5.5,8.9l12.5,12h-19.8l-3.9-4c-1.4,0.9-2.9,1.7-4.3,2.4c-1.4,0.7-3.1,1.3-5.1,1.7c-2,0.4-4.6,0.6-7.8,0.6
			c-4.5,0-8.2-0.7-11.3-2.2s-5.4-3.5-7-6s-2.4-5.3-2.4-8.4c0-2.3,0.4-4.4,1.2-6.3c0.8-1.9,2-3.7,3.6-5.3s3.5-2.9,5.8-4.1
			c-1.1-1.2-2-2.5-2.8-3.8s-1.4-2.7-1.8-4.2c-0.4-1.5-0.6-3.1-0.6-4.8c0-2.6,0.7-5,2.1-7c1.4-2,3.4-3.7,6.1-4.8
			S202.5,202.5,206.5,202.5z M201.8,237.2c-0.7,0.5-1.3,1.1-1.8,1.8s-0.8,1.3-1.1,2.1c-0.2,0.7-0.3,1.5-0.3,2.3c0,1.6,0.6,3,1.8,4
			s2.7,1.6,4.6,1.6c1.5,0,2.8-0.2,3.9-0.6c1.1-0.4,2-0.8,2.6-1.3L201.8,237.2z M206.2,212.5c-1.1,0-2.1,0.3-2.9,1
			c-0.8,0.6-1.2,1.7-1.2,3.1c0,1.1,0.3,2.2,1,3.3c0.7,1,1.5,2,2.4,2.8c1.5-0.8,2.6-1.8,3.4-3s1.2-2.4,1.2-3.6c0-1.3-0.4-2.2-1.1-2.8
			C208.3,212.8,207.4,212.5,206.2,212.5z"/>
		<path class="st0" d="M308.3,243c0,3.1-0.8,6-2.3,8.8c-1.6,2.8-4,5-7.3,6.7s-7.5,2.6-12.8,2.6c-2.6,0-4.9-0.1-6.9-0.4
			c-2-0.2-3.8-0.6-5.5-1.2c-1.7-0.5-3.5-1.2-5.3-2.1v-13.8c3.1,1.6,6.2,2.8,9.4,3.6c3.2,0.8,6,1.2,8.6,1.2c1.5,0,2.8-0.2,3.8-0.5
			c1-0.4,1.7-0.9,2.2-1.5s0.7-1.4,0.7-2.2c0-1-0.3-1.8-1-2.5s-1.8-1.4-3.3-2.2s-3.5-1.7-6-2.8c-2.1-1-4-2-5.7-3s-3.2-2.2-4.4-3.6
			c-1.2-1.3-2.1-2.9-2.8-4.7c-0.7-1.8-1-3.9-1-6.4c0-3.7,0.9-6.8,2.7-9.2c1.8-2.5,4.3-4.4,7.6-5.6s7-1.9,11.2-1.9
			c3.7,0,7.1,0.4,10.1,1.3c3,0.8,5.7,1.8,8,2.9l-4.7,11.9c-2.4-1.1-4.9-2-7.2-2.7c-2.4-0.7-4.6-1-6.6-1c-1.3,0-2.4,0.2-3.3,0.5
			c-0.8,0.3-1.5,0.8-1.9,1.3s-0.6,1.2-0.6,1.9c0,0.9,0.3,1.7,1,2.4s1.8,1.5,3.5,2.3c1.6,0.8,3.8,1.9,6.7,3.2c2.8,1.3,5.2,2.6,7.1,4
			s3.4,3.2,4.5,5.2C307.8,237.5,308.3,240,308.3,243z"/>
		<path class="st0" d="M336.1,215.3c4.3,0,8,0.7,11.1,2.2s5.5,3.7,7.2,6.7s2.5,6.7,2.5,11.3v6.8h-27.3c0.1,2.3,1,4.2,2.6,5.7
			s4,2.2,7.1,2.2c2.8,0,5.3-0.3,7.6-0.8s4.7-1.4,7.1-2.5v11c-2.1,1.1-4.5,1.9-7,2.5c-2.5,0.5-5.7,0.8-9.6,0.8c-4.5,0-8.4-0.8-12-2.4
			c-3.5-1.6-6.3-4-8.3-7.4c-2-3.3-3-7.6-3-12.9c0-5.3,0.9-9.7,2.7-13.1c1.8-3.4,4.4-6,7.7-7.6C328,216.1,331.8,215.3,336.1,215.3z
			 M336.7,225.7c-1.8,0-3.3,0.6-4.5,1.7s-1.9,2.9-2.1,5.3h13.1c0-1.3-0.3-2.5-0.8-3.6s-1.2-1.9-2.2-2.5
			C339.3,226,338.1,225.7,336.7,225.7z"/>
		<path class="st0" d="M380.9,260.4h-15.3v-60.8h15.3V260.4z"/>
		<path class="st0" d="M406.8,260.4h-15.3v-60.8h15.3V260.4z"/>
	</g>
</g>
<path class="st1" d="M113.7,302.6c29.5,85.9,111,147.6,206.9,147.6c120.8,0,218.8-97.9,218.8-218.8S441.5,12.7,320.6,12.7
	c-96.5,0-178.4,62.5-207.5,149.3"/>
</svg>
