<?xml version="1.0" encoding="utf-8"?>
<!-- Generator: Adobe Illustrator 22.0.0, SVG Export Plug-In . SVG Version: 6.00 Build 0)  -->
<svg version="1.1" id="Layer_1" xmlns="http://www.w3.org/2000/svg" xmlns:xlink="http://www.w3.org/1999/xlink" x="0px" y="0px"
	 viewBox="0 0 800 800" style="enable-background:new 0 0 800 800;" xml:space="preserve">
<style type="text/css">
	.st0{fill:#D60040;}
</style>
<path class="st0" d="M675.9,322.4c-1.6-55.2-27.1-100.5-63.2-128.2c-46.4-35.7-110.4-42.3-163.5-3.3c-17.5,12.9-34,30.7-48.2,54.2
	c-14.2-23.4-30.6-41.3-48.2-54.2c-53.2-39-117.1-32.4-163.6,3.3c-36.1,27.7-61.6,73.1-63.2,128.3c-0.9,29.3,3.6,62,19.7,95.1
	c25.3,51.9,143.9,167.4,254.3,267.1l0.9,1l0,0l0.1,0l0.9-1c110.4-99.7,229-215.1,254.3-267.1C672.3,384.5,676.8,351.8,675.9,322.4
	L675.9,322.4z"/>
</svg>
