<?xml version="1.0" encoding="utf-8"?>
<!-- Generator: Adobe Illustrator 22.0.0, SVG Export Plug-In . SVG Version: 6.00 Build 0)  -->
<svg version="1.1" id="Layer_1" xmlns="http://www.w3.org/2000/svg" xmlns:xlink="http://www.w3.org/1999/xlink" x="0px" y="0px"
	 viewBox="0 0 268 315" style="enable-background:new 0 0 268 315;" xml:space="preserve">
<style type="text/css">
	.st0{fill:#151A7B;}
</style>
<g>
	<g>
		<g>
			<path class="st0" d="M136.5,0C72.3,0,20.1,52.2,20.1,116.4c0,62.1,106.1,190.5,110.6,195.9c1.4,1.7,3.5,2.7,5.8,2.7
				c2.2,0,4.3-1,5.8-2.7c4.5-5.4,110.6-133.8,110.6-195.9C252.9,52.2,200.7,0,136.5,0z M136.5,295.6c-9.4-11.7-29-36.8-48.3-65.4
				c-34.7-51.4-53.1-90.7-53.1-113.8C35.1,60.5,80.6,15,136.5,15s101.4,45.5,101.4,101.4c0,23.1-18.4,62.4-53.1,113.8
				C165.5,258.8,145.9,283.8,136.5,295.6z"/>
			<path class="st0" d="M174.7,214c-3.4-2.3-8.1-1.4-10.4,2c-10.1,15-21.5,30.7-33.7,46.7c-2.5,3.3-1.9,8,1.4,10.5
				c1.4,1,3,1.5,4.6,1.5c2.3,0,4.5-1,6-2.9c12.4-16.2,23.9-32.2,34.2-47.4C179,220.9,178.1,216.3,174.7,214z"/>
			<path class="st0" d="M136.5,57.5C102.6,57.5,75,85.1,75,119s27.6,61.5,61.5,61.5S198,152.9,198,119S170.4,57.5,136.5,57.5z
				 M136.5,165.5c-25.6,0-46.5-20.9-46.5-46.5s20.9-46.5,46.5-46.5S183,93.4,183,119S162.1,165.5,136.5,165.5z"/>
		</g>
	</g>
</g>
</svg>
