<?xml version="1.0" encoding="utf-8"?>
<!-- Generator: Adobe Illustrator 22.0.0, SVG Export Plug-In . SVG Version: 6.00 Build 0)  -->
<svg version="1.1" id="Layer_1" xmlns="http://www.w3.org/2000/svg" xmlns:xlink="http://www.w3.org/1999/xlink" x="0px" y="0px"
	 viewBox="0 0 541.4 457.5" style="enable-background:new 0 0 541.4 457.5;" xml:space="preserve">
<style type="text/css">
	.st0{fill:#FFFFFF;}
	.st1{fill:#313660;}
</style>
<g>
	<path class="st0" d="M297.6,456.6c-13.5-0.6-26.7-3.2-39.7-6.8c-35.1-9.6-66.2-26.7-93-51.4c-32.4-30-54.4-66.2-65.5-109
		c-0.7-2.5-1.5-5-2-7.6c-0.2-1.1-1.5-2.8,0.8-3.3c2.2-0.5,2.4,1.4,2.7,2.8c1.3,6.6,3.1,13.1,5.3,19.4
		c21.4,63.3,62.6,108.6,123.7,135.6c33.3,14.7,68.3,20.3,104.5,17.1c64.5-5.8,117-34.3,157.2-85c22-27.8,35.9-59.4,42.6-94.2
		c4.2-21.7,5.4-43.7,2.5-65.6c-10-75.9-48.4-132.9-115.1-170.4C394.5,23,365.1,14.5,334,12.6c-80.8-4.8-145.8,25.3-195.2,89.1
		c-19,24.5-31.3,52.6-37.9,83c-0.3,1.3-0.3,3.2-2.6,2.8c-2.5-0.4-1.1-2.2-0.9-3.2C108.9,134.7,134,93.2,173,60.5
		c29.4-24.6,63.1-40.6,100.9-47.9c24.5-4.8,49.2-5.7,73.8-2C416.2,20.9,469.4,55.4,507,113.7c17.8,27.5,28.4,57.8,32.6,90.3
		C552,302.1,500.4,394.8,412,436.5c-21.8,10.3-44.7,16.9-68.7,19.5c-1.9,0.2-3.6,1-5.5,0.6C324.4,456.6,311,456.6,297.6,456.6z"/>
	<path class="st1" d="M297.6,456.6c13.4,0,26.8-0.1,40.2-0.1C324.4,457.8,311,457.9,297.6,456.6z"/>
</g>
<g>
	<g>
		<path class="st0" d="M25.6,262.8v-57.1H41v44.6h22v12.5H25.6z"/>
		<path class="st0" d="M79.1,200.7c2.2,0,4.1,0.5,5.7,1.4s2.4,2.7,2.4,5.4c0,2.6-0.8,4.4-2.4,5.3c-1.6,0.9-3.5,1.4-5.7,1.4
			s-4.1-0.5-5.7-1.4s-2.4-2.7-2.4-5.3c0-2.7,0.8-4.5,2.4-5.4C74.9,201.1,76.8,200.7,79.1,200.7z M86.6,218.5v44.3H71.4v-44.3
			L86.6,218.5L86.6,218.5z"/>
		<path class="st0" d="M130.2,249.2c0,2.8-0.6,5.3-1.9,7.5c-1.3,2.2-3.2,3.9-6,5.1c-2.7,1.2-6.4,1.8-10.8,1.8c-3.2,0-6-0.2-8.5-0.5
			s-5-1-7.6-2v-12.2c2.8,1.3,5.6,2.2,8.5,2.8s5.2,0.8,6.8,0.8c1.7,0,3-0.2,3.8-0.6c0.8-0.4,1.2-0.9,1.2-1.7c0-0.7-0.3-1.2-0.8-1.7
			s-1.5-1-2.9-1.6s-3.3-1.4-5.8-2.4c-2.4-1-4.5-2.1-6.1-3.3s-2.8-2.6-3.7-4.3c-0.8-1.7-1.2-3.7-1.2-6.1c0-4.3,1.7-7.6,5-9.8
			s7.7-3.3,13.2-3.3c2.9,0,5.7,0.3,8.2,1c2.6,0.6,5.2,1.6,8,2.8l-4.2,9.8c-2.2-1-4.4-1.8-6.6-2.4c-2.2-0.6-4-0.9-5.4-0.9
			c-1.2,0-2.1,0.2-2.8,0.5c-0.7,0.3-1,0.8-1,1.4c0,0.5,0.2,1,0.7,1.4s1.3,0.9,2.6,1.4c1.3,0.5,3.1,1.3,5.6,2.3
			c2.6,1,4.7,2.2,6.4,3.3c1.7,1.2,2.9,2.6,3.8,4.3C129.8,244.4,130.2,246.6,130.2,249.2z"/>
		<path class="st0" d="M160.3,251.5c1.4,0,2.6-0.1,3.8-0.4c1.1-0.3,2.3-0.7,3.6-1.1v11.1c-1.7,0.7-3.4,1.3-5.3,1.8
			c-1.9,0.5-4.2,0.7-7.1,0.7c-2.9,0-5.4-0.4-7.6-1.3s-3.9-2.5-5.1-4.7c-1.2-2.2-1.8-5.3-1.8-9.3v-18.2h-5.4v-6.2l6.8-4.8l3.9-9.3h10
			v8.9H167v11.4h-10.9v17.2c0,1.4,0.4,2.5,1.1,3.2C158,251.1,159,251.5,160.3,251.5z"/>
		<path class="st0" d="M217.4,204.9c3.6,0,6.7,0.5,9.3,1.6s4.6,2.6,6,4.6s2.1,4.5,2.1,7.3c0,3.3-1,6.2-2.9,8.6
			c-1.9,2.4-4.4,4.5-7.4,6.4l7.8,7.4c0.9-1.4,1.7-3,2.4-4.7s1.3-3.5,1.6-5.4h15.9c-0.8,3.9-2.1,7.6-3.8,11.2
			c-1.7,3.6-3.6,6.6-5.5,8.9l12.5,12h-19.8l-3.9-4c-1.4,0.9-2.9,1.7-4.3,2.4c-1.4,0.7-3.1,1.3-5.1,1.7c-2,0.4-4.6,0.6-7.8,0.6
			c-4.5,0-8.2-0.7-11.3-2.2s-5.4-3.5-7-6s-2.4-5.3-2.4-8.4c0-2.3,0.4-4.4,1.2-6.3c0.8-1.9,2-3.7,3.6-5.3s3.5-2.9,5.8-4.1
			c-1.1-1.2-2-2.5-2.8-3.8s-1.4-2.7-1.8-4.2c-0.4-1.5-0.6-3.1-0.6-4.8c0-2.6,0.7-5,2.1-7c1.4-2,3.4-3.7,6.1-4.8
			S213.4,204.9,217.4,204.9z M212.7,239.6c-0.7,0.5-1.3,1.1-1.8,1.8s-0.8,1.3-1.1,2.1c-0.2,0.7-0.3,1.5-0.3,2.3c0,1.6,0.6,3,1.8,4
			s2.7,1.6,4.6,1.6c1.5,0,2.8-0.2,3.9-0.6c1.1-0.4,2-0.8,2.6-1.3L212.7,239.6z M217.1,214.9c-1.1,0-2.1,0.3-2.9,1
			c-0.8,0.6-1.2,1.7-1.2,3.1c0,1.1,0.3,2.2,1,3.3c0.7,1,1.5,2,2.4,2.8c1.5-0.8,2.6-1.8,3.4-3s1.2-2.4,1.2-3.6c0-1.3-0.4-2.2-1.1-2.8
			C219.2,215.2,218.3,214.9,217.1,214.9z"/>
		<path class="st0" d="M319.2,245.4c0,3.1-0.8,6-2.3,8.8c-1.6,2.8-4,5-7.3,6.7c-3.3,1.7-7.5,2.6-12.8,2.6c-2.6,0-4.9-0.1-6.9-0.4
			c-2-0.2-3.8-0.6-5.5-1.2c-1.7-0.5-3.5-1.2-5.3-2.1V246c3.1,1.6,6.2,2.8,9.4,3.6c3.2,0.8,6,1.2,8.6,1.2c1.5,0,2.8-0.2,3.8-0.5
			c1-0.4,1.7-0.9,2.2-1.5s0.7-1.4,0.7-2.2c0-1-0.3-1.8-1-2.5s-1.8-1.4-3.3-2.2s-3.5-1.7-6-2.8c-2.1-1-4-2-5.7-3s-3.2-2.2-4.4-3.6
			c-1.2-1.3-2.1-2.9-2.8-4.7c-0.7-1.8-1-3.9-1-6.4c0-3.7,0.9-6.8,2.7-9.2c1.8-2.5,4.3-4.4,7.6-5.6s7-1.9,11.2-1.9
			c3.7,0,7.1,0.4,10.1,1.3c3,0.8,5.7,1.8,8,2.9l-4.7,11.9c-2.4-1.1-4.9-2-7.2-2.7c-2.4-0.7-4.6-1-6.6-1c-1.3,0-2.4,0.2-3.3,0.5
			c-0.8,0.3-1.5,0.8-1.9,1.3s-0.6,1.2-0.6,1.9c0,0.9,0.3,1.7,1,2.4s1.8,1.5,3.5,2.3c1.6,0.8,3.8,1.9,6.7,3.2c2.8,1.3,5.2,2.6,7.1,4
			s3.4,3.2,4.5,5.2C318.7,239.9,319.2,242.4,319.2,245.4z"/>
		<path class="st0" d="M347,217.7c4.3,0,8,0.7,11.1,2.2s5.5,3.7,7.2,6.7s2.5,6.7,2.5,11.3v6.8h-27.3c0.1,2.3,1,4.2,2.6,5.7
			s4,2.2,7.1,2.2c2.8,0,5.3-0.3,7.6-0.8s4.7-1.4,7.1-2.5v11c-2.1,1.1-4.5,1.9-7,2.5c-2.5,0.5-5.7,0.8-9.6,0.8c-4.5,0-8.4-0.8-12-2.4
			c-3.5-1.6-6.3-4-8.3-7.4c-2-3.3-3-7.6-3-12.9c0-5.3,0.9-9.7,2.7-13.1c1.8-3.4,4.4-6,7.7-7.6C338.9,218.5,342.7,217.7,347,217.7z
			 M347.6,228.1c-1.8,0-3.3,0.6-4.5,1.7s-1.9,2.9-2.1,5.3h13.1c0-1.3-0.3-2.5-0.8-3.6s-1.2-1.9-2.2-2.5
			C350.2,228.4,349,228.1,347.6,228.1z"/>
		<path class="st0" d="M391.8,262.8h-15.3V202h15.3V262.8z"/>
		<path class="st0" d="M417.7,262.8h-15.3V202h15.3V262.8z"/>
	</g>
</g>
</svg>
