<?xml version="1.0" encoding="utf-8"?>
<!-- Generator: Adobe Illustrator 22.0.0, SVG Export Plug-In . SVG Version: 6.00 Build 0)  -->
<svg version="1.1" id="Layer_1" xmlns="http://www.w3.org/2000/svg" xmlns:xlink="http://www.w3.org/1999/xlink" x="0px" y="0px"
	 viewBox="0 0 561.1 273.8" style="enable-background:new 0 0 561.1 273.8;" xml:space="preserve">
<style type="text/css">
	.st0{fill-rule:evenodd;clip-rule:evenodd;fill:#FF0000;}
	.st1{fill-rule:evenodd;clip-rule:evenodd;fill:#DED9D3;}
	.st2{fill-rule:evenodd;clip-rule:evenodd;fill:#B3AAA2;}
	.st3{opacity:0.27;fill-rule:evenodd;clip-rule:evenodd;fill:#070606;}
	.st4{fill-rule:evenodd;clip-rule:evenodd;}
	.st5{fill-rule:evenodd;clip-rule:evenodd;fill:#423536;}
	.st6{filter:url(#Adobe_OpacityMaskFilter);}
	.st7{fill:url(#SVGID_2_);}
	.st8{mask:url(#SVGID_1_);fill-rule:evenodd;clip-rule:evenodd;fill:#FFFFFF;}
</style>
<polygon class="st0" points="130.9,55.7 133.6,50.8 136.4,46 130.9,46 125.4,46 128.1,50.8 "/>
<polygon class="st0" points="130.9,224.3 133.6,229.2 136.4,234.1 130.9,234.1 125.4,234.1 128.1,229.2 "/>
<polygon class="st0" points="46.6,140 41.7,137.2 36.8,134.5 36.8,140 36.8,145.5 41.7,142.8 "/>
<polygon class="st0" points="71.3,80.4 69.8,75 68.3,69.6 64.4,73.5 60.5,77.4 65.9,78.9 "/>
<polygon class="st0" points="71.3,199.6 65.9,201.1 60.5,202.6 64.4,206.5 68.3,210.4 69.8,205 "/>
<path class="st0" d="M37.9,110.7c6.5-20.6,19.6-38.2,36.9-50.4l4.7,2c-17.5,11.6-30.9,29-37.4,49.4L37.9,110.7z M46,188
	c-8-14.2-12.6-30.6-12.6-48c0-3.8,0.2-7.6,0.7-11.3l4.6-1.5c-0.6,4.2-0.9,8.5-0.9,12.9c0,16.6,4.4,32.2,12,45.7L46,188z
	 M106.9,234.5c-20.4-5.1-38.2-16.7-51.1-32.4l2.1-4.3c12.5,15.7,29.9,27.4,50,32.5L106.9,234.5z M180.3,224
	c-14.5,8.5-31.4,13.5-49.4,13.5c-2.1,0-4.1-0.1-6.2-0.2l-1.7-4.5c2.6,0.2,5.2,0.3,7.8,0.3c14.4,0,28.1-3.3,40.3-9.1H180.3z
	 M157.9,46.3c13.2,3.8,25.3,10.3,35.5,18.9c-1.8,0.4-3.6,0.8-5.5,1.1c-9.1-7.1-19.6-12.5-31-15.9L157.9,46.3z M130.9,42.5
	c3,0,5.9,0.1,8.8,0.4l1.6,4.5c-3.4-0.4-6.9-0.6-10.5-0.6c-15,0-29.1,3.5-41.7,9.8l-2.4-3.6C100,46.3,115,42.5,130.9,42.5z"/>
<path class="st0" d="M194.2,224l9.3,14.8c6-4.4,11.6-9.3,16.7-14.8H194.2z"/>
<path class="st0" d="M104,243.4c-23.6-6.1-43.4-19.7-57.4-37.7l9.2-14.5l-26.8,17c16.3,24.3,41.2,42.8,71.5,50.5L104,243.4z"/>
<path class="st0" d="M187,230.9c-19.3,11.9-42.4,17.7-66.1,15.4l-3.7-16.6l-3.5,15.6l0,0l-3.5,15.4c30.5,5.3,60.6-1.3,85.3-16.6
	L187,230.9z"/>
<path class="st1" d="M160.3,37.3c17.3,4.9,32.5,14,44.7,25.8c6.3-1.1,12.6-2.1,18.9-2.9c-15.4-17.9-36-31.6-60.2-38.3L160.3,37.3z"
	/>
<path class="st2" d="M81.1,45.5c18.7-9.9,40.4-14.3,62.5-11.6l3.7,16.5l6.9-30.8c-28.9-5.6-57.5-0.6-81.6,12.5L81.1,45.5z"/>
<path class="st0" d="M28.9,108.2c6.8-22,20.3-40.4,37.6-53.5L81,63.6l-8-12.7l-0.3-0.4l0,0l-8.4-13.3C40.5,52.5,22,76,13.4,104.8
	L28.9,108.2z"/>
<path class="st0" d="M11,114.3c-6.5,30.3-1.2,60.5,12.9,85.7l13.3-8.5c-10.8-19.7-15.5-42.8-12.2-66.4l17-3.8l-15.7-3.5l0,0
	L11,114.3z"/>
<path class="st3" d="M208.2,224c-2.2,2-4.5,4-6.8,5.8l-0.6,0.4l-4-6.3H208.2z M43.9,205.9l1,1.2c14.2,18.2,33.7,31.4,55.9,37.7
	l0.6,0.2l-1.1,5l-0.6-0.2c-24.9-7.1-46.8-22.6-61.8-43.7l-0.4-0.5l11.2-7.1L43.9,205.9z M119,248.4l1.6,0.2
	c11.9,1.1,23.9,0.3,35.5-2.5c10.4-2.5,20.4-6.5,29.6-11.9l0.5-0.3l2.7,4.3l-0.6,0.3c-17.5,10.2-37.3,15.5-57.5,15.5
	c-5.3,0-10.7-0.4-16-1.1l-0.7-0.1l2.9-12.9L119,248.4z M207.8,62.6c-12.4-12.3-27.5-21.5-44.3-26.7l-0.6-0.2l1.1-5l0.7,0.2
	c18.8,5.8,35.7,16.5,49.2,30.7C211.8,62,209.8,62.3,207.8,62.6z M145.5,31.9l-1.6-0.2c-21.1-2.6-42.5,1.1-61.5,10.6l-0.5,0.3
	l-2.7-4.3l0.6-0.3c15.9-8,33.3-12.1,51.1-12.1c6.2,0,12.5,0.5,18.6,1.5l0.7,0.1l-2.9,12.7L145.5,31.9z M69.5,49.8l1.5,2.3l2.9,4.5
	L66.4,52L65.2,53c-17.5,13.2-30.6,31.3-37.6,52.1l-0.2,0.5l-5-1.1l0.2-0.7c7.9-23.5,23.3-43.9,43.7-57.9l0.5-0.4L69.5,49.8
	L69.5,49.8z M23.1,123.2l-0.2,1.5c-1.6,11.6-1.4,23.4,0.7,34.8c1.9,10.7,5.5,21,10.5,30.6l0.3,0.5l-4.3,2.7l-0.3-0.6
	c-8.5-16.3-12.9-34.4-12.9-52.8c0-7.1,0.7-14.1,1.9-21.1l0.1-0.7l13.1,2.9L23.1,123.2z"/>
<path class="st4" d="M40.4,8.6l39.7,71.6l3.1,5.6c0.4-0.5,0.9-0.9,1.4-1.4c3.8-3.2,8.1-3.3,12.8-2.2c1.6,0.4,3.2,0.8,4.8,1.1
	l-9.6-11.7L40.4,8.6z"/>
<path class="st5" d="M58.9,35.8l0.7,1.3l31,44.6c2.1-0.3,4.3,0,6.6,0.5L58.9,35.8z"/>
<path class="st4" d="M134.4,93.4c111-39.2,214.8-32.6,294.2,21.9C343.8,75,252.4,69.8,175.1,102c-7.3-1.8-14.7-3.4-22.2-5
	C146.7,95.7,140.5,94.5,134.4,93.4"/>
<path class="st4" d="M124.2,117.5c32.3,0.7,63.4,3.4,93.3,8c-45.7-18.7-77.9-21.5-122.7-32.4c-3.9-0.9-3.3-0.3-3.3,4.8
	c0,10.7,4.7,24.8,14.2,37C101.9,117.4,114.4,117.3,124.2,117.5"/>
<path class="st4" d="M315.1,137.4c-9.9,4.7-17.1,7.5-26.4,8.1c-37.2,2.2-103.1-8.2-121.3-13.8c26.2,3.9,90.4,12.8,123.6,3.5
	C297.9,136.2,305.9,136.9,315.1,137.4"/>
<path class="st0" d="M386.6,117.6c-1.7-1.3-3.2-2.5-3.4-2.7c-0.8,0.8-1.8,1.2-2.9,1.1c-1.6-0.1-3.2-0.2-4.9-0.3
	c-1.8-0.1-3.6-0.2-5.5-0.3c-7.7-0.4-7.5-15.9,2.1-14.1c5,0.9,8.6,1,12.8,4.2c2.7,2,10.3,8,15.6,12.1c18.6,0.2,36.7,0.8,53.8,2.3
	c44.6,4,83,14,98,59.1c-61.8-89.1-230.7-18.9-331.4-70.7C268,119.9,328.9,117.6,386.6,117.6"/>
<defs>
	<filter id="Adobe_OpacityMaskFilter" filterUnits="userSpaceOnUse" x="217.8" y="87.3" width="143.8" height="26.8">
		<feColorMatrix  type="matrix" values="1 0 0 0 0  0 1 0 0 0  0 0 1 0 0  0 0 0 1 0"/>
	</filter>
</defs>
<mask maskUnits="userSpaceOnUse" x="217.8" y="87.3" width="143.8" height="26.8" id="SVGID_1_">
	<g class="st6">
		
			<linearGradient id="SVGID_2_" gradientUnits="userSpaceOnUse" x1="-725.8743" y1="1007.7848" x2="-734.1194" y2="1071.6945" gradientTransform="matrix(1 0 0 1 1022.5107 -961.0977)">
			<stop  offset="0" style="stop-color:#FFFFFF"/>
			<stop  offset="1" style="stop-color:#070606"/>
		</linearGradient>
		<rect x="217.8" y="87.3" class="st7" width="143.8" height="26.8"/>
	</g>
</mask>
<path class="st8" d="M360.5,114.1c-88.1-1.8-138.9-7-142.8-17.8c38.7-12.4,89.9-12.1,143.8,1C357.9,102.6,357.8,108.7,360.5,114.1"
	/>
<g>
	<path d="M84.5,169.2c0-3.4-0.6-5.7-4-5.7h-0.6v-1.7h15.5c7.2,0,17,1,17,10.1c0,3.3-2.6,6.9-8,8.3c7.5,0.7,9.7,4.7,9.7,9.1
		c0,8.8-8.8,10.5-17,10.5H84.5V169.2z M96.3,178.9c4.7,0,8-2,8-7.4c0-5.7-4.5-7.5-8.9-7.5c-0.9,0-1.8,0.1-3.4,0.4v14.5H96.3z
		 M106.1,189.4c0-5.3-3.3-7.9-9.8-7.9H92v15.3c0.8,0.2,2.5,0.6,4.3,0.6C102.7,197.3,106.1,194.4,106.1,189.4z"/>
	<path d="M121.5,169.2c0-3.4-0.6-5.7-4-5.7h-0.6v-1.7h25.3c4,0,4.9,2.3,4.9,4.6v4.9h-1.7c0-4.9-2.6-6.9-7.2-6.9H129v14.4h14.9v2.6
		H129V197h9.8c4.2,0,7.1-1.6,9.1-6.6l1.6,0.6l-1.7,4.5c-0.9,2.5-1.8,4-5,4h-21.3V169.2z"/>
	<path d="M153.2,193.7V187h1.6c1.2,8,4.9,11,11.3,11c4.4,0,7.2-1.9,7.2-5.6c0-3.3-2.2-5.2-5.9-7.4l-7.1-4.3c-5.2-3-7.1-6.1-7.1-10.3
		c0-6,5-9.8,12.9-9.8c6.3,0,13,2.5,13,6.9v6.7h-1.6c-1.3-8-4.9-11-10.7-11c-4.1,0-6.7,2.1-6.7,5.6c0,3.2,2.4,4.9,6,7l7.1,4.2
		c5.2,3,7.5,5.7,7.5,9.9c0,6.6-5.2,10.7-14.4,10.7C160,200.6,153.2,198.1,153.2,193.7z"/>
	<path d="M196.1,164.3H192c-4.1,0-6.6,1.8-6.6,6.9h-1.7v-4.9c0-2.3,0.9-4.6,4.9-4.6h27v2.6h-12v35.3h-7.5V164.3z"/>
	<path d="M232.3,181.2c0-11.6,8.1-20.7,19-20.7c7.2,0,11.5,2.2,13.6,4.7c1.6,2,1.5,5.3,1.5,8.7h-1.7c-1.4-7-5.3-10.8-11.7-10.8
		c-7.1,0-12.6,4.1-12.6,18.1c0,8.8,3.5,17,12.6,17c5.3,0,10.1-2.9,12.8-8.2l2,1.6c-3.6,6.4-8.5,9.3-16.5,9.3
		C239.1,200.8,232.3,192.3,232.3,181.2z"/>
	<path d="M294,192.4l-1.3-3.2h-15.3l-4.7,10.5h-3l17-37.9h2.6l12.9,30.7c1.4,3.4,3.4,5.5,6,5.7v1.4c-0.6,0.2-1.9,0.3-2.8,0.3
		C301.5,199.8,296.7,198.9,294,192.4z M291.5,186.6l-6.3-15l-6.7,15H291.5z"/>
	<path d="M327.4,191.8l-5.7-9.6h-2.3v17.4h-7.5v-30.5c0-3.4-0.6-5.7-4-5.7h-0.6v-1.7h15.9c5.2,0,15.5,1.1,15.5,10.4
		c0,6.1-4.6,8.5-9.3,9.7l6,10.1c2.9,4.9,5.5,6,7.1,6.3v1.4c-0.6,0.3-2.5,0.6-4,0.6C334.5,200.2,331.1,198.1,327.4,191.8z M322.8,180
		c3.7,0,7.8-2,7.8-8c0-6-4-8-7.6-8c-0.6,0-1.8,0.1-3.6,0.4V180H322.8z"/>
	<path d="M361.6,169.2c0-3.4-0.6-5.7-4-5.7H357v-1.7h15.6c15.7,0,23.7,7.1,23.7,18.7c0,11.3-7.8,19.2-22.2,19.2h-12.5V169.2z
		 M387.7,180.6c0-10.1-5.6-16.7-13.9-16.7c-1.7,0-2.5,0.1-4.8,0.4v32.5c2.5,0.5,3,0.4,4.9,0.4C381.9,197.3,387.7,191,387.7,180.6z"
		/>
	<path d="M403.5,169.2c0-3.4-0.6-5.7-4-5.7h-0.6v-1.7h25.3c4,0,4.9,2.3,4.9,4.6v4.9h-1.7c0-4.9-2.6-6.9-7.2-6.9H411v14.4h14.9v2.6
		H411V197h9.8c4.2,0,7.1-1.6,9.1-6.6l1.6,0.6l-1.7,4.5c-0.9,2.5-1.8,4-5,4h-21.3V169.2z"/>
	<path d="M457.3,192.4l-1.3-3.2h-15.3l-4.7,10.5h-3l17-37.9h2.6l12.9,30.7c1.4,3.4,3.4,5.5,6,5.7v1.4c-0.6,0.2-1.9,0.3-2.8,0.3
		C464.8,199.8,460.1,198.9,457.3,192.4z M454.9,186.6l-6.3-15l-6.7,15H454.9z"/>
	<path d="M475.2,169.2c0-3.4-0.6-5.7-4-5.7h-0.6v-1.7h6.9c4,0,5.2,1.8,5.2,7.5V197h19.8v2.6h-27.3V169.2z"/>
	<path d="M505.2,193.7V187h1.6c1.2,8,4.9,11,11.3,11c4.4,0,7.2-1.9,7.2-5.6c0-3.3-2.2-5.2-5.9-7.4l-7.1-4.3c-5.2-3-7.1-6.1-7.1-10.3
		c0-6,5-9.8,12.9-9.8c6.3,0,13,2.5,13,6.9v6.7h-1.6c-1.3-8-4.9-11-10.7-11c-4.1,0-6.7,2.1-6.7,5.6c0,3.2,2.4,4.9,6,7l7.1,4.2
		c5.2,3,7.5,5.7,7.5,9.9c0,6.6-5.2,10.7-14.4,10.7C511.9,200.6,505.2,198.1,505.2,193.7z"/>
</g>
</svg>
