<?xml version="1.0" encoding="utf-8"?>
<!-- Generator: Adobe Illustrator 22.0.0, SVG Export Plug-In . SVG Version: 6.00 Build 0)  -->
<svg version="1.1" id="Layer_1" xmlns="http://www.w3.org/2000/svg" xmlns:xlink="http://www.w3.org/1999/xlink" x="0px" y="0px"
	 viewBox="0 0 28 28" style="enable-background:new 0 0 28 28;" xml:space="preserve">
<style type="text/css">
	.st0{fill:#151A7B;}
</style>
<title>ic_fluent_phone_28_regular</title>
<desc>Created with Sketch.</desc>
<g id="_xD83D__xDD0D_-Product-Icons">
	<g id="ic_fluent_phone_28_regular">
		<path id="_xD83C__xDFA8_-Color" class="st0" d="M7.9,2.6l1.7-0.5c1.6-0.5,3.2,0.3,3.9,1.8l1,2.3c0.6,1.3,0.3,2.8-0.7,3.7L12,11.6
			c0,0,0,0-0.1,0.1c-0.2,0.4,0.1,1.4,1,3c1,1.8,1.8,2.5,2.2,2.3l2.4-0.7c1.3-0.4,2.8,0.1,3.6,1.2l1.5,2c1,1.3,0.8,3.1-0.4,4.3
			L20.8,25c-0.9,0.8-2.1,1.2-3.3,0.9c-3.5-0.7-6.7-3.6-9.5-8.4c-2.8-4.9-3.7-9-2.6-12.4C5.8,3.9,6.8,3,7.9,2.6z M8.4,4.1
			C7.7,4.3,7.1,4.8,6.9,5.5c-1,2.9-0.2,6.7,2.4,11.2s5.5,7.1,8.5,7.7c0.7,0.1,1.5-0.1,2-0.6l1.3-1.2c0.6-0.6,0.7-1.6,0.2-2.3l-1.5-2
			c-0.4-0.6-1.2-0.9-1.9-0.6l-2.4,0.7c-1.3,0.4-2.5-0.7-3.9-3c-1.1-2-1.5-3.4-1-4.4c0.1-0.2,0.2-0.4,0.4-0.5l1.8-1.7
			c0.5-0.5,0.7-1.3,0.4-2l-1-2.3c-0.4-0.8-1.3-1.2-2.1-1L8.4,4.1z"/>
	</g>
</g>
</svg>
