<?xml version="1.0" encoding="utf-8"?>
<!-- Generator: Adobe Illustrator 22.0.0, SVG Export Plug-In . SVG Version: 6.00 Build 0)  -->
<svg version="1.1" id="Layer_1" xmlns="http://www.w3.org/2000/svg" xmlns:xlink="http://www.w3.org/1999/xlink" x="0px" y="0px"
	 viewBox="0 0 40 40" style="enable-background:new 0 0 40 40;" xml:space="preserve">
<style type="text/css">
	.st0{fill:#EE1D23;}
</style>
<path class="st0" d="M35.7,19.3l-15-15c-0.6-0.6-1.4-1-2.4-1H6.7c-1.8,0-3.3,1.5-3.3,3.3v11.7c0,0.9,0.4,1.8,1,2.4l15,15
	c0.6,0.6,1.4,1,2.4,1c0.9,0,1.8-0.4,2.4-1L35.7,24c0.6-0.6,1-1.4,1-2.4C36.7,20.8,36.3,19.9,35.7,19.3 M9.2,11.7
	c-1.4,0-2.5-1.1-2.5-2.5s1.1-2.5,2.5-2.5s2.5,1.1,2.5,2.5S10.5,11.7,9.2,11.7 M28.8,25.5l-7.1,7.1l-7.1-7.1c-0.8-0.8-1.2-1.8-1.2-3
	c0-2.3,1.9-4.2,4.2-4.2c1.1,0,2.2,0.5,3,1.2l1.2,1.2l1.2-1.2c0.8-0.8,1.8-1.2,3-1.2c2.3,0,4.2,1.9,4.2,4.2
	C30,23.6,29.5,24.7,28.8,25.5z"/>
</svg>
