<?xml version="1.0" encoding="utf-8"?>
<!-- Generator: Adobe Illustrator 22.0.0, SVG Export Plug-In . SVG Version: 6.00 Build 0)  -->
<svg version="1.1" id="Capa_1" xmlns="http://www.w3.org/2000/svg" xmlns:xlink="http://www.w3.org/1999/xlink" x="0px" y="0px"
	 viewBox="0 0 7.8 7.9" style="enable-background:new 0 0 7.8 7.9;" xml:space="preserve">
<style type="text/css">
	.st0{fill:#FFFFFF;}
</style>
<path class="st0" d="M5.2,3.9l2.4-2.4c0.4-0.4,0.4-0.9,0-1.2l0,0C7.4,0.1,7.2,0,7,0S6.6,0.1,6.4,0.3L3.9,2.7L1.5,0.3
	C1.2,0,0.6,0,0.3,0.3C0.1,0.4,0,0.7,0,0.9s0.1,0.4,0.3,0.6l2.4,2.4L0.3,6.3C0.1,6.5,0,6.7,0,7c0,0.2,0.1,0.4,0.3,0.6
	c0.2,0.2,0.4,0.3,0.6,0.3s0.4-0.1,0.6-0.3l2.4-2.4l2.4,2.4C6.7,8,7.2,8,7.5,7.6c0.4-0.4,0.4-0.9,0-1.2L5.2,3.9z"/>
</svg>
