<?xml version="1.0" encoding="utf-8"?>
<!-- Generator: Adobe Illustrator 22.0.0, SVG Export Plug-In . SVG Version: 6.00 Build 0)  -->
<svg version="1.1" id="Capa_1" xmlns="http://www.w3.org/2000/svg" xmlns:xlink="http://www.w3.org/1999/xlink" x="0px" y="0px"
	 viewBox="0 0 60 60" style="enable-background:new 0 0 60 60;" xml:space="preserve">
<style type="text/css">
	.st0{fill:#151A7B;}
	.st1{fill:#DD0000;stroke:#FFFFFF;stroke-width:2;}
	.st2{fill:#FFFFFF;}
</style>
<g>
	<path class="st0" d="M27,1C12.3,0.8,0.3,12.4,0,27c-0.1,8.3,3.6,15.8,9.4,20.7c0.4-0.3,0.8-0.6,1.3-0.9l7.9-4.3
		c1-0.6,1.7-1.7,1.7-2.8v-3.2c0,0-2.3-2.8-3.2-6.6c-0.7-0.5-1.2-1.3-1.2-2.2v-3.5c0-0.8,0.3-1.5,0.9-2V17c0,0-1.1-8,9.8-8
		s9.8,8,9.8,8v5.1c0.5,0.5,0.9,1.2,0.9,2v3.5c0,1.2-0.8,2.2-1.9,2.5c-0.6,1.9-1.5,3.7-2.6,5.3c-0.3,0.4-0.6,0.8-0.8,1v3.3
		c0,1.2,0.7,2.3,1.8,2.9l8.5,4.2c0.5,0.3,1,0.6,1.4,0.9C49.2,43.1,52.9,36,53,28C53.2,13.3,41.6,1.3,27,1z"/>
</g>
<ellipse class="st0" cx="26.5" cy="27.5" rx="26.3" ry="26.6"/>
<g>
	<circle class="st1" cx="47" cy="46" r="12"/>
</g>
<path class="st2" d="M48.4,46l2.4-2.4c0.4-0.4,0.4-0.9,0-1.2l0,0c-0.1-0.2-0.4-0.3-0.6-0.3s-0.4,0.1-0.6,0.3l-2.5,2.5l-2.4-2.4
	c-0.4-0.4-0.9-0.4-1.2,0c-0.2,0.1-0.3,0.4-0.3,0.6c0,0.3,0.1,0.4,0.3,0.6l2.4,2.4l-2.4,2.4c-0.1,0.2-0.3,0.4-0.3,0.7
	c0,0.2,0.1,0.4,0.3,0.6c0.2,0.2,0.4,0.3,0.6,0.3s0.4-0.1,0.6-0.3l2.4-2.4l2.4,2.4c0.4,0.4,0.9,0.4,1.2,0c0.4-0.4,0.4-0.9,0-1.2
	L48.4,46z"/>
</svg>
