<?xml version="1.0" encoding="utf-8"?>
<!-- Generator: Adobe Illustrator 22.0.0, SVG Export Plug-In . SVG Version: 6.00 Build 0)  -->
<svg version="1.1" id="Layer_1" xmlns="http://www.w3.org/2000/svg" xmlns:xlink="http://www.w3.org/1999/xlink" x="0px" y="0px"
	 viewBox="0 0 800 800" style="enable-background:new 0 0 800 800;" xml:space="preserve">
<style type="text/css">
	.st0{fill:#FFFFFF;}
</style>
<path class="st0" d="M116.7,400c0-156.5,126.9-283.3,283.3-283.3S683.3,243.5,683.3,400c0,156.5-126.9,283.3-283.3,283.3
	c-55.7,0-107.6-16.1-151.4-43.8c-8.1-5.2-18.1-6.5-27.4-3.8l-96,28.6l36.1-84.6c4.3-10,3.4-21.4-2.3-30.7
	C132.2,505.9,116.7,454.8,116.7,400z M400,50C206.7,50,50,206.7,50,400c0,61.3,15.8,118.9,43.5,169.1L36,703.6
	c-5.1,11.9-2.8,25.6,5.8,35.3c8.6,9.6,22,13.4,34.4,9.7l150-44.8C277.4,733.2,336.8,750,400,750c193.3,0,350-156.7,350-350
	C750,206.7,593.3,50,400,50z M476.4,472.7l-43.8,30.9c-20.5-11.7-43.2-28-66-50.8c-23.7-23.7-41.2-48.1-54.1-70.5l27.8-23.6
	c11.9-10.1,15.2-27.2,7.9-41.1L312.8,251c-4.8-9-13.4-15.3-23.4-17.1c-10-1.8-20.3,1-28,7.7l-10.5,9.2
	c-25.3,22.1-40.2,58.3-27.9,95.1c12.9,38.1,40.3,98,96.5,154.2c60.5,60.5,121.9,84.3,157.8,93.5c28.9,7.4,56.3-2.5,75.6-18.3
	l19.7-16.1c8.4-6.9,13-17.4,12.2-28.3c-0.8-10.9-6.8-20.6-16.2-26.2l-55.9-33.3C501.4,464.6,487.2,465.2,476.4,472.7z"/>
</svg>
