<?xml version="1.0" encoding="utf-8"?>
<!-- Generator: Adobe Illustrator 22.0.0, SVG Export Plug-In . SVG Version: 6.00 Build 0)  -->
<svg version="1.1" id="Layer_1" xmlns="http://www.w3.org/2000/svg" xmlns:xlink="http://www.w3.org/1999/xlink" x="0px" y="0px"
	 viewBox="0 0 245.3 130.8" style="enable-background:new 0 0 245.3 130.8;" xml:space="preserve">
<style type="text/css">
	.st0{fill:#191919;}
	.st1{fill:#141414;}
	.st2{opacity:0.27;fill:#2B2B2B;enable-background:new    ;}
	.st3{fill:#423536;}
	.st4{fill:#FFFFFF;}
</style>
<polygon points="67.4,26.5 68.7,24.1 70,21.8 67.4,21.8 64.8,21.8 66.1,24.1 "/>
<polygon points="67.4,106.7 68.7,109.1 70,111.4 67.4,111.4 64.8,111.4 66.1,109.1 "/>
<polygon points="27.3,66.6 25,65.3 22.6,64 22.6,66.6 22.6,69.2 25,67.9 "/>
<polygon points="39.1,38.2 38.3,35.7 37.6,33.1 35.8,34.9 33.9,36.8 36.5,37.5 "/>
<polygon points="39.1,95 36.5,95.7 33.9,96.4 35.8,98.2 37.6,100.1 38.3,97.5 "/>
<path d="M23.2,52.6c3.1-9.8,9.3-18.2,17.6-24l2.2,1c-8.3,5.5-14.7,13.8-17.8,23.5L23.2,52.6z M27,89.4c-3.8-6.8-6-14.6-6-22.8
	c0-1.8,0.1-3.6,0.3-5.4l2.2-0.7c-0.3,2-0.4,4-0.4,6.1c0,7.9,2.1,15.3,5.7,21.8L27,89.4z M56,111.6c-9.7-2.4-18.2-7.9-24.3-15.4l1-2
	c6,7.5,14.2,13,23.8,15.5L56,111.6z M90.9,106.6c-6.9,4-14.9,6.4-23.5,6.4c-1,0-2,0-3-0.1l-0.8-2.1c1.2,0.1,2.5,0.1,3.7,0.1
	c6.9,0,13.4-1.6,19.2-4.3H90.9z M80.3,22c6.3,1.8,12,4.9,16.9,9c-0.9,0.2-1.7,0.4-2.6,0.5c-4.3-3.4-9.3-6-14.8-7.6L80.3,22z
	 M67.4,20.2c1.4,0,2.8,0,4.2,0.2l0.8,2.1c-1.6-0.2-3.3-0.3-5-0.3c-7.1,0-13.9,1.7-19.9,4.7l-1.1-1.7C52.7,22,59.9,20.2,67.4,20.2z"
	/>
<path class="st0" d="M97.6,106.6l4.4,7c2.9-2.1,5.5-4.4,7.9-7H97.6z"/>
<path class="st1" d="M54.6,115.8c-11.2-2.9-20.7-9.4-27.3-17.9l4.4-6.9l-12.8,8.1c7.8,11.6,19.6,20.4,34,24L54.6,115.8z"/>
<path class="st1" d="M94.1,109.9c-9.2,5.7-20.2,8.4-31.5,7.3l-1.8-7.9l-1.7,7.4l0,0l-1.7,7.3c14.5,2.5,28.8-0.6,40.6-7.9L94.1,109.9
	z"/>
<path class="st1" d="M81.4,17.7c8.2,2.3,15.5,6.7,21.3,12.3c3-0.5,6-1,9-1.4c-7.3-8.5-17.1-15-28.7-18.2L81.4,17.7z"/>
<path class="st1" d="M43.7,21.6c8.9-4.7,19.2-6.8,29.8-5.5l1.8,7.9l3.3-14.7c-13.8-2.7-27.4-0.3-38.8,6L43.7,21.6z"/>
<path class="st1" d="M18.9,51.5C22.1,41,28.6,32.3,36.8,26l6.9,4.2l-3.8-6L39.8,24l0,0l-4-6.3c-11.4,7.2-20.2,18.4-24.3,32.1
	L18.9,51.5z"/>
<path class="st0" d="M10.4,54.4c-3.1,14.4-0.6,28.8,6.1,40.8l6.3-4c-5.1-9.4-7.4-20.4-5.8-31.6l8.1-1.8l-7.5-1.7l0,0L10.4,54.4z"/>
<path class="st2" d="M104.2,106.6c-1,1-2.1,1.9-3.2,2.8l-0.3,0.2l-1.9-3H104.2L104.2,106.6z M26,98l0.5,0.6
	c6.8,8.7,16,14.9,26.6,17.9l0.3,0.1l-0.5,2.4l-0.3-0.1c-11.9-3.4-22.3-10.8-29.4-20.8L23,97.8l5.3-3.4L26,98z M61.8,118.2l0.8,0.1
	c5.7,0.5,11.4,0.1,16.9-1.2c5-1.2,9.7-3.1,14.1-5.7l0.2-0.1l1.3,2l-0.3,0.1c-8.3,4.9-17.8,7.4-27.4,7.4c-2.5,0-5.1-0.2-7.6-0.5h-0.3
	l1.4-6.1L61.8,118.2z M104,29.7C98.1,23.8,90.9,19.5,82.9,17l-0.3-0.1l0.5-2.4l0.3,0.1c8.9,2.8,17,7.9,23.4,14.6
	C105.9,29.5,105,29.6,104,29.7z M74.4,15.1L73.6,15c-10-1.2-20.2,0.5-29.3,5l-0.2,0.1l-1.3-2l0.3-0.1c7.6-3.8,15.9-5.8,24.3-5.8
	c3,0,6,0.2,8.9,0.7h0.3l-1.4,6L74.4,15.1z M38.2,23.7l0.7,1.1l1.4,2.1l-3.6-2.2l-0.6,0.5C27.8,31.5,21.5,40.1,18.2,50l-0.1,0.2
	l-2.4-0.5l0.1-0.3C19.6,38.2,27,28.5,36.7,21.8l0.2-0.2L38.2,23.7L38.2,23.7z M16.1,58.6L16,59.3c-0.8,5.5-0.7,11.1,0.3,16.6
	c0.9,5.1,2.6,10,5,14.6l0.1,0.2l-2,1.3l-0.1-0.3c-4-7.8-6.1-16.4-6.1-25.1c0-3.4,0.3-6.7,0.9-10v-0.3l6.2,1.4L16.1,58.6z"/>
<path d="M24.3,4l18.9,34.1l1.5,2.7c0.2-0.2,0.4-0.4,0.7-0.7c1.8-1.5,3.9-1.6,6.1-1c0.8,0.2,1.5,0.4,2.3,0.5L49.2,34L24.3,4z"/>
<path class="st3" d="M33.2,17l0.3,0.6l14.7,21.2c1-0.1,2,0,3.1,0.2L33.2,17z"/>
<path d="M69.2,50c45.1-15.9,87.2-13.2,119.5,8.9c-34.5-16.3-71.6-18.5-103-5.4c-3-0.7-6-1.4-9-2C74.3,51,71.8,50.5,69.2,50"/>
<path d="M65.1,59.8c19.3,0.4,19.7,0.5,37.9,3.2c-18.5-7.6-31.6-8.7-49.8-13.2c-1.6-0.4-1.3-0.1-1.3,1.9c0,4.4,1.9,10.1,5.8,15
	C56.1,59.8,61.1,59.7,65.1,59.8"/>
<path d="M142.7,67.9c-4,1.9-7,3-10.7,3.3c-15.2,0.9-41.9-3.3-49.3-5.6c10.6,1.6,36.7,5.2,50.2,1.4C147.9,69.3,128.3,67.1,142.7,67.9
	"/>
<path class="st1" d="M171.8,59.9c-0.7-0.6-1.3-1.1-1.4-1.1c-0.4,0.3-0.8,0.5-1.2,0.5c-0.6-0.1-1.3-0.1-2-0.1
	c-0.7-0.1-1.5-0.1-2.3-0.1c-3.1-0.1-3-6.4,0.8-5.7c2,0.4,3.5,0.4,5.2,1.7c1.1,0.8,4.2,3.2,6.3,4.9c7.5,0.1,14.9,0.3,21.8,0.9
	c18.1,1.6,33.8,5.7,39.8,24c-25.1-36.2-93.7-7.7-134.7-28.8C123.6,60.8,148.3,59.9,171.8,59.9"/>
<g>
	<path class="st4" d="M65.3,93.2v1.5c0,0.2,0,0.3-0.1,0.4c-0.1,0.1-0.2,0.1-0.4,0.1c-0.8,0.2-2.2,0.3-4.1,0.3
		c-0.8,0-1.6-0.1-2.2-0.2c-0.6-0.1-1.2-0.4-1.7-0.7s-0.9-0.8-1.2-1.5c-0.3-0.7-0.4-1.5-0.4-2.5V78c0-0.1,0-0.2,0.1-0.3
		c0.1-0.1,0.2-0.1,0.3-0.1h2.4c0.1,0,0.2,0,0.3,0.1c0.1,0.1,0.1,0.2,0.1,0.3v12.6c0,0.8,0.1,1.3,0.4,1.6c0.3,0.3,0.8,0.4,1.5,0.4
		h4.4c0.1,0,0.2,0,0.3,0.1C65.3,92.9,65.3,93,65.3,93.2z"/>
	<path class="st4" d="M70.7,77.4v2.1c0,0.1,0,0.2-0.1,0.3C70.4,80,70.3,80,70.2,80h-2.3c-0.1,0-0.2,0-0.3-0.1
		c-0.1-0.1-0.2-0.2-0.2-0.3v-2.1c0-0.1,0.1-0.2,0.2-0.3c0.1-0.1,0.2-0.1,0.3-0.1h2.3c0.1,0,0.2,0,0.3,0.1
		C70.6,77.2,70.7,77.3,70.7,77.4z M70.6,82.3v12.6c0,0.1,0,0.2-0.1,0.3c-0.1,0.1-0.2,0.2-0.3,0.2h-2.2c-0.1,0-0.2-0.1-0.3-0.2
		c-0.1-0.1-0.1-0.2-0.1-0.3V82.3c0-0.1,0-0.2,0.1-0.3c0.1-0.1,0.2-0.1,0.3-0.1h2.2c0.1,0,0.2,0,0.3,0.1C70.5,82,70.6,82.2,70.6,82.3
		z"/>
	<path class="st4" d="M82.9,91.8c0,1.1-0.4,2-1.2,2.7c-0.8,0.7-2,1-3.5,1c-1.8,0-3.2-0.2-4.3-0.5c-0.3-0.1-0.5-0.2-0.5-0.6v-1.4
		c0-0.3,0.1-0.4,0.4-0.4h0.1c1.7,0.2,3,0.3,4,0.3c0.7,0,1.1-0.1,1.4-0.3c0.2-0.2,0.3-0.5,0.3-0.9s-0.4-0.8-1.1-1.2l-3.3-2
		c-1.3-0.8-2-2-2-3.3c0-2.4,1.5-3.6,4.6-3.6c1.4,0,2.8,0.2,4.3,0.5c0.3,0.1,0.4,0.3,0.4,0.6v1.4c0,0.3-0.1,0.5-0.4,0.5h-0.1
		c-1-0.2-2.4-0.3-4-0.3c-0.6,0-1,0.1-1.3,0.2s-0.4,0.4-0.4,0.8c0,0.2,0.1,0.3,0.2,0.5s0.4,0.3,0.7,0.5l3.1,1.9
		c0.9,0.5,1.5,1.1,1.8,1.7S82.9,91.1,82.9,91.8z"/>
	<path class="st4" d="M93.1,93.4v1.5c0,0.2-0.2,0.4-0.5,0.4c-0.7,0.1-1.2,0.2-1.6,0.2c-1.4,0-2.4-0.3-3-0.8
		c-0.6-0.5-0.8-1.5-0.8-3.1v-7.5l-2.3-0.3c-0.3-0.1-0.5-0.2-0.5-0.5v-1.1c0-0.1,0-0.2,0.1-0.3c0.1-0.1,0.2-0.1,0.3-0.1h2.3v-2
		c0-0.2,0.2-0.4,0.5-0.5l2.2-0.4H90c0.3,0,0.4,0.1,0.4,0.4v2.5h2.2c0.1,0,0.2,0,0.3,0.1C93,82,93,82.2,93,82.3v1.4
		c0,0.1,0,0.2-0.1,0.3c-0.1,0.1-0.2,0.1-0.3,0.1h-2.2v7.5c0,0.6,0,1,0.1,1.1c0.1,0.1,0.4,0.2,0.8,0.2h1.3
		C92.9,93.1,93.1,93.2,93.1,93.4z"/>
	<path class="st4" d="M111.3,86.2v8.6c0,0.1,0,0.2-0.1,0.3c-0.1,0.1-0.2,0.1-0.3,0.1h-2c-0.1,0-0.2,0-0.3-0.1
		c-0.1-0.1-0.1-0.2-0.1-0.3v-0.4c-1.2,0.7-2.3,1.1-3.4,1.1c-1.2,0-2.2-0.3-3-0.9s-1.2-1.6-1.2-3.1v-0.1c0-1.4,0.5-2.5,1.4-3.1
		c0.9-0.7,2.4-1,4.5-1h1.5v-1.1c0-0.8-0.2-1.3-0.5-1.5c-0.3-0.3-0.9-0.4-1.6-0.4c-1.6,0-2.9,0.1-3.9,0.2H102c-0.3,0-0.4-0.1-0.4-0.4
		v-1.5c0-0.3,0.2-0.4,0.5-0.5c1.3-0.3,2.6-0.4,4-0.4C109.5,81.6,111.3,83.2,111.3,86.2z M108.1,92.3v-3h-1.5c-1,0-1.7,0.2-2.1,0.5
		s-0.6,0.8-0.6,1.6v0.1c0,0.6,0.1,1,0.4,1.2s0.7,0.3,1.3,0.3C106.5,93,107.3,92.8,108.1,92.3z"/>
	<path class="st4" d="M125.5,87v7.8c0,0.1,0,0.2-0.1,0.3c-0.1,0.1-0.2,0.2-0.3,0.2h-2.2c-0.1,0-0.2-0.1-0.3-0.2
		c-0.1-0.1-0.1-0.2-0.1-0.3V87c0-1.1-0.1-1.8-0.3-2.2c-0.2-0.3-0.8-0.5-1.7-0.5c-0.7,0-1.6,0.3-2.7,0.9v9.6c0,0.1,0,0.2-0.1,0.3
		c-0.1,0.1-0.2,0.2-0.3,0.2h-2.2c-0.1,0-0.2-0.1-0.3-0.2c-0.1-0.1-0.1-0.2-0.1-0.3V82.3c0-0.1,0-0.2,0.1-0.3
		c0.1-0.1,0.2-0.1,0.3-0.1h2.1c0.1,0,0.2,0,0.3,0.1c0.1,0.1,0.1,0.2,0.1,0.3v0.5c0.7-0.4,1.3-0.8,1.9-0.9c0.6-0.2,1.2-0.2,2-0.2
		c0.8,0,1.5,0.1,2.1,0.4c0.6,0.3,1,0.7,1.3,1.2c0.3,0.5,0.5,1.1,0.6,1.7C125.4,85.5,125.5,86.2,125.5,87z"/>
	<path class="st4" d="M139.3,77.6v16.7c0,0.2,0,0.3-0.1,0.4s-0.3,0.2-0.5,0.3c-1.6,0.4-3.2,0.6-4.8,0.6c-1.9,0-3.3-0.5-4.3-1.6
		c-1-1-1.4-2.5-1.4-4.5v-1.8c0-1.9,0.5-3.4,1.4-4.5c1-1,2.4-1.6,4.3-1.6c0.7,0,1.5,0.1,2.3,0.2v-4.2c0-0.1,0-0.2,0.1-0.3
		c0.1-0.1,0.2-0.1,0.3-0.1h2.2c0.1,0,0.2,0,0.3,0.1C139.3,77.3,139.3,77.4,139.3,77.6z M136.2,92.8v-8.4c-0.8-0.1-1.6-0.2-2.3-0.2
		c-1,0-1.6,0.3-2,0.9s-0.6,1.4-0.6,2.5v1.8c0,1.1,0.2,1.9,0.6,2.5c0.4,0.6,1,0.9,2,0.9C134.9,92.9,135.6,92.9,136.2,92.8z"/>
	<path class="st4" d="M159.5,90.5c0,1.4-0.5,2.6-1.5,3.6c-1,1-2.6,1.5-4.8,1.5c-1.6,0-3-0.1-4.2-0.4c-0.3-0.1-0.5-0.2-0.5-0.5v-1.7
		c0-0.3,0.2-0.5,0.5-0.5h0c1.3,0.2,2.7,0.2,4.2,0.2c1,0,1.7-0.2,2.2-0.5c0.4-0.4,0.6-0.9,0.6-1.6c0-0.5-0.1-0.8-0.4-1.2
		c-0.3-0.3-0.8-0.7-1.6-1.2l-3.2-1.9c-1.1-0.6-1.8-1.3-2.2-2c-0.4-0.7-0.6-1.5-0.6-2.4c0-3,2-4.6,6-4.6c1.8,0,3.4,0.1,4.6,0.4
		c0.3,0.1,0.4,0.2,0.4,0.5V80c0,0.3-0.1,0.4-0.4,0.4h0c-1.5-0.2-3.1-0.2-4.7-0.2c-1.7,0-2.5,0.6-2.5,1.7c0,0.4,0.1,0.7,0.4,1
		c0.3,0.3,0.8,0.7,1.6,1.1l2.9,1.6c1.3,0.7,2.1,1.4,2.6,2.2C159.2,88.6,159.5,89.5,159.5,90.5z"/>
	<path class="st4" d="M173.2,87.7v1.3c0,0.4-0.2,0.6-0.5,0.6h-7.8v0.1c0,0.8,0.2,1.6,0.7,2.2c0.4,0.6,1.2,0.9,2.2,0.9
		c1.2,0,2.7-0.1,4.4-0.2h0.1c0.3,0,0.4,0.1,0.4,0.4v1.6c0,0.2,0,0.4-0.1,0.4c-0.1,0.1-0.2,0.1-0.4,0.2c-1.6,0.3-3.2,0.4-4.7,0.4
		c-0.7,0-1.3-0.1-1.9-0.3c-0.6-0.2-1.2-0.5-1.8-0.9c-0.6-0.4-1.1-1.1-1.5-1.9s-0.6-1.8-0.6-2.9v-1.8c0-1.9,0.5-3.4,1.5-4.5
		s2.4-1.6,4.2-1.6s3.2,0.6,4.2,1.7C172.7,84.4,173.2,85.9,173.2,87.7z M170,87.4L170,87.4c0-1-0.2-1.7-0.7-2.3
		c-0.5-0.5-1.1-0.8-1.8-0.8c-0.8,0-1.4,0.3-1.9,0.8c-0.5,0.5-0.7,1.2-0.7,2.2v0.1H170z"/>
	<path class="st4" d="M179.2,77.6v17.3c0,0.1,0,0.2-0.1,0.3c-0.1,0.1-0.2,0.2-0.3,0.2h-2.2c-0.1,0-0.2-0.1-0.3-0.2
		c-0.1-0.1-0.1-0.2-0.1-0.3V77.6c0-0.1,0-0.2,0.1-0.3c0.1-0.1,0.2-0.1,0.3-0.1h2.2c0.1,0,0.2,0,0.3,0.1S179.2,77.4,179.2,77.6z"/>
	<path class="st4" d="M185.7,77.6v17.3c0,0.1,0,0.2-0.1,0.3c-0.1,0.1-0.2,0.2-0.3,0.2H183c-0.1,0-0.2-0.1-0.3-0.2
		c-0.1-0.1-0.1-0.2-0.1-0.3V77.6c0-0.1,0-0.2,0.1-0.3c0.1-0.1,0.2-0.1,0.3-0.1h2.2c0.1,0,0.2,0,0.3,0.1S185.7,77.4,185.7,77.6z"/>
</g>
</svg>
