<?xml version="1.0" encoding="utf-8"?>
<!-- Generator: Adobe Illustrator 22.0.0, SVG Export Plug-In . SVG Version: 6.00 Build 0)  -->
<svg version="1.1" id="Layer_1" xmlns="http://www.w3.org/2000/svg" xmlns:xlink="http://www.w3.org/1999/xlink" x="0px" y="0px"
	 viewBox="0 0 128 65" style="enable-background:new 0 0 128 65;" xml:space="preserve">
<style type="text/css">
	.st0{fill:none;}
	.st1{fill:#2C2C2C;}
</style>
<g>
	<rect y="-31.1" class="st0" width="128" height="128"/>
	<path class="st1" d="M126.4,47.7c0,8.2-6.7,14.9-14.9,14.9c-4.9,0-9.3-2.4-12-6.1c0.2-0.1,0.5-0.2,0.7-0.4c1.5-0.9,3.3-2.1,3.7-2.4
		l0,0c0.6-0.3,0.9-0.8,1-1.4v-0.1c0-0.1,0-0.2,0-0.3c0-1.2,0.2-2.4,0.6-3.4c0.4,2.9,2.9,5.2,5.9,5.2c3.3,0,6-2.7,6-6
		c0-1.9-1-3.7-2.5-4.8c0.7,0,1.4,0.2,2,0.4l0,0c1.2,0.4,2.5,0.3,3.5-0.4c0.8-0.5,1.9-1.2,2.9-1.9c0.4-0.3,0.7-0.6,1-0.9
		C125.6,42.3,126.3,44.9,126.4,47.7z M50.8,37.5c-6.8,0.1-11.3-1.8-14.1-4.1L35.6,32l-1.4-1.4l-0.3-0.5c1.6,0.5,9.6,2.7,15.9,1.5
		c6-1.1,8.5-3.2,12.3-5.7C62.1,26.4,61,37.3,50.8,37.5z M104.4,46.1c-0.9,1.7-1.5,3.6-1.5,5.6l0,0c0,0.1,0,0.2-0.1,0.2
		c-0.4,0.3-2.2,1.4-3.7,2.4c-0.5,0.4-1.2,0.4-1.8,0.2c-0.6-0.2-1-0.7-1.2-1.3c-0.3-1.4-0.5-2.8-0.5-4.2c0-3.3,1-6.4,2.7-9
		C98.3,40,104.4,46.2,104.4,46.1z M104.1,34.6c2.4-1.3,5.1-2,8-2c3.9,0,7.5,1.4,10.3,3.6c0.5,0.4,0.7,1,0.7,1.6s-0.4,1.2-0.9,1.5
		c-1,0.7-2.1,1.4-2.9,1.9c-0.6,0.3-1.2,0.4-1.8,0.2c-1.1-0.4-2.3-0.6-3.6-0.6c-1.1,0-2.2,0.2-3.2,0.5L104.1,34.6z M32.8,28.5
		c-0.2,0.1-0.3,0.2-0.2,0.6c-0.5,0.7,4.7,7.4,5.8,8c-0.3,0.3-0.7,0.5-1.2,0.6c-1.5,0.2-3.3,0.5-4.4,0.7c-0.7,0.1-1.3-0.1-1.8-0.5
		c-1.2-0.9-2.4-1.7-3.9-2.3C20.3,33,11.6,35.8,8.9,42l0,0c-0.1,0-0.1,0.1-0.2,0.1c-0.5,0.1-2.7,0.5-4.5,0.8
		c-0.6,0.1-1.3-0.1-1.8-0.5c-0.5-0.5-0.8-1.1-0.7-1.7c0.2-1.6,0.6-3.2,1.3-4.8c4-9.3,15.5-13.6,25.6-9.6
		C30.1,26.9,31.5,27.6,32.8,28.5L32.8,28.5z"/>
	<path class="st1" d="M33.8,40c1.4,2.2,2.1,4.9,2.2,7.7c0,8.2-6.7,14.9-14.9,14.9S6.2,55.9,6.2,47.7c0-1.2,0.1-2.3,0.4-3.4
		C7.7,44,8.7,43.9,9,43.8l0,0c0.3-0.1,0.6-0.2,0.9-0.4l0,0c0.4-0.2,0.6-0.6,0.7-0.9c2.3-5.3,9.8-7.6,15.6-5.3c1.3,0.5,2.4,1.2,3.3,2
		c1,0.7,2.2,1.1,3.4,0.9C33.2,40.1,33.5,40.1,33.8,40L33.8,40z M29.2,47.7c0,4.5-3.6,8.1-8.1,8.1S13,52.2,13,47.7s3.6-8.1,8.1-8.1
		C25.5,39.6,29.2,43.2,29.2,47.7z M50.7,39.5C62.6,39.3,63.9,26.7,64,26.1c0.1-0.5-0.1-0.9-0.3-1.3c4.8-3.1,8.7-5.2,12.9-6.6
		l15.8,15.9c-1.6,3.9-3.1,8.5-4,12.4c-0.8,3.6-4.1,6.2-7.8,6.2c-9.6,0-26.6,0-33.9,0c-1.9,0-3.6-1.5-3.9-3.4
		c-0.6-4.3-1.7-8.4-3.6-12C42.1,38.7,45.9,39.5,50.7,39.5z"/>
	<path class="st1" d="M90.6,11.5c0.6-0.1,1.2,0.1,1.6,0.5c0.5,0.4,0.7,0.9,0.7,1.5c0,2,0,5,0,7c0,0.6-0.3,1.1-0.7,1.5
		s-0.9,0.6-1.5,0.5s-1.1-0.2-1.7-0.3l23.9,24.1c0.8,0.8,0.8,2,0,2.8s-2,0.8-2.8,0L69,7.7c-0.8-0.7-2-0.8-2.8,0
		c-1.3,1.3-2.6,2.5-2.6,2.5c-0.8,0.7-2,0.7-2.8-0.1c-0.7-0.8-0.7-2,0.1-2.8c0,0,1.3-1.2,2.6-2.5c2.4-2.3,6.1-2.2,8.4,0.1l10.9,11
		C83.6,13.7,86.7,12,90.6,11.5z"/>
</g>
</svg>
